<?xml version="1.0" standalone="no"?>

<svg width="4000" height="1200" viewBox="-1 -0.3 2 0.6">

<rect x="-50%" y="-50%" width="100%" height="100%" fill="white" />
<g transform="scale(1,-1)">
<polygon points="-0.93301,-0.25000 0.06699,-0.25000 0.93301,0.25000 -0.06699,0.25000 " style="fill:none;stroke:rgb(25,25,25);stroke-width:0.001" fill-opacity="0.5" />
<!--E1D1D1E1D1 E1D1D1E1D1-->
<polygon points="0.43301,0.11603 0.70096,0.11603 0.93301,0.25000 0.66506,0.25000 " style="fill:none;stroke:rgb(25,25,25);stroke-width:0.001" fill-opacity="0.5" />
<svg x="0.65301" y="0.15301" width="0.06000" height="0.06000" viewBox="-3.89488 -3.89488 7.78976 7.78976">

<!-- E1D1D1E1D1 E1D1D1E1D1 -->
<polygon points="-1.86603,-0.50000 1.36603,-1.36603 1.36603,0.36603 -1.00000,1.00000 " fill="none" stroke="#ffffff" stroke-width="0.6" />
<!-- E1D1D1E1D1 E1D1D1E1D1 -->
<!-- 0 -->
<circle cx="0.00000" cy="0.00000" r="0.6" stroke="#ffffff" stroke-width="0" fill="#ffffff" />
<!-- 0 -->
<circle cx="0.36603" cy="1.36603" r="0.6" stroke="#ffffff" stroke-width="0" fill="#ffffff" />
<!-- 0 -->
<circle cx="-0.50000" cy="-1.86603" r="0.6" stroke="#ffffff" stroke-width="0" fill="#ffffff" />
<!-- 0 -->
<circle cx="2.73205" cy="0.00000" r="0.6" stroke="#ffffff" stroke-width="0" fill="#ffffff" />
<!-- 0 -->
<circle cx="-2.36603" cy="1.36603" r="0.6" stroke="#ffffff" stroke-width="0" fill="#ffffff" />
<!-- E1D1D1E1D1 E1D1D1E1D1 -->
<polygon points="-1.86603,-0.50000 1.36603,-1.36603 1.36603,0.36603 -1.00000,1.00000 " fill="none" stroke="rgb(25,25,25)" stroke-width="0.24" />
<!-- E1D1D1E1D1 E1D1D1E1D1 -->
<!-- 0 -->
<circle cx="0.00000" cy="0.00000" r="0.24" stroke="rgb(25,25,25)" stroke-width="0" fill="rgb(25,25,25)" />
<!-- 0 -->
<circle cx="0.36603" cy="1.36603" r="0.24" stroke="rgb(25,25,25)" stroke-width="0" fill="rgb(25,25,25)" />
<!-- 0 -->
<circle cx="-0.50000" cy="-1.86603" r="0.24" stroke="rgb(25,25,25)" stroke-width="0" fill="rgb(25,25,25)" />
<!-- 0 -->
<circle cx="2.73205" cy="0.00000" r="0.24" stroke="rgb(25,25,25)" stroke-width="0" fill="rgb(25,25,25)" />
<!-- 0 -->
<circle cx="-2.36603" cy="1.36603" r="0.24" stroke="rgb(25,25,25)" stroke-width="0" fill="rgb(25,25,25)" />
</svg>
<!--D1D1E1D1D1 D1D1E1D1D1-->
<polygon points="-0.93301,-0.25000 -0.66506,-0.25000 -0.43301,-0.11603 -0.70096,-0.11603 " style="fill:none;stroke:rgb(25,25,25);stroke-width:0.001" fill-opacity="0.5" />
<svg x="-0.71301" y="-0.21301" width="0.06000" height="0.06000" viewBox="-3.89488 -3.89488 7.78976 7.78976">

<!-- D1D1E1D1D1 D1D1E1D1D1 -->
<polygon points="1.86603,0.50000 -1.36603,1.36603 -1.36603,-0.36603 1.00000,-1.00000 " fill="none" stroke="#ffffff" stroke-width="0.6" />
<!-- D1D1E1D1D1 D1D1E1D1D1 -->
<!-- 0 -->
<circle cx="0.00000" cy="0.00000" r="0.6" stroke="#ffffff" stroke-width="0" fill="#ffffff" />
<!-- 0 -->
<circle cx="-0.36603" cy="-1.36603" r="0.6" stroke="#ffffff" stroke-width="0" fill="#ffffff" />
<!-- 0 -->
<circle cx="0.50000" cy="1.86603" r="0.6" stroke="#ffffff" stroke-width="0" fill="#ffffff" />
<!-- 0 -->
<circle cx="2.36603" cy="-1.36603" r="0.6" stroke="#ffffff" stroke-width="0" fill="#ffffff" />
<!-- 0 -->
<circle cx="-2.73205" cy="0.00000" r="0.6" stroke="#ffffff" stroke-width="0" fill="#ffffff" />
<!-- D1D1E1D1D1 D1D1E1D1D1 -->
<polygon points="1.86603,0.50000 -1.36603,1.36603 -1.36603,-0.36603 1.00000,-1.00000 " fill="none" stroke="rgb(25,25,25)" stroke-width="0.24" />
<!-- D1D1E1D1D1 D1D1E1D1D1 -->
<!-- 0 -->
<circle cx="0.00000" cy="0.00000" r="0.24" stroke="rgb(25,25,25)" stroke-width="0" fill="rgb(25,25,25)" />
<!-- 0 -->
<circle cx="-0.36603" cy="-1.36603" r="0.24" stroke="rgb(25,25,25)" stroke-width="0" fill="rgb(25,25,25)" />
<!-- 0 -->
<circle cx="0.50000" cy="1.86603" r="0.24" stroke="rgb(25,25,25)" stroke-width="0" fill="rgb(25,25,25)" />
<!-- 0 -->
<circle cx="2.36603" cy="-1.36603" r="0.24" stroke="rgb(25,25,25)" stroke-width="0" fill="rgb(25,25,25)" />
<!-- 0 -->
<circle cx="-2.73205" cy="0.00000" r="0.24" stroke="rgb(25,25,25)" stroke-width="0" fill="rgb(25,25,25)" />
</svg>
<!--D1D1E1D1D1 E1D1D1E1D1-->
<polygon points="-0.29904,0.11603 -0.03109,0.11603 0.20096,0.25000 -0.06699,0.25000 " style="fill:none;stroke:rgb(25,25,25);stroke-width:0.001" fill-opacity="0.5" />
<svg x="-0.07904" y="0.15301" width="0.06000" height="0.06000" viewBox="-3.89488 -3.89488 7.78976 7.78976">

<!-- D1D1E1D1D1 E1D1D1E1D1 -->
<polygon points="-1.36603,-1.36603 1.86603,-0.50000 -0.50000,1.86603 -1.36603,0.36603 " fill="none" stroke="#ffffff" stroke-width="0.6" />
<!-- D1D1E1D1D1 E1D1D1E1D1 -->
<!-- 0 -->
<circle cx="0.00000" cy="0.00000" r="0.6" stroke="#ffffff" stroke-width="0" fill="#ffffff" />
<!-- 0 -->
<circle cx="1.36603" cy="1.36603" r="0.6" stroke="#ffffff" stroke-width="0" fill="#ffffff" />
<!-- 0 -->
<circle cx="0.50000" cy="-1.86603" r="0.6" stroke="#ffffff" stroke-width="0" fill="#ffffff" />
<!-- 0 -->
<circle cx="-2.36603" cy="1.36603" r="0.6" stroke="#ffffff" stroke-width="0" fill="#ffffff" />
<!-- 0 -->
<circle cx="-2.73205" cy="0.00000" r="0.6" stroke="#ffffff" stroke-width="0" fill="#ffffff" />
<!-- D1D1E1D1D1 E1D1D1E1D1 -->
<polygon points="-1.36603,-1.36603 1.86603,-0.50000 -0.50000,1.86603 -1.36603,0.36603 " fill="none" stroke="rgb(25,25,25)" stroke-width="0.24" />
<!-- D1D1E1D1D1 E1D1D1E1D1 -->
<!-- 0 -->
<circle cx="0.00000" cy="0.00000" r="0.24" stroke="rgb(25,25,25)" stroke-width="0" fill="rgb(25,25,25)" />
<!-- 0 -->
<circle cx="1.36603" cy="1.36603" r="0.24" stroke="rgb(25,25,25)" stroke-width="0" fill="rgb(25,25,25)" />
<!-- 0 -->
<circle cx="0.50000" cy="-1.86603" r="0.24" stroke="rgb(25,25,25)" stroke-width="0" fill="rgb(25,25,25)" />
<!-- 0 -->
<circle cx="-2.36603" cy="1.36603" r="0.24" stroke="rgb(25,25,25)" stroke-width="0" fill="rgb(25,25,25)" />
<!-- 0 -->
<circle cx="-2.73205" cy="0.00000" r="0.24" stroke="rgb(25,25,25)" stroke-width="0" fill="rgb(25,25,25)" />
</svg>
<!--E1D1D1E1D1 D1D1E1D1D1-->
<polygon points="-0.20096,-0.25000 0.06699,-0.25000 0.29904,-0.11603 0.03109,-0.11603 " style="fill:none;stroke:rgb(25,25,25);stroke-width:0.001" fill-opacity="0.5" />
<svg x="0.01904" y="-0.21301" width="0.06000" height="0.06000" viewBox="-3.89488 -3.89488 7.78976 7.78976">

<!-- E1D1D1E1D1 D1D1E1D1D1 -->
<polygon points="0.50000,-1.86603 1.36603,-0.36603 1.36603,1.36603 -1.86603,0.50000 " fill="none" stroke="#ffffff" stroke-width="0.6" />
<!-- E1D1D1E1D1 D1D1E1D1D1 -->
<!-- 0 -->
<circle cx="0.00000" cy="0.00000" r="0.6" stroke="#ffffff" stroke-width="0" fill="#ffffff" />
<!-- 0 -->
<circle cx="-0.50000" cy="1.86603" r="0.6" stroke="#ffffff" stroke-width="0" fill="#ffffff" />
<!-- 0 -->
<circle cx="-1.36603" cy="-1.36603" r="0.6" stroke="#ffffff" stroke-width="0" fill="#ffffff" />
<!-- 0 -->
<circle cx="2.73205" cy="0.00000" r="0.6" stroke="#ffffff" stroke-width="0" fill="#ffffff" />
<!-- 0 -->
<circle cx="2.36603" cy="-1.36603" r="0.6" stroke="#ffffff" stroke-width="0" fill="#ffffff" />
<!-- E1D1D1E1D1 D1D1E1D1D1 -->
<polygon points="0.50000,-1.86603 1.36603,-0.36603 1.36603,1.36603 -1.86603,0.50000 " fill="none" stroke="rgb(25,25,25)" stroke-width="0.24" />
<!-- E1D1D1E1D1 D1D1E1D1D1 -->
<!-- 0 -->
<circle cx="0.00000" cy="0.00000" r="0.24" stroke="rgb(25,25,25)" stroke-width="0" fill="rgb(25,25,25)" />
<!-- 0 -->
<circle cx="-0.50000" cy="1.86603" r="0.24" stroke="rgb(25,25,25)" stroke-width="0" fill="rgb(25,25,25)" />
<!-- 0 -->
<circle cx="-1.36603" cy="-1.36603" r="0.24" stroke="rgb(25,25,25)" stroke-width="0" fill="rgb(25,25,25)" />
<!-- 0 -->
<circle cx="2.73205" cy="0.00000" r="0.24" stroke="rgb(25,25,25)" stroke-width="0" fill="rgb(25,25,25)" />
<!-- 0 -->
<circle cx="2.36603" cy="-1.36603" r="0.24" stroke="rgb(25,25,25)" stroke-width="0" fill="rgb(25,25,25)" />
</svg>
<!--E1D1D1E1D1 D1E1D1D1D1-->
<polygon points="0.03109,-0.11603 0.29904,-0.11603 0.70096,0.11603 0.43301,0.11603 " style="fill:none;stroke:rgb(25,25,25);stroke-width:0.001" fill-opacity="0.5" />
<svg x="0.33603" y="-0.03000" width="0.06000" height="0.06000" viewBox="-3.89488 -3.89488 7.78976 7.78976">

<!-- E1D1D1E1D1 D1E1D1D1D1 -->
<polygon points="-1.86603,-0.50000 1.36603,-1.36603 1.36603,1.36603 -1.86603,0.50000 " fill="none" stroke="#ffffff" stroke-width="0.6" />
<!-- E1D1D1E1D1 D1E1D1D1D1 -->
<!-- 0 -->
<circle cx="0.00000" cy="0.00000" r="0.6" stroke="#ffffff" stroke-width="0" fill="#ffffff" />
<!-- 0 -->
<circle cx="-0.50000" cy="1.86603" r="0.6" stroke="#ffffff" stroke-width="0" fill="#ffffff" />
<!-- 0 -->
<circle cx="-0.50000" cy="-1.86603" r="0.6" stroke="#ffffff" stroke-width="0" fill="#ffffff" />
<!-- 0 -->
<circle cx="2.73205" cy="0.00000" r="0.6" stroke="#ffffff" stroke-width="0" fill="#ffffff" />
<!-- 0 -->
<circle cx="-3.73205" cy="0.00000" r="0.6" stroke="#ffffff" stroke-width="0" fill="#ffffff" />
<!-- E1D1D1E1D1 D1E1D1D1D1 -->
<polygon points="-1.86603,-0.50000 1.36603,-1.36603 1.36603,1.36603 -1.86603,0.50000 " fill="none" stroke="rgb(25,25,25)" stroke-width="0.24" />
<!-- E1D1D1E1D1 D1E1D1D1D1 -->
<!-- 0 -->
<circle cx="0.00000" cy="0.00000" r="0.24" stroke="rgb(25,25,25)" stroke-width="0" fill="rgb(25,25,25)" />
<!-- 0 -->
<circle cx="-0.50000" cy="1.86603" r="0.24" stroke="rgb(25,25,25)" stroke-width="0" fill="rgb(25,25,25)" />
<!-- 0 -->
<circle cx="-0.50000" cy="-1.86603" r="0.24" stroke="rgb(25,25,25)" stroke-width="0" fill="rgb(25,25,25)" />
<!-- 0 -->
<circle cx="2.73205" cy="0.00000" r="0.24" stroke="rgb(25,25,25)" stroke-width="0" fill="rgb(25,25,25)" />
<!-- 0 -->
<circle cx="-3.73205" cy="0.00000" r="0.24" stroke="rgb(25,25,25)" stroke-width="0" fill="rgb(25,25,25)" />
</svg>
<!--D1E1D1D1D1 D1D1E1D1D1-->
<polygon points="-0.66506,-0.25000 -0.20096,-0.25000 0.03109,-0.11603 -0.43301,-0.11603 " style="fill:none;stroke:rgb(25,25,25);stroke-width:0.001" fill-opacity="0.5" />
<svg x="-0.34699" y="-0.21301" width="0.06000" height="0.06000" viewBox="-3.89488 -3.89488 7.78976 7.78976">

<!-- D1E1D1D1D1 D1D1E1D1D1 -->
<polygon points="-1.86603,0.50000 0.50000,-1.86603 1.86603,0.50000 -1.36603,1.36603 " fill="none" stroke="#ffffff" stroke-width="0.6" />
<!-- D1E1D1D1D1 D1D1E1D1D1 -->
<!-- 0 -->
<circle cx="0.00000" cy="0.00000" r="0.6" stroke="#ffffff" stroke-width="0" fill="#ffffff" />
<!-- 0 -->
<circle cx="0.50000" cy="1.86603" r="0.6" stroke="#ffffff" stroke-width="0" fill="#ffffff" />
<!-- 0 -->
<circle cx="-1.36603" cy="-1.36603" r="0.6" stroke="#ffffff" stroke-width="0" fill="#ffffff" />
<!-- 0 -->
<circle cx="2.36603" cy="-1.36603" r="0.6" stroke="#ffffff" stroke-width="0" fill="#ffffff" />
<!-- 0 -->
<circle cx="-3.23205" cy="1.86603" r="0.6" stroke="#ffffff" stroke-width="0" fill="#ffffff" />
<!-- D1E1D1D1D1 D1D1E1D1D1 -->
<polygon points="-1.86603,0.50000 0.50000,-1.86603 1.86603,0.50000 -1.36603,1.36603 " fill="none" stroke="rgb(25,25,25)" stroke-width="0.24" />
<!-- D1E1D1D1D1 D1D1E1D1D1 -->
<!-- 0 -->
<circle cx="0.00000" cy="0.00000" r="0.24" stroke="rgb(25,25,25)" stroke-width="0" fill="rgb(25,25,25)" />
<!-- 0 -->
<circle cx="0.50000" cy="1.86603" r="0.24" stroke="rgb(25,25,25)" stroke-width="0" fill="rgb(25,25,25)" />
<!-- 0 -->
<circle cx="-1.36603" cy="-1.36603" r="0.24" stroke="rgb(25,25,25)" stroke-width="0" fill="rgb(25,25,25)" />
<!-- 0 -->
<circle cx="2.36603" cy="-1.36603" r="0.24" stroke="rgb(25,25,25)" stroke-width="0" fill="rgb(25,25,25)" />
<!-- 0 -->
<circle cx="-3.23205" cy="1.86603" r="0.24" stroke="rgb(25,25,25)" stroke-width="0" fill="rgb(25,25,25)" />
</svg>
<!--D1D1E1D1D1 D1E1D1D1D1-->
<polygon points="-0.70096,-0.11603 -0.43301,-0.11603 -0.03109,0.11603 -0.29904,0.11603 " style="fill:none;stroke:rgb(25,25,25);stroke-width:0.001" fill-opacity="0.5" />
<svg x="-0.39603" y="-0.03000" width="0.06000" height="0.06000" viewBox="-3.89488 -3.89488 7.78976 7.78976">

<!-- D1D1E1D1D1 D1E1D1D1D1 -->
<polygon points="-1.36603,1.36603 -1.36603,-1.36603 1.86603,-0.50000 1.86603,0.50000 " fill="none" stroke="#ffffff" stroke-width="0.6" />
<!-- D1D1E1D1D1 D1E1D1D1D1 -->
<!-- 0 -->
<circle cx="0.00000" cy="0.00000" r="0.6" stroke="#ffffff" stroke-width="0" fill="#ffffff" />
<!-- 0 -->
<circle cx="0.50000" cy="1.86603" r="0.6" stroke="#ffffff" stroke-width="0" fill="#ffffff" />
<!-- 0 -->
<circle cx="0.50000" cy="-1.86603" r="0.6" stroke="#ffffff" stroke-width="0" fill="#ffffff" />
<!-- 0 -->
<circle cx="-2.73205" cy="0.00000" r="0.6" stroke="#ffffff" stroke-width="0" fill="#ffffff" />
<!-- 0 -->
<circle cx="3.73205" cy="0.00000" r="0.6" stroke="#ffffff" stroke-width="0" fill="#ffffff" />
<!-- D1D1E1D1D1 D1E1D1D1D1 -->
<polygon points="-1.36603,1.36603 -1.36603,-1.36603 1.86603,-0.50000 1.86603,0.50000 " fill="none" stroke="rgb(25,25,25)" stroke-width="0.24" />
<!-- D1D1E1D1D1 D1E1D1D1D1 -->
<!-- 0 -->
<circle cx="0.00000" cy="0.00000" r="0.24" stroke="rgb(25,25,25)" stroke-width="0" fill="rgb(25,25,25)" />
<!-- 0 -->
<circle cx="0.50000" cy="1.86603" r="0.24" stroke="rgb(25,25,25)" stroke-width="0" fill="rgb(25,25,25)" />
<!-- 0 -->
<circle cx="0.50000" cy="-1.86603" r="0.24" stroke="rgb(25,25,25)" stroke-width="0" fill="rgb(25,25,25)" />
<!-- 0 -->
<circle cx="-2.73205" cy="0.00000" r="0.24" stroke="rgb(25,25,25)" stroke-width="0" fill="rgb(25,25,25)" />
<!-- 0 -->
<circle cx="3.73205" cy="0.00000" r="0.24" stroke="rgb(25,25,25)" stroke-width="0" fill="rgb(25,25,25)" />
</svg>
<!--D1E1D1D1D1 E1D1D1E1D1-->
<polygon points="-0.03109,0.11603 0.43301,0.11603 0.66506,0.25000 0.20096,0.25000 " style="fill:none;stroke:rgb(25,25,25);stroke-width:0.001" fill-opacity="0.5" />
<svg x="0.28699" y="0.15301" width="0.06000" height="0.06000" viewBox="-3.89488 -3.89488 7.78976 7.78976">

<!-- D1E1D1D1D1 E1D1D1E1D1 -->
<polygon points="1.86603,-0.50000 -0.50000,1.86603 -1.86603,-0.50000 1.36603,-1.36603 " fill="none" stroke="#ffffff" stroke-width="0.6" />
<!-- D1E1D1D1D1 E1D1D1E1D1 -->
<!-- 0 -->
<circle cx="0.00000" cy="0.00000" r="0.6" stroke="#ffffff" stroke-width="0" fill="#ffffff" />
<!-- 0 -->
<circle cx="1.36603" cy="1.36603" r="0.6" stroke="#ffffff" stroke-width="0" fill="#ffffff" />
<!-- 0 -->
<circle cx="-0.50000" cy="-1.86603" r="0.6" stroke="#ffffff" stroke-width="0" fill="#ffffff" />
<!-- 0 -->
<circle cx="-2.36603" cy="1.36603" r="0.6" stroke="#ffffff" stroke-width="0" fill="#ffffff" />
<!-- 0 -->
<circle cx="3.23205" cy="-1.86603" r="0.6" stroke="#ffffff" stroke-width="0" fill="#ffffff" />
<!-- D1E1D1D1D1 E1D1D1E1D1 -->
<polygon points="1.86603,-0.50000 -0.50000,1.86603 -1.86603,-0.50000 1.36603,-1.36603 " fill="none" stroke="rgb(25,25,25)" stroke-width="0.24" />
<!-- D1E1D1D1D1 E1D1D1E1D1 -->
<!-- 0 -->
<circle cx="0.00000" cy="0.00000" r="0.24" stroke="rgb(25,25,25)" stroke-width="0" fill="rgb(25,25,25)" />
<!-- 0 -->
<circle cx="1.36603" cy="1.36603" r="0.24" stroke="rgb(25,25,25)" stroke-width="0" fill="rgb(25,25,25)" />
<!-- 0 -->
<circle cx="-0.50000" cy="-1.86603" r="0.24" stroke="rgb(25,25,25)" stroke-width="0" fill="rgb(25,25,25)" />
<!-- 0 -->
<circle cx="-2.36603" cy="1.36603" r="0.24" stroke="rgb(25,25,25)" stroke-width="0" fill="rgb(25,25,25)" />
<!-- 0 -->
<circle cx="3.23205" cy="-1.86603" r="0.24" stroke="rgb(25,25,25)" stroke-width="0" fill="rgb(25,25,25)" />
</svg>
<!--D1E1D1D1D1 D1E1D1D1D1-->
<polygon points="-0.43301,-0.11603 0.03109,-0.11603 0.43301,0.11603 -0.03109,0.11603 " style="fill:none;stroke:rgb(25,25,25);stroke-width:0.001" fill-opacity="0.5" />
<svg x="-0.03000" y="-0.03000" width="0.06000" height="0.06000" viewBox="-3.89488 -3.89488 7.78976 7.78976">

<!-- D1E1D1D1D1 D1E1D1D1D1 -->
<polygon points="-1.86603,-0.50000 1.36603,-1.36603 1.86603,-0.50000 1.86603,0.50000 -1.36603,1.36603 -1.86603,0.50000 " fill="none" stroke="#ffffff" stroke-width="0.6" />
<!-- D1E1D1D1D1 D1E1D1D1D1 -->
<!-- 0 -->
<circle cx="0.00000" cy="0.00000" r="0.6" stroke="#ffffff" stroke-width="0" fill="#ffffff" />
<!-- 0 -->
<circle cx="0.50000" cy="1.86603" r="0.6" stroke="#ffffff" stroke-width="0" fill="#ffffff" />
<!-- 0 -->
<circle cx="-0.50000" cy="-1.86603" r="0.6" stroke="#ffffff" stroke-width="0" fill="#ffffff" />
<!-- 0 -->
<circle cx="3.73205" cy="0.00000" r="0.6" stroke="#ffffff" stroke-width="0" fill="#ffffff" />
<!-- 0 -->
<circle cx="-3.23205" cy="1.86603" r="0.6" stroke="#ffffff" stroke-width="0" fill="#ffffff" />
<!-- 0 -->
<circle cx="3.23205" cy="-1.86603" r="0.6" stroke="#ffffff" stroke-width="0" fill="#ffffff" />
<!-- 0 -->
<circle cx="-3.73205" cy="0.00000" r="0.6" stroke="#ffffff" stroke-width="0" fill="#ffffff" />
<!-- D1E1D1D1D1 D1E1D1D1D1 -->
<polygon points="-1.86603,-0.50000 1.36603,-1.36603 1.86603,-0.50000 1.86603,0.50000 -1.36603,1.36603 -1.86603,0.50000 " fill="none" stroke="rgb(25,25,25)" stroke-width="0.24" />
<!-- D1E1D1D1D1 D1E1D1D1D1 -->
<!-- 0 -->
<circle cx="0.00000" cy="0.00000" r="0.24" stroke="rgb(25,25,25)" stroke-width="0" fill="rgb(25,25,25)" />
<!-- 0 -->
<circle cx="0.50000" cy="1.86603" r="0.24" stroke="rgb(25,25,25)" stroke-width="0" fill="rgb(25,25,25)" />
<!-- 0 -->
<circle cx="-0.50000" cy="-1.86603" r="0.24" stroke="rgb(25,25,25)" stroke-width="0" fill="rgb(25,25,25)" />
<!-- 0 -->
<circle cx="3.73205" cy="0.00000" r="0.24" stroke="rgb(25,25,25)" stroke-width="0" fill="rgb(25,25,25)" />
<!-- 0 -->
<circle cx="-3.23205" cy="1.86603" r="0.24" stroke="rgb(25,25,25)" stroke-width="0" fill="rgb(25,25,25)" />
<!-- 0 -->
<circle cx="3.23205" cy="-1.86603" r="0.24" stroke="rgb(25,25,25)" stroke-width="0" fill="rgb(25,25,25)" />
<!-- 0 -->
<circle cx="-3.73205" cy="0.00000" r="0.24" stroke="rgb(25,25,25)" stroke-width="0" fill="rgb(25,25,25)" />
</svg>
</g>
</svg>
