<?xml version="1.0" standalone="no"?>

<svg width="2928.2" height="878.461" viewBox="-0.732051 -0.219615 1.4641 0.43923">

<rect x="-50%" y="-50%" width="100%" height="100%" fill="white" />
<g transform="scale(1,-1)">
<polygon points="-0.68301,-0.18301 0.04904,-0.18301 0.68301,0.18301 -0.04904,0.18301 " style="fill:none;stroke:rgb(25,25,25);stroke-width:0.000732051" fill-opacity="0.5" />
<!--D1C1D1D1C1D1 D1C1D1D1C1D1-->
<polygon points="-0.18301,-0.04904 0.01314,-0.04904 0.18301,0.04904 -0.01314,0.04904 " style="fill:none;stroke:rgb(25,25,25);stroke-width:0.000732051" fill-opacity="0.5" />
<svg x="-0.02196" y="-0.02196" width="0.04392" height="0.04392" viewBox="-6.74613 -6.74613 13.49227 13.49227">

<!-- D1C1D1D1C1D1 D1C1D1D1C1D1 -->
<polygon points="1.86603,-0.50000 1.86603,0.50000 -1.36603,1.36603 -1.86603,0.50000 -1.86603,-0.50000 1.36603,-1.36603 " fill="none" stroke="#ffffff" stroke-width="0.819615" />
<!-- D1C1D1D1C1D1 D1C1D1D1C1D1 -->
<!-- 0 -->
<circle cx="0.00000" cy="0.00000" r="0.819615" stroke="#ffffff" stroke-width="0" fill="#ffffff" />
<!-- 0 -->
<circle cx="0.50000" cy="1.86603" r="0.819615" stroke="#ffffff" stroke-width="0" fill="#ffffff" />
<!-- 0 -->
<circle cx="-0.50000" cy="-1.86603" r="0.819615" stroke="#ffffff" stroke-width="0" fill="#ffffff" />
<!-- 0 -->
<circle cx="3.73205" cy="0.00000" r="0.819615" stroke="#ffffff" stroke-width="0" fill="#ffffff" />
<!-- 0 -->
<circle cx="-3.23205" cy="1.86603" r="0.819615" stroke="#ffffff" stroke-width="0" fill="#ffffff" />
<!-- 0 -->
<circle cx="3.23205" cy="-1.86603" r="0.819615" stroke="#ffffff" stroke-width="0" fill="#ffffff" />
<!-- 0 -->
<circle cx="-3.73205" cy="0.00000" r="0.819615" stroke="#ffffff" stroke-width="0" fill="#ffffff" />
<!-- D1C1D1D1C1D1 D1C1D1D1C1D1 -->
<polygon points="1.86603,-0.50000 1.86603,0.50000 -1.36603,1.36603 -1.86603,0.50000 -1.86603,-0.50000 1.36603,-1.36603 " fill="none" stroke="rgb(25,25,25)" stroke-width="0.327846" />
<!-- D1C1D1D1C1D1 D1C1D1D1C1D1 -->
<!-- 0 -->
<circle cx="0.00000" cy="0.00000" r="0.327846" stroke="rgb(25,25,25)" stroke-width="0" fill="rgb(25,25,25)" />
<!-- 0 -->
<circle cx="0.50000" cy="1.86603" r="0.327846" stroke="rgb(25,25,25)" stroke-width="0" fill="rgb(25,25,25)" />
<!-- 0 -->
<circle cx="-0.50000" cy="-1.86603" r="0.327846" stroke="rgb(25,25,25)" stroke-width="0" fill="rgb(25,25,25)" />
<!-- 0 -->
<circle cx="3.73205" cy="0.00000" r="0.327846" stroke="rgb(25,25,25)" stroke-width="0" fill="rgb(25,25,25)" />
<!-- 0 -->
<circle cx="-3.23205" cy="1.86603" r="0.327846" stroke="rgb(25,25,25)" stroke-width="0" fill="rgb(25,25,25)" />
<!-- 0 -->
<circle cx="3.23205" cy="-1.86603" r="0.327846" stroke="rgb(25,25,25)" stroke-width="0" fill="rgb(25,25,25)" />
<!-- 0 -->
<circle cx="-3.73205" cy="0.00000" r="0.327846" stroke="rgb(25,25,25)" stroke-width="0" fill="rgb(25,25,25)" />
</svg>
<!--D1D1C1D1C1D1 D1D1C1D1C1D1-->
<polygon points="-0.68301,-0.18301 -0.41506,-0.18301 -0.18301,-0.04904 -0.45096,-0.04904 " style="fill:none;stroke:rgb(25,25,25);stroke-width:0.000732051" fill-opacity="0.5" />
<svg x="-0.45497" y="-0.13799" width="0.04392" height="0.04392" viewBox="-6.74613 -6.74613 13.49227 13.49227">

<!-- D1D1C1D1C1D1 D1D1C1D1C1D1 -->
<polygon points="-2.73205,-1.00000 1.86603,-2.23205 1.86603,0.50000 -1.36603,1.36603 " fill="none" stroke="#ffffff" stroke-width="0.819615" />
<!-- D1D1C1D1C1D1 D1D1C1D1C1D1 -->
<!-- 0 -->
<circle cx="0.00000" cy="0.00000" r="0.819615" stroke="#ffffff" stroke-width="0" fill="#ffffff" />
<!-- 0 -->
<circle cx="0.50000" cy="1.86603" r="0.819615" stroke="#ffffff" stroke-width="0" fill="#ffffff" />
<!-- 0 -->
<circle cx="-0.86603" cy="-3.23205" r="0.819615" stroke="#ffffff" stroke-width="0" fill="#ffffff" />
<!-- 0 -->
<circle cx="3.73205" cy="0.00000" r="0.819615" stroke="#ffffff" stroke-width="0" fill="#ffffff" />
<!-- 0 -->
<circle cx="-3.23205" cy="1.86603" r="0.819615" stroke="#ffffff" stroke-width="0" fill="#ffffff" />
<!-- D1D1C1D1C1D1 D1D1C1D1C1D1 -->
<polygon points="-2.73205,-1.00000 1.86603,-2.23205 1.86603,0.50000 -1.36603,1.36603 " fill="none" stroke="rgb(25,25,25)" stroke-width="0.327846" />
<!-- D1D1C1D1C1D1 D1D1C1D1C1D1 -->
<!-- 0 -->
<circle cx="0.00000" cy="0.00000" r="0.327846" stroke="rgb(25,25,25)" stroke-width="0" fill="rgb(25,25,25)" />
<!-- 0 -->
<circle cx="0.50000" cy="1.86603" r="0.327846" stroke="rgb(25,25,25)" stroke-width="0" fill="rgb(25,25,25)" />
<!-- 0 -->
<circle cx="-0.86603" cy="-3.23205" r="0.327846" stroke="rgb(25,25,25)" stroke-width="0" fill="rgb(25,25,25)" />
<!-- 0 -->
<circle cx="3.73205" cy="0.00000" r="0.327846" stroke="rgb(25,25,25)" stroke-width="0" fill="rgb(25,25,25)" />
<!-- 0 -->
<circle cx="-3.23205" cy="1.86603" r="0.327846" stroke="rgb(25,25,25)" stroke-width="0" fill="rgb(25,25,25)" />
</svg>
<!--D1C1D1C1D1D1 D1C1D1C1D1D1-->
<polygon points="0.18301,0.04904 0.45096,0.04904 0.68301,0.18301 0.41506,0.18301 " style="fill:none;stroke:rgb(25,25,25);stroke-width:0.000732051" fill-opacity="0.5" />
<svg x="0.41105" y="0.09406" width="0.04392" height="0.04392" viewBox="-6.74613 -6.74613 13.49227 13.49227">

<!-- D1C1D1C1D1D1 D1C1D1C1D1D1 -->
<polygon points="2.73205,1.00000 -1.86603,2.23205 -1.86603,-0.50000 1.36603,-1.36603 " fill="none" stroke="#ffffff" stroke-width="0.819615" />
<!-- D1C1D1C1D1D1 D1C1D1C1D1D1 -->
<!-- 0 -->
<circle cx="0.00000" cy="0.00000" r="0.819615" stroke="#ffffff" stroke-width="0" fill="#ffffff" />
<!-- 0 -->
<circle cx="-0.50000" cy="-1.86603" r="0.819615" stroke="#ffffff" stroke-width="0" fill="#ffffff" />
<!-- 0 -->
<circle cx="0.86603" cy="3.23205" r="0.819615" stroke="#ffffff" stroke-width="0" fill="#ffffff" />
<!-- 0 -->
<circle cx="3.23205" cy="-1.86603" r="0.819615" stroke="#ffffff" stroke-width="0" fill="#ffffff" />
<!-- 0 -->
<circle cx="-3.73205" cy="0.00000" r="0.819615" stroke="#ffffff" stroke-width="0" fill="#ffffff" />
<!-- D1C1D1C1D1D1 D1C1D1C1D1D1 -->
<polygon points="2.73205,1.00000 -1.86603,2.23205 -1.86603,-0.50000 1.36603,-1.36603 " fill="none" stroke="rgb(25,25,25)" stroke-width="0.327846" />
<!-- D1C1D1C1D1D1 D1C1D1C1D1D1 -->
<!-- 0 -->
<circle cx="0.00000" cy="0.00000" r="0.327846" stroke="rgb(25,25,25)" stroke-width="0" fill="rgb(25,25,25)" />
<!-- 0 -->
<circle cx="-0.50000" cy="-1.86603" r="0.327846" stroke="rgb(25,25,25)" stroke-width="0" fill="rgb(25,25,25)" />
<!-- 0 -->
<circle cx="0.86603" cy="3.23205" r="0.327846" stroke="rgb(25,25,25)" stroke-width="0" fill="rgb(25,25,25)" />
<!-- 0 -->
<circle cx="3.23205" cy="-1.86603" r="0.327846" stroke="rgb(25,25,25)" stroke-width="0" fill="rgb(25,25,25)" />
<!-- 0 -->
<circle cx="-3.73205" cy="0.00000" r="0.327846" stroke="rgb(25,25,25)" stroke-width="0" fill="rgb(25,25,25)" />
</svg>
<!--D1C1D1D1C1D1 D1D1C1D1C1D1-->
<polygon points="-0.41506,-0.18301 -0.21891,-0.18301 0.01314,-0.04904 -0.18301,-0.04904 " style="fill:none;stroke:rgb(25,25,25);stroke-width:0.000732051" fill-opacity="0.5" />
<svg x="-0.22292" y="-0.13799" width="0.04392" height="0.04392" viewBox="-6.74613 -6.74613 13.49227 13.49227">

<!-- D1C1D1D1C1D1 D1D1C1D1C1D1 -->
<polygon points="-1.86603,-2.23205 -0.68301,-2.54904 1.86603,-1.07735 1.86603,0.50000 -1.36603,1.36603 -1.86603,0.50000 " fill="none" stroke="#ffffff" stroke-width="0.819615" />
<!-- D1C1D1D1C1D1 D1D1C1D1C1D1 -->
<!-- 0 -->
<circle cx="0.00000" cy="0.00000" r="0.819615" stroke="#ffffff" stroke-width="0" fill="#ffffff" />
<!-- 0 -->
<circle cx="0.50000" cy="1.86603" r="0.819615" stroke="#ffffff" stroke-width="0" fill="#ffffff" />
<!-- 0 -->
<circle cx="3.73205" cy="0.00000" r="0.819615" stroke="#ffffff" stroke-width="0" fill="#ffffff" />
<!-- 0 -->
<circle cx="-3.23205" cy="1.86603" r="0.819615" stroke="#ffffff" stroke-width="0" fill="#ffffff" />
<!-- 0 -->
<circle cx="-3.73205" cy="0.00000" r="0.819615" stroke="#ffffff" stroke-width="0" fill="#ffffff" />
<!-- 0 -->
<circle cx="1.86603" cy="-3.23205" r="0.819615" stroke="#ffffff" stroke-width="0" fill="#ffffff" />
<!-- 0 -->
<circle cx="-1.36603" cy="-5.09808" r="0.819615" stroke="#ffffff" stroke-width="0" fill="#ffffff" />
<!-- D1C1D1D1C1D1 D1D1C1D1C1D1 -->
<polygon points="-1.86603,-2.23205 -0.68301,-2.54904 1.86603,-1.07735 1.86603,0.50000 -1.36603,1.36603 -1.86603,0.50000 " fill="none" stroke="rgb(25,25,25)" stroke-width="0.327846" />
<!-- D1C1D1D1C1D1 D1D1C1D1C1D1 -->
<!-- 0 -->
<circle cx="0.00000" cy="0.00000" r="0.327846" stroke="rgb(25,25,25)" stroke-width="0" fill="rgb(25,25,25)" />
<!-- 0 -->
<circle cx="0.50000" cy="1.86603" r="0.327846" stroke="rgb(25,25,25)" stroke-width="0" fill="rgb(25,25,25)" />
<!-- 0 -->
<circle cx="3.73205" cy="0.00000" r="0.327846" stroke="rgb(25,25,25)" stroke-width="0" fill="rgb(25,25,25)" />
<!-- 0 -->
<circle cx="-3.23205" cy="1.86603" r="0.327846" stroke="rgb(25,25,25)" stroke-width="0" fill="rgb(25,25,25)" />
<!-- 0 -->
<circle cx="-3.73205" cy="0.00000" r="0.327846" stroke="rgb(25,25,25)" stroke-width="0" fill="rgb(25,25,25)" />
<!-- 0 -->
<circle cx="1.86603" cy="-3.23205" r="0.327846" stroke="rgb(25,25,25)" stroke-width="0" fill="rgb(25,25,25)" />
<!-- 0 -->
<circle cx="-1.36603" cy="-5.09808" r="0.327846" stroke="rgb(25,25,25)" stroke-width="0" fill="rgb(25,25,25)" />
</svg>
<!--D1C1D1C1D1D1 D1C1D1D1C1D1-->
<polygon points="0.01314,-0.04904 0.28109,-0.04904 0.45096,0.04904 0.18301,0.04904 " style="fill:none;stroke:rgb(25,25,25);stroke-width:0.000732051" fill-opacity="0.5" />
<svg x="0.21009" y="-0.02196" width="0.04392" height="0.04392" viewBox="-6.74613 -6.74613 13.49227 13.49227">

<!-- D1C1D1C1D1D1 D1C1D1D1C1D1 -->
<polygon points="2.15470,0.00000 0.68301,2.54904 -0.50000,2.86603 -1.86603,0.50000 -1.86603,-0.50000 1.36603,-1.36603 " fill="none" stroke="#ffffff" stroke-width="0.819615" />
<!-- D1C1D1C1D1D1 D1C1D1D1C1D1 -->
<!-- 0 -->
<circle cx="0.00000" cy="0.00000" r="0.819615" stroke="#ffffff" stroke-width="0" fill="#ffffff" />
<!-- 0 -->
<circle cx="-0.50000" cy="-1.86603" r="0.819615" stroke="#ffffff" stroke-width="0" fill="#ffffff" />
<!-- 0 -->
<circle cx="3.23205" cy="1.86603" r="0.819615" stroke="#ffffff" stroke-width="0" fill="#ffffff" />
<!-- 0 -->
<circle cx="-3.23205" cy="1.86603" r="0.819615" stroke="#ffffff" stroke-width="0" fill="#ffffff" />
<!-- 0 -->
<circle cx="3.23205" cy="-1.86603" r="0.819615" stroke="#ffffff" stroke-width="0" fill="#ffffff" />
<!-- 0 -->
<circle cx="-3.73205" cy="0.00000" r="0.819615" stroke="#ffffff" stroke-width="0" fill="#ffffff" />
<!-- 0 -->
<circle cx="1.36603" cy="5.09808" r="0.819615" stroke="#ffffff" stroke-width="0" fill="#ffffff" />
<!-- D1C1D1C1D1D1 D1C1D1D1C1D1 -->
<polygon points="2.15470,0.00000 0.68301,2.54904 -0.50000,2.86603 -1.86603,0.50000 -1.86603,-0.50000 1.36603,-1.36603 " fill="none" stroke="rgb(25,25,25)" stroke-width="0.327846" />
<!-- D1C1D1C1D1D1 D1C1D1D1C1D1 -->
<!-- 0 -->
<circle cx="0.00000" cy="0.00000" r="0.327846" stroke="rgb(25,25,25)" stroke-width="0" fill="rgb(25,25,25)" />
<!-- 0 -->
<circle cx="-0.50000" cy="-1.86603" r="0.327846" stroke="rgb(25,25,25)" stroke-width="0" fill="rgb(25,25,25)" />
<!-- 0 -->
<circle cx="3.23205" cy="1.86603" r="0.327846" stroke="rgb(25,25,25)" stroke-width="0" fill="rgb(25,25,25)" />
<!-- 0 -->
<circle cx="-3.23205" cy="1.86603" r="0.327846" stroke="rgb(25,25,25)" stroke-width="0" fill="rgb(25,25,25)" />
<!-- 0 -->
<circle cx="3.23205" cy="-1.86603" r="0.327846" stroke="rgb(25,25,25)" stroke-width="0" fill="rgb(25,25,25)" />
<!-- 0 -->
<circle cx="-3.73205" cy="0.00000" r="0.327846" stroke="rgb(25,25,25)" stroke-width="0" fill="rgb(25,25,25)" />
<!-- 0 -->
<circle cx="1.36603" cy="5.09808" r="0.327846" stroke="rgb(25,25,25)" stroke-width="0" fill="rgb(25,25,25)" />
</svg>
<!--D1C1D1D1C1D1 D1C1D1C1D1D1-->
<polygon points="-0.01314,0.04904 0.18301,0.04904 0.41506,0.18301 0.21891,0.18301 " style="fill:none;stroke:rgb(25,25,25);stroke-width:0.000732051" fill-opacity="0.5" />
<svg x="0.17900" y="0.09406" width="0.04392" height="0.04392" viewBox="-6.74613 -6.74613 13.49227 13.49227">

<!-- D1C1D1D1C1D1 D1C1D1C1D1D1 -->
<polygon points="1.86603,-0.50000 1.86603,2.23205 0.68301,2.54904 -1.86603,1.07735 -1.86603,-0.50000 1.36603,-1.36603 " fill="none" stroke="#ffffff" stroke-width="0.819615" />
<!-- D1C1D1D1C1D1 D1C1D1C1D1D1 -->
<!-- 0 -->
<circle cx="0.00000" cy="0.00000" r="0.819615" stroke="#ffffff" stroke-width="0" fill="#ffffff" />
<!-- 0 -->
<circle cx="-0.50000" cy="-1.86603" r="0.819615" stroke="#ffffff" stroke-width="0" fill="#ffffff" />
<!-- 0 -->
<circle cx="-1.86603" cy="3.23205" r="0.819615" stroke="#ffffff" stroke-width="0" fill="#ffffff" />
<!-- 0 -->
<circle cx="3.73205" cy="0.00000" r="0.819615" stroke="#ffffff" stroke-width="0" fill="#ffffff" />
<!-- 0 -->
<circle cx="3.23205" cy="-1.86603" r="0.819615" stroke="#ffffff" stroke-width="0" fill="#ffffff" />
<!-- 0 -->
<circle cx="-3.73205" cy="0.00000" r="0.819615" stroke="#ffffff" stroke-width="0" fill="#ffffff" />
<!-- 0 -->
<circle cx="1.36603" cy="5.09808" r="0.819615" stroke="#ffffff" stroke-width="0" fill="#ffffff" />
<!-- D1C1D1D1C1D1 D1C1D1C1D1D1 -->
<polygon points="1.86603,-0.50000 1.86603,2.23205 0.68301,2.54904 -1.86603,1.07735 -1.86603,-0.50000 1.36603,-1.36603 " fill="none" stroke="rgb(25,25,25)" stroke-width="0.327846" />
<!-- D1C1D1D1C1D1 D1C1D1C1D1D1 -->
<!-- 0 -->
<circle cx="0.00000" cy="0.00000" r="0.327846" stroke="rgb(25,25,25)" stroke-width="0" fill="rgb(25,25,25)" />
<!-- 0 -->
<circle cx="-0.50000" cy="-1.86603" r="0.327846" stroke="rgb(25,25,25)" stroke-width="0" fill="rgb(25,25,25)" />
<!-- 0 -->
<circle cx="-1.86603" cy="3.23205" r="0.327846" stroke="rgb(25,25,25)" stroke-width="0" fill="rgb(25,25,25)" />
<!-- 0 -->
<circle cx="3.73205" cy="0.00000" r="0.327846" stroke="rgb(25,25,25)" stroke-width="0" fill="rgb(25,25,25)" />
<!-- 0 -->
<circle cx="3.23205" cy="-1.86603" r="0.327846" stroke="rgb(25,25,25)" stroke-width="0" fill="rgb(25,25,25)" />
<!-- 0 -->
<circle cx="-3.73205" cy="0.00000" r="0.327846" stroke="rgb(25,25,25)" stroke-width="0" fill="rgb(25,25,25)" />
<!-- 0 -->
<circle cx="1.36603" cy="5.09808" r="0.327846" stroke="rgb(25,25,25)" stroke-width="0" fill="rgb(25,25,25)" />
</svg>
<!--D1D1C1D1C1D1 D1C1D1D1C1D1-->
<polygon points="-0.45096,-0.04904 -0.18301,-0.04904 -0.01314,0.04904 -0.28109,0.04904 " style="fill:none;stroke:rgb(25,25,25);stroke-width:0.000732051" fill-opacity="0.5" />
<svg x="-0.25401" y="-0.02196" width="0.04392" height="0.04392" viewBox="-6.74613 -6.74613 13.49227 13.49227">

<!-- D1D1C1D1C1D1 D1C1D1D1C1D1 -->
<polygon points="-0.68301,-2.54904 0.50000,-2.86603 1.86603,-0.50000 1.86603,0.50000 -1.36603,1.36603 -2.15470,0.00000 " fill="none" stroke="#ffffff" stroke-width="0.819615" />
<!-- D1D1C1D1C1D1 D1C1D1D1C1D1 -->
<!-- 0 -->
<circle cx="0.00000" cy="0.00000" r="0.819615" stroke="#ffffff" stroke-width="0" fill="#ffffff" />
<!-- 0 -->
<circle cx="0.50000" cy="1.86603" r="0.819615" stroke="#ffffff" stroke-width="0" fill="#ffffff" />
<!-- 0 -->
<circle cx="3.73205" cy="0.00000" r="0.819615" stroke="#ffffff" stroke-width="0" fill="#ffffff" />
<!-- 0 -->
<circle cx="-3.23205" cy="1.86603" r="0.819615" stroke="#ffffff" stroke-width="0" fill="#ffffff" />
<!-- 0 -->
<circle cx="3.23205" cy="-1.86603" r="0.819615" stroke="#ffffff" stroke-width="0" fill="#ffffff" />
<!-- 0 -->
<circle cx="-3.23205" cy="-1.86603" r="0.819615" stroke="#ffffff" stroke-width="0" fill="#ffffff" />
<!-- 0 -->
<circle cx="-1.36603" cy="-5.09808" r="0.819615" stroke="#ffffff" stroke-width="0" fill="#ffffff" />
<!-- D1D1C1D1C1D1 D1C1D1D1C1D1 -->
<polygon points="-0.68301,-2.54904 0.50000,-2.86603 1.86603,-0.50000 1.86603,0.50000 -1.36603,1.36603 -2.15470,0.00000 " fill="none" stroke="rgb(25,25,25)" stroke-width="0.327846" />
<!-- D1D1C1D1C1D1 D1C1D1D1C1D1 -->
<!-- 0 -->
<circle cx="0.00000" cy="0.00000" r="0.327846" stroke="rgb(25,25,25)" stroke-width="0" fill="rgb(25,25,25)" />
<!-- 0 -->
<circle cx="0.50000" cy="1.86603" r="0.327846" stroke="rgb(25,25,25)" stroke-width="0" fill="rgb(25,25,25)" />
<!-- 0 -->
<circle cx="3.73205" cy="0.00000" r="0.327846" stroke="rgb(25,25,25)" stroke-width="0" fill="rgb(25,25,25)" />
<!-- 0 -->
<circle cx="-3.23205" cy="1.86603" r="0.327846" stroke="rgb(25,25,25)" stroke-width="0" fill="rgb(25,25,25)" />
<!-- 0 -->
<circle cx="3.23205" cy="-1.86603" r="0.327846" stroke="rgb(25,25,25)" stroke-width="0" fill="rgb(25,25,25)" />
<!-- 0 -->
<circle cx="-3.23205" cy="-1.86603" r="0.327846" stroke="rgb(25,25,25)" stroke-width="0" fill="rgb(25,25,25)" />
<!-- 0 -->
<circle cx="-1.36603" cy="-5.09808" r="0.327846" stroke="rgb(25,25,25)" stroke-width="0" fill="rgb(25,25,25)" />
</svg>
<!--C1D1D1C1D1D1 C1D1C1D1D1C1-->
<polygon points="-0.14711,-0.18301 0.04904,-0.18301 0.21891,-0.08494 0.02276,-0.08494 " style="fill:none;stroke:rgb(25,25,25);stroke-width:0.000732051" fill-opacity="0.5" />
<svg x="0.01394" y="-0.15594" width="0.04392" height="0.04392" viewBox="-6.74613 -6.74613 13.49227 13.49227">

<!-- C1D1D1C1D1D1 C1D1C1D1D1C1 -->
<polygon points="0.00000,-2.15470 2.54904,-0.68301 1.07735,1.86603 -1.07735,1.86603 -1.86603,0.50000 -1.86603,-1.07735 " fill="none" stroke="#ffffff" stroke-width="0.819615" />
<!-- C1D1D1C1D1D1 C1D1C1D1D1C1 -->
<!-- 0 -->
<circle cx="0.00000" cy="0.00000" r="0.819615" stroke="#ffffff" stroke-width="0" fill="#ffffff" />
<!-- 0 -->
<circle cx="0.00000" cy="3.73205" r="0.819615" stroke="#ffffff" stroke-width="0" fill="#ffffff" />
<!-- 0 -->
<circle cx="3.23205" cy="1.86603" r="0.819615" stroke="#ffffff" stroke-width="0" fill="#ffffff" />
<!-- 0 -->
<circle cx="-3.23205" cy="1.86603" r="0.819615" stroke="#ffffff" stroke-width="0" fill="#ffffff" />
<!-- 0 -->
<circle cx="-3.73205" cy="0.00000" r="0.819615" stroke="#ffffff" stroke-width="0" fill="#ffffff" />
<!-- 0 -->
<circle cx="1.86603" cy="-3.23205" r="0.819615" stroke="#ffffff" stroke-width="0" fill="#ffffff" />
<!-- 0 -->
<circle cx="-1.86603" cy="-3.23205" r="0.819615" stroke="#ffffff" stroke-width="0" fill="#ffffff" />
<!-- C1D1D1C1D1D1 C1D1C1D1D1C1 -->
<polygon points="0.00000,-2.15470 2.54904,-0.68301 1.07735,1.86603 -1.07735,1.86603 -1.86603,0.50000 -1.86603,-1.07735 " fill="none" stroke="rgb(25,25,25)" stroke-width="0.327846" />
<!-- C1D1D1C1D1D1 C1D1C1D1D1C1 -->
<!-- 0 -->
<circle cx="0.00000" cy="0.00000" r="0.327846" stroke="rgb(25,25,25)" stroke-width="0" fill="rgb(25,25,25)" />
<!-- 0 -->
<circle cx="0.00000" cy="3.73205" r="0.327846" stroke="rgb(25,25,25)" stroke-width="0" fill="rgb(25,25,25)" />
<!-- 0 -->
<circle cx="3.23205" cy="1.86603" r="0.327846" stroke="rgb(25,25,25)" stroke-width="0" fill="rgb(25,25,25)" />
<!-- 0 -->
<circle cx="-3.23205" cy="1.86603" r="0.327846" stroke="rgb(25,25,25)" stroke-width="0" fill="rgb(25,25,25)" />
<!-- 0 -->
<circle cx="-3.73205" cy="0.00000" r="0.327846" stroke="rgb(25,25,25)" stroke-width="0" fill="rgb(25,25,25)" />
<!-- 0 -->
<circle cx="1.86603" cy="-3.23205" r="0.327846" stroke="rgb(25,25,25)" stroke-width="0" fill="rgb(25,25,25)" />
<!-- 0 -->
<circle cx="-1.86603" cy="-3.23205" r="0.327846" stroke="rgb(25,25,25)" stroke-width="0" fill="rgb(25,25,25)" />
</svg>
<!--C1D1C1D1D1C1 C1D1D1C1D1D1-->
<polygon points="-0.21891,0.08494 -0.02276,0.08494 0.14711,0.18301 -0.04904,0.18301 " style="fill:none;stroke:rgb(25,25,25);stroke-width:0.000732051" fill-opacity="0.5" />
<svg x="-0.05786" y="0.11201" width="0.04392" height="0.04392" viewBox="-6.74613 -6.74613 13.49227 13.49227">

<!-- C1D1C1D1D1C1 C1D1D1C1D1D1 -->
<polygon points="-1.07735,-1.86603 1.07735,-1.86603 1.86603,-0.50000 1.86603,1.07735 0.00000,2.15470 -2.54904,0.68301 " fill="none" stroke="#ffffff" stroke-width="0.819615" />
<!-- C1D1C1D1D1C1 C1D1D1C1D1D1 -->
<!-- 0 -->
<circle cx="0.00000" cy="0.00000" r="0.819615" stroke="#ffffff" stroke-width="0" fill="#ffffff" />
<!-- 0 -->
<circle cx="1.86603" cy="3.23205" r="0.819615" stroke="#ffffff" stroke-width="0" fill="#ffffff" />
<!-- 0 -->
<circle cx="-1.86603" cy="3.23205" r="0.819615" stroke="#ffffff" stroke-width="0" fill="#ffffff" />
<!-- 0 -->
<circle cx="3.73205" cy="0.00000" r="0.819615" stroke="#ffffff" stroke-width="0" fill="#ffffff" />
<!-- 0 -->
<circle cx="3.23205" cy="-1.86603" r="0.819615" stroke="#ffffff" stroke-width="0" fill="#ffffff" />
<!-- 0 -->
<circle cx="-3.23205" cy="-1.86603" r="0.819615" stroke="#ffffff" stroke-width="0" fill="#ffffff" />
<!-- 0 -->
<circle cx="0.00000" cy="-3.73205" r="0.819615" stroke="#ffffff" stroke-width="0" fill="#ffffff" />
<!-- C1D1C1D1D1C1 C1D1D1C1D1D1 -->
<polygon points="-1.07735,-1.86603 1.07735,-1.86603 1.86603,-0.50000 1.86603,1.07735 0.00000,2.15470 -2.54904,0.68301 " fill="none" stroke="rgb(25,25,25)" stroke-width="0.327846" />
<!-- C1D1C1D1D1C1 C1D1D1C1D1D1 -->
<!-- 0 -->
<circle cx="0.00000" cy="0.00000" r="0.327846" stroke="rgb(25,25,25)" stroke-width="0" fill="rgb(25,25,25)" />
<!-- 0 -->
<circle cx="1.86603" cy="3.23205" r="0.327846" stroke="rgb(25,25,25)" stroke-width="0" fill="rgb(25,25,25)" />
<!-- 0 -->
<circle cx="-1.86603" cy="3.23205" r="0.327846" stroke="rgb(25,25,25)" stroke-width="0" fill="rgb(25,25,25)" />
<!-- 0 -->
<circle cx="3.73205" cy="0.00000" r="0.327846" stroke="rgb(25,25,25)" stroke-width="0" fill="rgb(25,25,25)" />
<!-- 0 -->
<circle cx="3.23205" cy="-1.86603" r="0.327846" stroke="rgb(25,25,25)" stroke-width="0" fill="rgb(25,25,25)" />
<!-- 0 -->
<circle cx="-3.23205" cy="-1.86603" r="0.327846" stroke="rgb(25,25,25)" stroke-width="0" fill="rgb(25,25,25)" />
<!-- 0 -->
<circle cx="0.00000" cy="-3.73205" r="0.327846" stroke="rgb(25,25,25)" stroke-width="0" fill="rgb(25,25,25)" />
</svg>
<!--D1C1D1C1D1D1 C1D1C1D1D1C1-->
<polygon points="-0.21891,-0.18301 -0.14711,-0.18301 0.02276,-0.08494 -0.04904,-0.08494 " style="fill:none;stroke:rgb(25,25,25);stroke-width:0.000732051" fill-opacity="0.5" />
<svg x="-0.12004" y="-0.15594" width="0.04392" height="0.04392" viewBox="-6.74613 -6.74613 13.49227 13.49227">

<!-- D1C1D1C1D1D1 C1D1C1D1D1C1 -->
<polygon points="-1.86603,-2.23205 -0.68301,-2.54904 2.54904,-0.68301 1.07735,1.86603 -1.07735,1.86603 -1.86603,0.50000 " fill="none" stroke="#ffffff" stroke-width="0.819615" />
<!-- D1C1D1C1D1D1 C1D1C1D1D1C1 -->
<!-- 0 -->
<circle cx="0.00000" cy="0.00000" r="0.819615" stroke="#ffffff" stroke-width="0" fill="#ffffff" />
<!-- 0 -->
<circle cx="0.00000" cy="3.73205" r="0.819615" stroke="#ffffff" stroke-width="0" fill="#ffffff" />
<!-- 0 -->
<circle cx="3.23205" cy="1.86603" r="0.819615" stroke="#ffffff" stroke-width="0" fill="#ffffff" />
<!-- 0 -->
<circle cx="-3.23205" cy="1.86603" r="0.819615" stroke="#ffffff" stroke-width="0" fill="#ffffff" />
<!-- 0 -->
<circle cx="-3.73205" cy="0.00000" r="0.819615" stroke="#ffffff" stroke-width="0" fill="#ffffff" />
<!-- 0 -->
<circle cx="1.86603" cy="-3.23205" r="0.819615" stroke="#ffffff" stroke-width="0" fill="#ffffff" />
<!-- 0 -->
<circle cx="-1.36603" cy="-5.09808" r="0.819615" stroke="#ffffff" stroke-width="0" fill="#ffffff" />
<!-- D1C1D1C1D1D1 C1D1C1D1D1C1 -->
<polygon points="-1.86603,-2.23205 -0.68301,-2.54904 2.54904,-0.68301 1.07735,1.86603 -1.07735,1.86603 -1.86603,0.50000 " fill="none" stroke="rgb(25,25,25)" stroke-width="0.327846" />
<!-- D1C1D1C1D1D1 C1D1C1D1D1C1 -->
<!-- 0 -->
<circle cx="0.00000" cy="0.00000" r="0.327846" stroke="rgb(25,25,25)" stroke-width="0" fill="rgb(25,25,25)" />
<!-- 0 -->
<circle cx="0.00000" cy="3.73205" r="0.327846" stroke="rgb(25,25,25)" stroke-width="0" fill="rgb(25,25,25)" />
<!-- 0 -->
<circle cx="3.23205" cy="1.86603" r="0.327846" stroke="rgb(25,25,25)" stroke-width="0" fill="rgb(25,25,25)" />
<!-- 0 -->
<circle cx="-3.23205" cy="1.86603" r="0.327846" stroke="rgb(25,25,25)" stroke-width="0" fill="rgb(25,25,25)" />
<!-- 0 -->
<circle cx="-3.73205" cy="0.00000" r="0.327846" stroke="rgb(25,25,25)" stroke-width="0" fill="rgb(25,25,25)" />
<!-- 0 -->
<circle cx="1.86603" cy="-3.23205" r="0.327846" stroke="rgb(25,25,25)" stroke-width="0" fill="rgb(25,25,25)" />
<!-- 0 -->
<circle cx="-1.36603" cy="-5.09808" r="0.327846" stroke="rgb(25,25,25)" stroke-width="0" fill="rgb(25,25,25)" />
</svg>
<!--C1D1D1C1D1D1 D1D1C1D1C1D1-->
<polygon points="0.02276,-0.08494 0.21891,-0.08494 0.28109,-0.04904 0.08494,-0.04904 " style="fill:none;stroke:rgb(25,25,25);stroke-width:0.000732051" fill-opacity="0.5" />
<svg x="0.12996" y="-0.08895" width="0.04392" height="0.04392" viewBox="-6.74613 -6.74613 13.49227 13.49227">

<!-- C1D1D1C1D1D1 D1D1C1D1C1D1 -->
<polygon points="0.00000,-2.15470 2.54904,-0.68301 0.68301,2.54904 -0.50000,2.86603 -1.86603,0.50000 -1.86603,-1.07735 " fill="none" stroke="#ffffff" stroke-width="0.819615" />
<!-- C1D1D1C1D1D1 D1D1C1D1C1D1 -->
<!-- 0 -->
<circle cx="0.00000" cy="0.00000" r="0.819615" stroke="#ffffff" stroke-width="0" fill="#ffffff" />
<!-- 0 -->
<circle cx="3.23205" cy="1.86603" r="0.819615" stroke="#ffffff" stroke-width="0" fill="#ffffff" />
<!-- 0 -->
<circle cx="-3.23205" cy="1.86603" r="0.819615" stroke="#ffffff" stroke-width="0" fill="#ffffff" />
<!-- 0 -->
<circle cx="-3.73205" cy="0.00000" r="0.819615" stroke="#ffffff" stroke-width="0" fill="#ffffff" />
<!-- 0 -->
<circle cx="1.86603" cy="-3.23205" r="0.819615" stroke="#ffffff" stroke-width="0" fill="#ffffff" />
<!-- 0 -->
<circle cx="-1.86603" cy="-3.23205" r="0.819615" stroke="#ffffff" stroke-width="0" fill="#ffffff" />
<!-- 0 -->
<circle cx="1.36603" cy="5.09808" r="0.819615" stroke="#ffffff" stroke-width="0" fill="#ffffff" />
<!-- C1D1D1C1D1D1 D1D1C1D1C1D1 -->
<polygon points="0.00000,-2.15470 2.54904,-0.68301 0.68301,2.54904 -0.50000,2.86603 -1.86603,0.50000 -1.86603,-1.07735 " fill="none" stroke="rgb(25,25,25)" stroke-width="0.327846" />
<!-- C1D1D1C1D1D1 D1D1C1D1C1D1 -->
<!-- 0 -->
<circle cx="0.00000" cy="0.00000" r="0.327846" stroke="rgb(25,25,25)" stroke-width="0" fill="rgb(25,25,25)" />
<!-- 0 -->
<circle cx="3.23205" cy="1.86603" r="0.327846" stroke="rgb(25,25,25)" stroke-width="0" fill="rgb(25,25,25)" />
<!-- 0 -->
<circle cx="-3.23205" cy="1.86603" r="0.327846" stroke="rgb(25,25,25)" stroke-width="0" fill="rgb(25,25,25)" />
<!-- 0 -->
<circle cx="-3.73205" cy="0.00000" r="0.327846" stroke="rgb(25,25,25)" stroke-width="0" fill="rgb(25,25,25)" />
<!-- 0 -->
<circle cx="1.86603" cy="-3.23205" r="0.327846" stroke="rgb(25,25,25)" stroke-width="0" fill="rgb(25,25,25)" />
<!-- 0 -->
<circle cx="-1.86603" cy="-3.23205" r="0.327846" stroke="rgb(25,25,25)" stroke-width="0" fill="rgb(25,25,25)" />
<!-- 0 -->
<circle cx="1.36603" cy="5.09808" r="0.327846" stroke="rgb(25,25,25)" stroke-width="0" fill="rgb(25,25,25)" />
</svg>
<!--D1D1C1D1C1D1 C1D1D1C1D1D1-->
<polygon points="-0.02276,0.08494 0.04904,0.08494 0.21891,0.18301 0.14711,0.18301 " style="fill:none;stroke:rgb(25,25,25);stroke-width:0.000732051" fill-opacity="0.5" />
<svg x="0.07611" y="0.11201" width="0.04392" height="0.04392" viewBox="-6.74613 -6.74613 13.49227 13.49227">

<!-- D1D1C1D1C1D1 C1D1D1C1D1D1 -->
<polygon points="-1.07735,-1.86603 1.07735,-1.86603 1.86603,-0.50000 1.86603,2.23205 0.68301,2.54904 -2.54904,0.68301 " fill="none" stroke="#ffffff" stroke-width="0.819615" />
<!-- D1D1C1D1C1D1 C1D1D1C1D1D1 -->
<!-- 0 -->
<circle cx="0.00000" cy="0.00000" r="0.819615" stroke="#ffffff" stroke-width="0" fill="#ffffff" />
<!-- 0 -->
<circle cx="-1.86603" cy="3.23205" r="0.819615" stroke="#ffffff" stroke-width="0" fill="#ffffff" />
<!-- 0 -->
<circle cx="3.73205" cy="0.00000" r="0.819615" stroke="#ffffff" stroke-width="0" fill="#ffffff" />
<!-- 0 -->
<circle cx="3.23205" cy="-1.86603" r="0.819615" stroke="#ffffff" stroke-width="0" fill="#ffffff" />
<!-- 0 -->
<circle cx="-3.23205" cy="-1.86603" r="0.819615" stroke="#ffffff" stroke-width="0" fill="#ffffff" />
<!-- 0 -->
<circle cx="0.00000" cy="-3.73205" r="0.819615" stroke="#ffffff" stroke-width="0" fill="#ffffff" />
<!-- 0 -->
<circle cx="1.36603" cy="5.09808" r="0.819615" stroke="#ffffff" stroke-width="0" fill="#ffffff" />
<!-- D1D1C1D1C1D1 C1D1D1C1D1D1 -->
<polygon points="-1.07735,-1.86603 1.07735,-1.86603 1.86603,-0.50000 1.86603,2.23205 0.68301,2.54904 -2.54904,0.68301 " fill="none" stroke="rgb(25,25,25)" stroke-width="0.327846" />
<!-- D1D1C1D1C1D1 C1D1D1C1D1D1 -->
<!-- 0 -->
<circle cx="0.00000" cy="0.00000" r="0.327846" stroke="rgb(25,25,25)" stroke-width="0" fill="rgb(25,25,25)" />
<!-- 0 -->
<circle cx="-1.86603" cy="3.23205" r="0.327846" stroke="rgb(25,25,25)" stroke-width="0" fill="rgb(25,25,25)" />
<!-- 0 -->
<circle cx="3.73205" cy="0.00000" r="0.327846" stroke="rgb(25,25,25)" stroke-width="0" fill="rgb(25,25,25)" />
<!-- 0 -->
<circle cx="3.23205" cy="-1.86603" r="0.327846" stroke="rgb(25,25,25)" stroke-width="0" fill="rgb(25,25,25)" />
<!-- 0 -->
<circle cx="-3.23205" cy="-1.86603" r="0.327846" stroke="rgb(25,25,25)" stroke-width="0" fill="rgb(25,25,25)" />
<!-- 0 -->
<circle cx="0.00000" cy="-3.73205" r="0.327846" stroke="rgb(25,25,25)" stroke-width="0" fill="rgb(25,25,25)" />
<!-- 0 -->
<circle cx="1.36603" cy="5.09808" r="0.327846" stroke="rgb(25,25,25)" stroke-width="0" fill="rgb(25,25,25)" />
</svg>
<!--C1D1C1D1D1C1 D1C1D1C1D1D1-->
<polygon points="-0.28109,0.04904 -0.08494,0.04904 -0.02276,0.08494 -0.21891,0.08494 " style="fill:none;stroke:rgb(25,25,25);stroke-width:0.000732051" fill-opacity="0.5" />
<svg x="-0.17389" y="0.04503" width="0.04392" height="0.04392" viewBox="-6.74613 -6.74613 13.49227 13.49227">

<!-- C1D1C1D1D1C1 D1C1D1C1D1D1 -->
<polygon points="-0.68301,-2.54904 0.50000,-2.86603 1.86603,-0.50000 1.86603,1.07735 0.00000,2.15470 -2.54904,0.68301 " fill="none" stroke="#ffffff" stroke-width="0.819615" />
<!-- C1D1C1D1D1C1 D1C1D1C1D1D1 -->
<!-- 0 -->
<circle cx="0.00000" cy="0.00000" r="0.819615" stroke="#ffffff" stroke-width="0" fill="#ffffff" />
<!-- 0 -->
<circle cx="1.86603" cy="3.23205" r="0.819615" stroke="#ffffff" stroke-width="0" fill="#ffffff" />
<!-- 0 -->
<circle cx="-1.86603" cy="3.23205" r="0.819615" stroke="#ffffff" stroke-width="0" fill="#ffffff" />
<!-- 0 -->
<circle cx="3.73205" cy="0.00000" r="0.819615" stroke="#ffffff" stroke-width="0" fill="#ffffff" />
<!-- 0 -->
<circle cx="3.23205" cy="-1.86603" r="0.819615" stroke="#ffffff" stroke-width="0" fill="#ffffff" />
<!-- 0 -->
<circle cx="-3.23205" cy="-1.86603" r="0.819615" stroke="#ffffff" stroke-width="0" fill="#ffffff" />
<!-- 0 -->
<circle cx="-1.36603" cy="-5.09808" r="0.819615" stroke="#ffffff" stroke-width="0" fill="#ffffff" />
<!-- C1D1C1D1D1C1 D1C1D1C1D1D1 -->
<polygon points="-0.68301,-2.54904 0.50000,-2.86603 1.86603,-0.50000 1.86603,1.07735 0.00000,2.15470 -2.54904,0.68301 " fill="none" stroke="rgb(25,25,25)" stroke-width="0.327846" />
<!-- C1D1C1D1D1C1 D1C1D1C1D1D1 -->
<!-- 0 -->
<circle cx="0.00000" cy="0.00000" r="0.327846" stroke="rgb(25,25,25)" stroke-width="0" fill="rgb(25,25,25)" />
<!-- 0 -->
<circle cx="1.86603" cy="3.23205" r="0.327846" stroke="rgb(25,25,25)" stroke-width="0" fill="rgb(25,25,25)" />
<!-- 0 -->
<circle cx="-1.86603" cy="3.23205" r="0.327846" stroke="rgb(25,25,25)" stroke-width="0" fill="rgb(25,25,25)" />
<!-- 0 -->
<circle cx="3.73205" cy="0.00000" r="0.327846" stroke="rgb(25,25,25)" stroke-width="0" fill="rgb(25,25,25)" />
<!-- 0 -->
<circle cx="3.23205" cy="-1.86603" r="0.327846" stroke="rgb(25,25,25)" stroke-width="0" fill="rgb(25,25,25)" />
<!-- 0 -->
<circle cx="-3.23205" cy="-1.86603" r="0.327846" stroke="rgb(25,25,25)" stroke-width="0" fill="rgb(25,25,25)" />
<!-- 0 -->
<circle cx="-1.36603" cy="-5.09808" r="0.327846" stroke="rgb(25,25,25)" stroke-width="0" fill="rgb(25,25,25)" />
</svg>
<!--D1C1D1C1D1D1 D1D1C1D1C1D1-->
<polygon points="-0.04904,-0.08494 0.02276,-0.08494 0.08494,-0.04904 0.01314,-0.04904 " style="fill:none;stroke:rgb(25,25,25);stroke-width:0.000732051" fill-opacity="0.5" />
<svg x="-0.00401" y="-0.08895" width="0.04392" height="0.04392" viewBox="-6.74613 -6.74613 13.49227 13.49227">

<!-- D1C1D1C1D1D1 D1D1C1D1C1D1 -->
<polygon points="-1.86603,-2.23205 -0.68301,-2.54904 2.54904,-0.68301 0.68301,2.54904 -0.50000,2.86603 -1.86603,0.50000 " fill="none" stroke="#ffffff" stroke-width="0.819615" />
<!-- D1C1D1C1D1D1 D1D1C1D1C1D1 -->
<!-- 0 -->
<circle cx="0.00000" cy="0.00000" r="0.819615" stroke="#ffffff" stroke-width="0" fill="#ffffff" />
<!-- 0 -->
<circle cx="3.23205" cy="1.86603" r="0.819615" stroke="#ffffff" stroke-width="0" fill="#ffffff" />
<!-- 0 -->
<circle cx="-3.23205" cy="1.86603" r="0.819615" stroke="#ffffff" stroke-width="0" fill="#ffffff" />
<!-- 0 -->
<circle cx="-3.73205" cy="0.00000" r="0.819615" stroke="#ffffff" stroke-width="0" fill="#ffffff" />
<!-- 0 -->
<circle cx="1.86603" cy="-3.23205" r="0.819615" stroke="#ffffff" stroke-width="0" fill="#ffffff" />
<!-- 0 -->
<circle cx="1.36603" cy="5.09808" r="0.819615" stroke="#ffffff" stroke-width="0" fill="#ffffff" />
<!-- 0 -->
<circle cx="-1.36603" cy="-5.09808" r="0.819615" stroke="#ffffff" stroke-width="0" fill="#ffffff" />
<!-- D1C1D1C1D1D1 D1D1C1D1C1D1 -->
<polygon points="-1.86603,-2.23205 -0.68301,-2.54904 2.54904,-0.68301 0.68301,2.54904 -0.50000,2.86603 -1.86603,0.50000 " fill="none" stroke="rgb(25,25,25)" stroke-width="0.327846" />
<!-- D1C1D1C1D1D1 D1D1C1D1C1D1 -->
<!-- 0 -->
<circle cx="0.00000" cy="0.00000" r="0.327846" stroke="rgb(25,25,25)" stroke-width="0" fill="rgb(25,25,25)" />
<!-- 0 -->
<circle cx="3.23205" cy="1.86603" r="0.327846" stroke="rgb(25,25,25)" stroke-width="0" fill="rgb(25,25,25)" />
<!-- 0 -->
<circle cx="-3.23205" cy="1.86603" r="0.327846" stroke="rgb(25,25,25)" stroke-width="0" fill="rgb(25,25,25)" />
<!-- 0 -->
<circle cx="-3.73205" cy="0.00000" r="0.327846" stroke="rgb(25,25,25)" stroke-width="0" fill="rgb(25,25,25)" />
<!-- 0 -->
<circle cx="1.86603" cy="-3.23205" r="0.327846" stroke="rgb(25,25,25)" stroke-width="0" fill="rgb(25,25,25)" />
<!-- 0 -->
<circle cx="1.36603" cy="5.09808" r="0.327846" stroke="rgb(25,25,25)" stroke-width="0" fill="rgb(25,25,25)" />
<!-- 0 -->
<circle cx="-1.36603" cy="-5.09808" r="0.327846" stroke="rgb(25,25,25)" stroke-width="0" fill="rgb(25,25,25)" />
</svg>
<!--D1D1C1D1C1D1 D1C1D1C1D1D1-->
<polygon points="-0.08494,0.04904 -0.01314,0.04904 0.04904,0.08494 -0.02276,0.08494 " style="fill:none;stroke:rgb(25,25,25);stroke-width:0.000732051" fill-opacity="0.5" />
<svg x="-0.03991" y="0.04503" width="0.04392" height="0.04392" viewBox="-6.74613 -6.74613 13.49227 13.49227">

<!-- D1D1C1D1C1D1 D1C1D1C1D1D1 -->
<polygon points="-0.68301,-2.54904 0.50000,-2.86603 1.86603,-0.50000 1.86603,2.23205 0.68301,2.54904 -2.54904,0.68301 " fill="none" stroke="#ffffff" stroke-width="0.819615" />
<!-- D1D1C1D1C1D1 D1C1D1C1D1D1 -->
<!-- 0 -->
<circle cx="0.00000" cy="0.00000" r="0.819615" stroke="#ffffff" stroke-width="0" fill="#ffffff" />
<!-- 0 -->
<circle cx="-1.86603" cy="3.23205" r="0.819615" stroke="#ffffff" stroke-width="0" fill="#ffffff" />
<!-- 0 -->
<circle cx="3.73205" cy="0.00000" r="0.819615" stroke="#ffffff" stroke-width="0" fill="#ffffff" />
<!-- 0 -->
<circle cx="3.23205" cy="-1.86603" r="0.819615" stroke="#ffffff" stroke-width="0" fill="#ffffff" />
<!-- 0 -->
<circle cx="-3.23205" cy="-1.86603" r="0.819615" stroke="#ffffff" stroke-width="0" fill="#ffffff" />
<!-- 0 -->
<circle cx="1.36603" cy="5.09808" r="0.819615" stroke="#ffffff" stroke-width="0" fill="#ffffff" />
<!-- 0 -->
<circle cx="-1.36603" cy="-5.09808" r="0.819615" stroke="#ffffff" stroke-width="0" fill="#ffffff" />
<!-- D1D1C1D1C1D1 D1C1D1C1D1D1 -->
<polygon points="-0.68301,-2.54904 0.50000,-2.86603 1.86603,-0.50000 1.86603,2.23205 0.68301,2.54904 -2.54904,0.68301 " fill="none" stroke="rgb(25,25,25)" stroke-width="0.327846" />
<!-- D1D1C1D1C1D1 D1C1D1C1D1D1 -->
<!-- 0 -->
<circle cx="0.00000" cy="0.00000" r="0.327846" stroke="rgb(25,25,25)" stroke-width="0" fill="rgb(25,25,25)" />
<!-- 0 -->
<circle cx="-1.86603" cy="3.23205" r="0.327846" stroke="rgb(25,25,25)" stroke-width="0" fill="rgb(25,25,25)" />
<!-- 0 -->
<circle cx="3.73205" cy="0.00000" r="0.327846" stroke="rgb(25,25,25)" stroke-width="0" fill="rgb(25,25,25)" />
<!-- 0 -->
<circle cx="3.23205" cy="-1.86603" r="0.327846" stroke="rgb(25,25,25)" stroke-width="0" fill="rgb(25,25,25)" />
<!-- 0 -->
<circle cx="-3.23205" cy="-1.86603" r="0.327846" stroke="rgb(25,25,25)" stroke-width="0" fill="rgb(25,25,25)" />
<!-- 0 -->
<circle cx="1.36603" cy="5.09808" r="0.327846" stroke="rgb(25,25,25)" stroke-width="0" fill="rgb(25,25,25)" />
<!-- 0 -->
<circle cx="-1.36603" cy="-5.09808" r="0.327846" stroke="rgb(25,25,25)" stroke-width="0" fill="rgb(25,25,25)" />
</svg>
</g>
</svg>
