<?xml version="1.0" standalone="no"?>

<svg width="1071.8" height="321.539" viewBox="-0.267949 -0.0803848 0.535898 0.16077">

<rect x="-50%" y="-50%" width="100%" height="100%" fill="white" />
<g transform="scale(1,-1)">
<polygon points="-0.25000,-0.06699 0.01795,-0.06699 0.25000,0.06699 -0.01795,0.06699 " style="fill:none;stroke:rgb(25,25,25);stroke-width:0.000267949" fill-opacity="0.5" />
<!--E1D1D1E1D1 E1D1D1E1D1-->
<polygon points="0.11603,0.03109 0.18782,0.03109 0.25000,0.06699 0.17820,0.06699 " style="fill:none;stroke:rgb(25,25,25);stroke-width:0.000267949" fill-opacity="0.5" />
<svg x="0.17497" y="0.04100" width="0.01608" height="0.01608" viewBox="-14.53590 -14.53590 29.07180 29.07180">

<!-- E1D1D1E1D1 E1D1D1E1D1 -->
<polygon points="-6.96410,-1.86603 5.09808,-5.09808 5.09808,1.36603 -3.73205,3.73205 " fill="none" stroke="#ffffff" stroke-width="2.23923" />
<!-- E1D1D1E1D1 E1D1D1E1D1 -->
<!-- 0 -->
<circle cx="0.00000" cy="0.00000" r="2.23923" stroke="#ffffff" stroke-width="0" fill="#ffffff" />
<!-- 0 -->
<circle cx="1.36603" cy="5.09808" r="2.23923" stroke="#ffffff" stroke-width="0" fill="#ffffff" />
<!-- 0 -->
<circle cx="-1.86603" cy="-6.96410" r="2.23923" stroke="#ffffff" stroke-width="0" fill="#ffffff" />
<!-- 0 -->
<circle cx="10.19615" cy="0.00000" r="2.23923" stroke="#ffffff" stroke-width="0" fill="#ffffff" />
<!-- 0 -->
<circle cx="-8.83013" cy="5.09808" r="2.23923" stroke="#ffffff" stroke-width="0" fill="#ffffff" />
<!-- E1D1D1E1D1 E1D1D1E1D1 -->
<polygon points="-6.96410,-1.86603 5.09808,-5.09808 5.09808,1.36603 -3.73205,3.73205 " fill="none" stroke="rgb(25,25,25)" stroke-width="0.895692" />
<!-- E1D1D1E1D1 E1D1D1E1D1 -->
<!-- 0 -->
<circle cx="0.00000" cy="0.00000" r="0.895692" stroke="rgb(25,25,25)" stroke-width="0" fill="rgb(25,25,25)" />
<!-- 0 -->
<circle cx="1.36603" cy="5.09808" r="0.895692" stroke="rgb(25,25,25)" stroke-width="0" fill="rgb(25,25,25)" />
<!-- 0 -->
<circle cx="-1.86603" cy="-6.96410" r="0.895692" stroke="rgb(25,25,25)" stroke-width="0" fill="rgb(25,25,25)" />
<!-- 0 -->
<circle cx="10.19615" cy="0.00000" r="0.895692" stroke="rgb(25,25,25)" stroke-width="0" fill="rgb(25,25,25)" />
<!-- 0 -->
<circle cx="-8.83013" cy="5.09808" r="0.895692" stroke="rgb(25,25,25)" stroke-width="0" fill="rgb(25,25,25)" />
</svg>
<!--D1D1E1D1D1 D1D1E1D1D1-->
<polygon points="-0.25000,-0.06699 -0.17820,-0.06699 -0.11603,-0.03109 -0.18782,-0.03109 " style="fill:none;stroke:rgb(25,25,25);stroke-width:0.000267949" fill-opacity="0.5" />
<svg x="-0.19105" y="-0.05708" width="0.01608" height="0.01608" viewBox="-14.53590 -14.53590 29.07180 29.07180">

<!-- D1D1E1D1D1 D1D1E1D1D1 -->
<polygon points="6.96410,1.86603 -5.09808,5.09808 -5.09808,-1.36603 3.73205,-3.73205 " fill="none" stroke="#ffffff" stroke-width="2.23923" />
<!-- D1D1E1D1D1 D1D1E1D1D1 -->
<!-- 0 -->
<circle cx="0.00000" cy="0.00000" r="2.23923" stroke="#ffffff" stroke-width="0" fill="#ffffff" />
<!-- 0 -->
<circle cx="-1.36603" cy="-5.09808" r="2.23923" stroke="#ffffff" stroke-width="0" fill="#ffffff" />
<!-- 0 -->
<circle cx="1.86603" cy="6.96410" r="2.23923" stroke="#ffffff" stroke-width="0" fill="#ffffff" />
<!-- 0 -->
<circle cx="8.83013" cy="-5.09808" r="2.23923" stroke="#ffffff" stroke-width="0" fill="#ffffff" />
<!-- 0 -->
<circle cx="-10.19615" cy="0.00000" r="2.23923" stroke="#ffffff" stroke-width="0" fill="#ffffff" />
<!-- D1D1E1D1D1 D1D1E1D1D1 -->
<polygon points="6.96410,1.86603 -5.09808,5.09808 -5.09808,-1.36603 3.73205,-3.73205 " fill="none" stroke="rgb(25,25,25)" stroke-width="0.895692" />
<!-- D1D1E1D1D1 D1D1E1D1D1 -->
<!-- 0 -->
<circle cx="0.00000" cy="0.00000" r="0.895692" stroke="rgb(25,25,25)" stroke-width="0" fill="rgb(25,25,25)" />
<!-- 0 -->
<circle cx="-1.36603" cy="-5.09808" r="0.895692" stroke="rgb(25,25,25)" stroke-width="0" fill="rgb(25,25,25)" />
<!-- 0 -->
<circle cx="1.86603" cy="6.96410" r="0.895692" stroke="rgb(25,25,25)" stroke-width="0" fill="rgb(25,25,25)" />
<!-- 0 -->
<circle cx="8.83013" cy="-5.09808" r="0.895692" stroke="rgb(25,25,25)" stroke-width="0" fill="rgb(25,25,25)" />
<!-- 0 -->
<circle cx="-10.19615" cy="0.00000" r="0.895692" stroke="rgb(25,25,25)" stroke-width="0" fill="rgb(25,25,25)" />
</svg>
<!--D1D1E1D1D1 E1D1D1E1D1-->
<polygon points="-0.08013,0.03109 -0.00833,0.03109 0.05385,0.06699 -0.01795,0.06699 " style="fill:none;stroke:rgb(25,25,25);stroke-width:0.000267949" fill-opacity="0.5" />
<svg x="-0.02118" y="0.04100" width="0.01608" height="0.01608" viewBox="-14.53590 -14.53590 29.07180 29.07180">

<!-- D1D1E1D1D1 E1D1D1E1D1 -->
<polygon points="-5.09808,-5.09808 6.96410,-1.86603 -1.86603,6.96410 -5.09808,1.36603 " fill="none" stroke="#ffffff" stroke-width="2.23923" />
<!-- D1D1E1D1D1 E1D1D1E1D1 -->
<!-- 0 -->
<circle cx="0.00000" cy="0.00000" r="2.23923" stroke="#ffffff" stroke-width="0" fill="#ffffff" />
<!-- 0 -->
<circle cx="5.09808" cy="5.09808" r="2.23923" stroke="#ffffff" stroke-width="0" fill="#ffffff" />
<!-- 0 -->
<circle cx="1.86603" cy="-6.96410" r="2.23923" stroke="#ffffff" stroke-width="0" fill="#ffffff" />
<!-- 0 -->
<circle cx="-8.83013" cy="5.09808" r="2.23923" stroke="#ffffff" stroke-width="0" fill="#ffffff" />
<!-- 0 -->
<circle cx="-10.19615" cy="0.00000" r="2.23923" stroke="#ffffff" stroke-width="0" fill="#ffffff" />
<!-- D1D1E1D1D1 E1D1D1E1D1 -->
<polygon points="-5.09808,-5.09808 6.96410,-1.86603 -1.86603,6.96410 -5.09808,1.36603 " fill="none" stroke="rgb(25,25,25)" stroke-width="0.895692" />
<!-- D1D1E1D1D1 E1D1D1E1D1 -->
<!-- 0 -->
<circle cx="0.00000" cy="0.00000" r="0.895692" stroke="rgb(25,25,25)" stroke-width="0" fill="rgb(25,25,25)" />
<!-- 0 -->
<circle cx="5.09808" cy="5.09808" r="0.895692" stroke="rgb(25,25,25)" stroke-width="0" fill="rgb(25,25,25)" />
<!-- 0 -->
<circle cx="1.86603" cy="-6.96410" r="0.895692" stroke="rgb(25,25,25)" stroke-width="0" fill="rgb(25,25,25)" />
<!-- 0 -->
<circle cx="-8.83013" cy="5.09808" r="0.895692" stroke="rgb(25,25,25)" stroke-width="0" fill="rgb(25,25,25)" />
<!-- 0 -->
<circle cx="-10.19615" cy="0.00000" r="0.895692" stroke="rgb(25,25,25)" stroke-width="0" fill="rgb(25,25,25)" />
</svg>
<!--E1D1D1E1D1 D1D1E1D1D1-->
<polygon points="-0.05385,-0.06699 0.01795,-0.06699 0.08013,-0.03109 0.00833,-0.03109 " style="fill:none;stroke:rgb(25,25,25);stroke-width:0.000267949" fill-opacity="0.5" />
<svg x="0.00510" y="-0.05708" width="0.01608" height="0.01608" viewBox="-14.53590 -14.53590 29.07180 29.07180">

<!-- E1D1D1E1D1 D1D1E1D1D1 -->
<polygon points="1.86603,-6.96410 5.09808,-1.36603 5.09808,5.09808 -6.96410,1.86603 " fill="none" stroke="#ffffff" stroke-width="2.23923" />
<!-- E1D1D1E1D1 D1D1E1D1D1 -->
<!-- 0 -->
<circle cx="0.00000" cy="0.00000" r="2.23923" stroke="#ffffff" stroke-width="0" fill="#ffffff" />
<!-- 0 -->
<circle cx="-1.86603" cy="6.96410" r="2.23923" stroke="#ffffff" stroke-width="0" fill="#ffffff" />
<!-- 0 -->
<circle cx="-5.09808" cy="-5.09808" r="2.23923" stroke="#ffffff" stroke-width="0" fill="#ffffff" />
<!-- 0 -->
<circle cx="10.19615" cy="0.00000" r="2.23923" stroke="#ffffff" stroke-width="0" fill="#ffffff" />
<!-- 0 -->
<circle cx="8.83013" cy="-5.09808" r="2.23923" stroke="#ffffff" stroke-width="0" fill="#ffffff" />
<!-- E1D1D1E1D1 D1D1E1D1D1 -->
<polygon points="1.86603,-6.96410 5.09808,-1.36603 5.09808,5.09808 -6.96410,1.86603 " fill="none" stroke="rgb(25,25,25)" stroke-width="0.895692" />
<!-- E1D1D1E1D1 D1D1E1D1D1 -->
<!-- 0 -->
<circle cx="0.00000" cy="0.00000" r="0.895692" stroke="rgb(25,25,25)" stroke-width="0" fill="rgb(25,25,25)" />
<!-- 0 -->
<circle cx="-1.86603" cy="6.96410" r="0.895692" stroke="rgb(25,25,25)" stroke-width="0" fill="rgb(25,25,25)" />
<!-- 0 -->
<circle cx="-5.09808" cy="-5.09808" r="0.895692" stroke="rgb(25,25,25)" stroke-width="0" fill="rgb(25,25,25)" />
<!-- 0 -->
<circle cx="10.19615" cy="0.00000" r="0.895692" stroke="rgb(25,25,25)" stroke-width="0" fill="rgb(25,25,25)" />
<!-- 0 -->
<circle cx="8.83013" cy="-5.09808" r="0.895692" stroke="rgb(25,25,25)" stroke-width="0" fill="rgb(25,25,25)" />
</svg>
<!--E1D1D1E1D1 D1E1D1D1D1-->
<polygon points="0.00833,-0.03109 0.08013,-0.03109 0.18782,0.03109 0.11603,0.03109 " style="fill:none;stroke:rgb(25,25,25);stroke-width:0.000267949" fill-opacity="0.5" />
<svg x="0.09004" y="-0.00804" width="0.01608" height="0.01608" viewBox="-14.53590 -14.53590 29.07180 29.07180">

<!-- E1D1D1E1D1 D1E1D1D1D1 -->
<polygon points="-6.96410,-1.86603 5.09808,-5.09808 5.09808,5.09808 -6.96410,1.86603 " fill="none" stroke="#ffffff" stroke-width="2.23923" />
<!-- E1D1D1E1D1 D1E1D1D1D1 -->
<!-- 0 -->
<circle cx="0.00000" cy="0.00000" r="2.23923" stroke="#ffffff" stroke-width="0" fill="#ffffff" />
<!-- 0 -->
<circle cx="-1.86603" cy="6.96410" r="2.23923" stroke="#ffffff" stroke-width="0" fill="#ffffff" />
<!-- 0 -->
<circle cx="-1.86603" cy="-6.96410" r="2.23923" stroke="#ffffff" stroke-width="0" fill="#ffffff" />
<!-- 0 -->
<circle cx="10.19615" cy="0.00000" r="2.23923" stroke="#ffffff" stroke-width="0" fill="#ffffff" />
<!-- 0 -->
<circle cx="-13.92820" cy="0.00000" r="2.23923" stroke="#ffffff" stroke-width="0" fill="#ffffff" />
<!-- E1D1D1E1D1 D1E1D1D1D1 -->
<polygon points="-6.96410,-1.86603 5.09808,-5.09808 5.09808,5.09808 -6.96410,1.86603 " fill="none" stroke="rgb(25,25,25)" stroke-width="0.895692" />
<!-- E1D1D1E1D1 D1E1D1D1D1 -->
<!-- 0 -->
<circle cx="0.00000" cy="0.00000" r="0.895692" stroke="rgb(25,25,25)" stroke-width="0" fill="rgb(25,25,25)" />
<!-- 0 -->
<circle cx="-1.86603" cy="6.96410" r="0.895692" stroke="rgb(25,25,25)" stroke-width="0" fill="rgb(25,25,25)" />
<!-- 0 -->
<circle cx="-1.86603" cy="-6.96410" r="0.895692" stroke="rgb(25,25,25)" stroke-width="0" fill="rgb(25,25,25)" />
<!-- 0 -->
<circle cx="10.19615" cy="0.00000" r="0.895692" stroke="rgb(25,25,25)" stroke-width="0" fill="rgb(25,25,25)" />
<!-- 0 -->
<circle cx="-13.92820" cy="0.00000" r="0.895692" stroke="rgb(25,25,25)" stroke-width="0" fill="rgb(25,25,25)" />
</svg>
<!--D1E1D1D1D1 D1D1E1D1D1-->
<polygon points="-0.17820,-0.06699 -0.05385,-0.06699 0.00833,-0.03109 -0.11603,-0.03109 " style="fill:none;stroke:rgb(25,25,25);stroke-width:0.000267949" fill-opacity="0.5" />
<svg x="-0.09297" y="-0.05708" width="0.01608" height="0.01608" viewBox="-14.53590 -14.53590 29.07180 29.07180">

<!-- D1E1D1D1D1 D1D1E1D1D1 -->
<polygon points="-6.96410,1.86603 1.86603,-6.96410 6.96410,1.86603 -5.09808,5.09808 " fill="none" stroke="#ffffff" stroke-width="2.23923" />
<!-- D1E1D1D1D1 D1D1E1D1D1 -->
<!-- 0 -->
<circle cx="0.00000" cy="0.00000" r="2.23923" stroke="#ffffff" stroke-width="0" fill="#ffffff" />
<!-- 0 -->
<circle cx="1.86603" cy="6.96410" r="2.23923" stroke="#ffffff" stroke-width="0" fill="#ffffff" />
<!-- 0 -->
<circle cx="-5.09808" cy="-5.09808" r="2.23923" stroke="#ffffff" stroke-width="0" fill="#ffffff" />
<!-- 0 -->
<circle cx="8.83013" cy="-5.09808" r="2.23923" stroke="#ffffff" stroke-width="0" fill="#ffffff" />
<!-- 0 -->
<circle cx="-12.06218" cy="6.96410" r="2.23923" stroke="#ffffff" stroke-width="0" fill="#ffffff" />
<!-- D1E1D1D1D1 D1D1E1D1D1 -->
<polygon points="-6.96410,1.86603 1.86603,-6.96410 6.96410,1.86603 -5.09808,5.09808 " fill="none" stroke="rgb(25,25,25)" stroke-width="0.895692" />
<!-- D1E1D1D1D1 D1D1E1D1D1 -->
<!-- 0 -->
<circle cx="0.00000" cy="0.00000" r="0.895692" stroke="rgb(25,25,25)" stroke-width="0" fill="rgb(25,25,25)" />
<!-- 0 -->
<circle cx="1.86603" cy="6.96410" r="0.895692" stroke="rgb(25,25,25)" stroke-width="0" fill="rgb(25,25,25)" />
<!-- 0 -->
<circle cx="-5.09808" cy="-5.09808" r="0.895692" stroke="rgb(25,25,25)" stroke-width="0" fill="rgb(25,25,25)" />
<!-- 0 -->
<circle cx="8.83013" cy="-5.09808" r="0.895692" stroke="rgb(25,25,25)" stroke-width="0" fill="rgb(25,25,25)" />
<!-- 0 -->
<circle cx="-12.06218" cy="6.96410" r="0.895692" stroke="rgb(25,25,25)" stroke-width="0" fill="rgb(25,25,25)" />
</svg>
<!--D1D1E1D1D1 D1E1D1D1D1-->
<polygon points="-0.18782,-0.03109 -0.11603,-0.03109 -0.00833,0.03109 -0.08013,0.03109 " style="fill:none;stroke:rgb(25,25,25);stroke-width:0.000267949" fill-opacity="0.5" />
<svg x="-0.10611" y="-0.00804" width="0.01608" height="0.01608" viewBox="-14.53590 -14.53590 29.07180 29.07180">

<!-- D1D1E1D1D1 D1E1D1D1D1 -->
<polygon points="-5.09808,5.09808 -5.09808,-5.09808 6.96410,-1.86603 6.96410,1.86603 " fill="none" stroke="#ffffff" stroke-width="2.23923" />
<!-- D1D1E1D1D1 D1E1D1D1D1 -->
<!-- 0 -->
<circle cx="0.00000" cy="0.00000" r="2.23923" stroke="#ffffff" stroke-width="0" fill="#ffffff" />
<!-- 0 -->
<circle cx="1.86603" cy="6.96410" r="2.23923" stroke="#ffffff" stroke-width="0" fill="#ffffff" />
<!-- 0 -->
<circle cx="1.86603" cy="-6.96410" r="2.23923" stroke="#ffffff" stroke-width="0" fill="#ffffff" />
<!-- 0 -->
<circle cx="-10.19615" cy="0.00000" r="2.23923" stroke="#ffffff" stroke-width="0" fill="#ffffff" />
<!-- 0 -->
<circle cx="13.92820" cy="0.00000" r="2.23923" stroke="#ffffff" stroke-width="0" fill="#ffffff" />
<!-- D1D1E1D1D1 D1E1D1D1D1 -->
<polygon points="-5.09808,5.09808 -5.09808,-5.09808 6.96410,-1.86603 6.96410,1.86603 " fill="none" stroke="rgb(25,25,25)" stroke-width="0.895692" />
<!-- D1D1E1D1D1 D1E1D1D1D1 -->
<!-- 0 -->
<circle cx="0.00000" cy="0.00000" r="0.895692" stroke="rgb(25,25,25)" stroke-width="0" fill="rgb(25,25,25)" />
<!-- 0 -->
<circle cx="1.86603" cy="6.96410" r="0.895692" stroke="rgb(25,25,25)" stroke-width="0" fill="rgb(25,25,25)" />
<!-- 0 -->
<circle cx="1.86603" cy="-6.96410" r="0.895692" stroke="rgb(25,25,25)" stroke-width="0" fill="rgb(25,25,25)" />
<!-- 0 -->
<circle cx="-10.19615" cy="0.00000" r="0.895692" stroke="rgb(25,25,25)" stroke-width="0" fill="rgb(25,25,25)" />
<!-- 0 -->
<circle cx="13.92820" cy="0.00000" r="0.895692" stroke="rgb(25,25,25)" stroke-width="0" fill="rgb(25,25,25)" />
</svg>
<!--D1E1D1D1D1 E1D1D1E1D1-->
<polygon points="-0.00833,0.03109 0.11603,0.03109 0.17820,0.06699 0.05385,0.06699 " style="fill:none;stroke:rgb(25,25,25);stroke-width:0.000267949" fill-opacity="0.5" />
<svg x="0.07690" y="0.04100" width="0.01608" height="0.01608" viewBox="-14.53590 -14.53590 29.07180 29.07180">

<!-- D1E1D1D1D1 E1D1D1E1D1 -->
<polygon points="6.96410,-1.86603 -1.86603,6.96410 -6.96410,-1.86603 5.09808,-5.09808 " fill="none" stroke="#ffffff" stroke-width="2.23923" />
<!-- D1E1D1D1D1 E1D1D1E1D1 -->
<!-- 0 -->
<circle cx="0.00000" cy="0.00000" r="2.23923" stroke="#ffffff" stroke-width="0" fill="#ffffff" />
<!-- 0 -->
<circle cx="5.09808" cy="5.09808" r="2.23923" stroke="#ffffff" stroke-width="0" fill="#ffffff" />
<!-- 0 -->
<circle cx="-1.86603" cy="-6.96410" r="2.23923" stroke="#ffffff" stroke-width="0" fill="#ffffff" />
<!-- 0 -->
<circle cx="-8.83013" cy="5.09808" r="2.23923" stroke="#ffffff" stroke-width="0" fill="#ffffff" />
<!-- 0 -->
<circle cx="12.06218" cy="-6.96410" r="2.23923" stroke="#ffffff" stroke-width="0" fill="#ffffff" />
<!-- D1E1D1D1D1 E1D1D1E1D1 -->
<polygon points="6.96410,-1.86603 -1.86603,6.96410 -6.96410,-1.86603 5.09808,-5.09808 " fill="none" stroke="rgb(25,25,25)" stroke-width="0.895692" />
<!-- D1E1D1D1D1 E1D1D1E1D1 -->
<!-- 0 -->
<circle cx="0.00000" cy="0.00000" r="0.895692" stroke="rgb(25,25,25)" stroke-width="0" fill="rgb(25,25,25)" />
<!-- 0 -->
<circle cx="5.09808" cy="5.09808" r="0.895692" stroke="rgb(25,25,25)" stroke-width="0" fill="rgb(25,25,25)" />
<!-- 0 -->
<circle cx="-1.86603" cy="-6.96410" r="0.895692" stroke="rgb(25,25,25)" stroke-width="0" fill="rgb(25,25,25)" />
<!-- 0 -->
<circle cx="-8.83013" cy="5.09808" r="0.895692" stroke="rgb(25,25,25)" stroke-width="0" fill="rgb(25,25,25)" />
<!-- 0 -->
<circle cx="12.06218" cy="-6.96410" r="0.895692" stroke="rgb(25,25,25)" stroke-width="0" fill="rgb(25,25,25)" />
</svg>
<!--D1E1D1D1D1 D1E1D1D1D1-->
<polygon points="-0.11603,-0.03109 0.00833,-0.03109 0.11603,0.03109 -0.00833,0.03109 " style="fill:none;stroke:rgb(25,25,25);stroke-width:0.000267949" fill-opacity="0.5" />
<svg x="-0.00804" y="-0.00804" width="0.01608" height="0.01608" viewBox="-14.53590 -14.53590 29.07180 29.07180">

<!-- D1E1D1D1D1 D1E1D1D1D1 -->
<polygon points="-6.96410,-1.86603 5.09808,-5.09808 6.96410,-1.86603 6.96410,1.86603 -5.09808,5.09808 -6.96410,1.86603 " fill="none" stroke="#ffffff" stroke-width="2.23923" />
<!-- D1E1D1D1D1 D1E1D1D1D1 -->
<!-- 0 -->
<circle cx="0.00000" cy="0.00000" r="2.23923" stroke="#ffffff" stroke-width="0" fill="#ffffff" />
<!-- 0 -->
<circle cx="1.86603" cy="6.96410" r="2.23923" stroke="#ffffff" stroke-width="0" fill="#ffffff" />
<!-- 0 -->
<circle cx="-1.86603" cy="-6.96410" r="2.23923" stroke="#ffffff" stroke-width="0" fill="#ffffff" />
<!-- 0 -->
<circle cx="13.92820" cy="0.00000" r="2.23923" stroke="#ffffff" stroke-width="0" fill="#ffffff" />
<!-- 0 -->
<circle cx="-12.06218" cy="6.96410" r="2.23923" stroke="#ffffff" stroke-width="0" fill="#ffffff" />
<!-- 0 -->
<circle cx="12.06218" cy="-6.96410" r="2.23923" stroke="#ffffff" stroke-width="0" fill="#ffffff" />
<!-- 0 -->
<circle cx="-13.92820" cy="0.00000" r="2.23923" stroke="#ffffff" stroke-width="0" fill="#ffffff" />
<!-- D1E1D1D1D1 D1E1D1D1D1 -->
<polygon points="-6.96410,-1.86603 5.09808,-5.09808 6.96410,-1.86603 6.96410,1.86603 -5.09808,5.09808 -6.96410,1.86603 " fill="none" stroke="rgb(25,25,25)" stroke-width="0.895692" />
<!-- D1E1D1D1D1 D1E1D1D1D1 -->
<!-- 0 -->
<circle cx="0.00000" cy="0.00000" r="0.895692" stroke="rgb(25,25,25)" stroke-width="0" fill="rgb(25,25,25)" />
<!-- 0 -->
<circle cx="1.86603" cy="6.96410" r="0.895692" stroke="rgb(25,25,25)" stroke-width="0" fill="rgb(25,25,25)" />
<!-- 0 -->
<circle cx="-1.86603" cy="-6.96410" r="0.895692" stroke="rgb(25,25,25)" stroke-width="0" fill="rgb(25,25,25)" />
<!-- 0 -->
<circle cx="13.92820" cy="0.00000" r="0.895692" stroke="rgb(25,25,25)" stroke-width="0" fill="rgb(25,25,25)" />
<!-- 0 -->
<circle cx="-12.06218" cy="6.96410" r="0.895692" stroke="rgb(25,25,25)" stroke-width="0" fill="rgb(25,25,25)" />
<!-- 0 -->
<circle cx="12.06218" cy="-6.96410" r="0.895692" stroke="rgb(25,25,25)" stroke-width="0" fill="rgb(25,25,25)" />
<!-- 0 -->
<circle cx="-13.92820" cy="0.00000" r="0.895692" stroke="rgb(25,25,25)" stroke-width="0" fill="rgb(25,25,25)" />
</svg>
</g>
</svg>
