<?xml version="1.0" standalone="no"?>

<svg width="1856.41" height="556.922" viewBox="-0.464102 -0.13923 0.928203 0.278461">

<rect x="-50%" y="-50%" width="100%" height="100%" fill="white" />
<g transform="scale(1,-1)">
<polygon points="-0.43301,-0.11603 0.03109,-0.11603 0.43301,0.11603 -0.03109,0.11603 " style="fill:none;stroke:rgb(25,25,25);stroke-width:0.000464102" fill-opacity="0.5" />
<!--B1D1B1B1D1B1D1 B1D1B1B1D1B1D1-->
<polygon points="-0.43301,-0.11603 -0.23686,-0.11603 -0.06699,-0.01795 -0.26314,-0.01795 " style="fill:none;stroke:rgb(25,25,25);stroke-width:0.000464102" fill-opacity="0.5" />
<svg x="-0.26392" y="-0.08091" width="0.02785" height="0.02785" viewBox="-10.64102 -10.64102 21.28203 21.28203">

<!-- B1D1B1B1D1B1D1 B1D1B1B1D1B1D1 -->
<polygon points="1.86603,-3.23205 1.86603,0.50000 -1.36603,1.36603 -3.23205,-1.86603 " fill="none" stroke="#ffffff" stroke-width="1.29282" />
<!-- B1D1B1B1D1B1D1 B1D1B1B1D1B1D1 -->
<!-- 0 -->
<circle cx="0.00000" cy="0.00000" r="1.29282" stroke="#ffffff" stroke-width="0" fill="#ffffff" />
<!-- 0 -->
<circle cx="0.50000" cy="1.86603" r="1.29282" stroke="#ffffff" stroke-width="0" fill="#ffffff" />
<!-- 0 -->
<circle cx="3.73205" cy="0.00000" r="1.29282" stroke="#ffffff" stroke-width="0" fill="#ffffff" />
<!-- 0 -->
<circle cx="-3.23205" cy="1.86603" r="1.29282" stroke="#ffffff" stroke-width="0" fill="#ffffff" />
<!-- 0 -->
<circle cx="-1.36603" cy="-5.09808" r="1.29282" stroke="#ffffff" stroke-width="0" fill="#ffffff" />
<!-- B1D1B1B1D1B1D1 B1D1B1B1D1B1D1 -->
<polygon points="1.86603,-3.23205 1.86603,0.50000 -1.36603,1.36603 -3.23205,-1.86603 " fill="none" stroke="rgb(25,25,25)" stroke-width="0.517128" />
<!-- B1D1B1B1D1B1D1 B1D1B1B1D1B1D1 -->
<!-- 0 -->
<circle cx="0.00000" cy="0.00000" r="0.517128" stroke="rgb(25,25,25)" stroke-width="0" fill="rgb(25,25,25)" />
<!-- 0 -->
<circle cx="0.50000" cy="1.86603" r="0.517128" stroke="rgb(25,25,25)" stroke-width="0" fill="rgb(25,25,25)" />
<!-- 0 -->
<circle cx="3.73205" cy="0.00000" r="0.517128" stroke="rgb(25,25,25)" stroke-width="0" fill="rgb(25,25,25)" />
<!-- 0 -->
<circle cx="-3.23205" cy="1.86603" r="0.517128" stroke="rgb(25,25,25)" stroke-width="0" fill="rgb(25,25,25)" />
<!-- 0 -->
<circle cx="-1.36603" cy="-5.09808" r="0.517128" stroke="rgb(25,25,25)" stroke-width="0" fill="rgb(25,25,25)" />
</svg>
<!--B1D1B1D1B1B1D1 B1D1B1D1B1B1D1-->
<polygon points="0.06699,0.01795 0.26314,0.01795 0.43301,0.11603 0.23686,0.11603 " style="fill:none;stroke:rgb(25,25,25);stroke-width:0.000464102" fill-opacity="0.5" />
<svg x="0.23608" y="0.05306" width="0.02785" height="0.02785" viewBox="-10.64102 -10.64102 21.28203 21.28203">

<!-- B1D1B1D1B1B1D1 B1D1B1D1B1B1D1 -->
<polygon points="3.23205,1.86603 -1.86603,3.23205 -1.86603,-0.50000 1.36603,-1.36603 " fill="none" stroke="#ffffff" stroke-width="1.29282" />
<!-- B1D1B1D1B1B1D1 B1D1B1D1B1B1D1 -->
<!-- 0 -->
<circle cx="0.00000" cy="0.00000" r="1.29282" stroke="#ffffff" stroke-width="0" fill="#ffffff" />
<!-- 0 -->
<circle cx="-0.50000" cy="-1.86603" r="1.29282" stroke="#ffffff" stroke-width="0" fill="#ffffff" />
<!-- 0 -->
<circle cx="3.23205" cy="-1.86603" r="1.29282" stroke="#ffffff" stroke-width="0" fill="#ffffff" />
<!-- 0 -->
<circle cx="-3.73205" cy="0.00000" r="1.29282" stroke="#ffffff" stroke-width="0" fill="#ffffff" />
<!-- 0 -->
<circle cx="1.36603" cy="5.09808" r="1.29282" stroke="#ffffff" stroke-width="0" fill="#ffffff" />
<!-- B1D1B1D1B1B1D1 B1D1B1D1B1B1D1 -->
<polygon points="3.23205,1.86603 -1.86603,3.23205 -1.86603,-0.50000 1.36603,-1.36603 " fill="none" stroke="rgb(25,25,25)" stroke-width="0.517128" />
<!-- B1D1B1D1B1B1D1 B1D1B1D1B1B1D1 -->
<!-- 0 -->
<circle cx="0.00000" cy="0.00000" r="0.517128" stroke="rgb(25,25,25)" stroke-width="0" fill="rgb(25,25,25)" />
<!-- 0 -->
<circle cx="-0.50000" cy="-1.86603" r="0.517128" stroke="rgb(25,25,25)" stroke-width="0" fill="rgb(25,25,25)" />
<!-- 0 -->
<circle cx="3.23205" cy="-1.86603" r="0.517128" stroke="rgb(25,25,25)" stroke-width="0" fill="rgb(25,25,25)" />
<!-- 0 -->
<circle cx="-3.73205" cy="0.00000" r="0.517128" stroke="rgb(25,25,25)" stroke-width="0" fill="rgb(25,25,25)" />
<!-- 0 -->
<circle cx="1.36603" cy="5.09808" r="0.517128" stroke="rgb(25,25,25)" stroke-width="0" fill="rgb(25,25,25)" />
</svg>
<!--B1B1D1B1D1B1D1 D1B1B1D1B1D1B1-->
<polygon points="-0.12917,0.01795 -0.00481,0.01795 0.10289,0.08013 -0.02147,0.08013 " style="fill:none;stroke:rgb(25,25,25);stroke-width:0.000464102" fill-opacity="0.5" />
<svg x="-0.02706" y="0.03512" width="0.02785" height="0.02785" viewBox="-10.64102 -10.64102 21.28203 21.28203">

<!-- B1B1D1B1D1B1D1 D1B1B1D1B1D1B1 -->
<polygon points="-2.94338,-2.94338 0.00000,-3.73205 1.86603,-0.50000 1.86603,3.23205 -1.07735,4.02073 -4.02073,1.07735 " fill="none" stroke="#ffffff" stroke-width="1.29282" />
<!-- B1B1D1B1D1B1D1 D1B1B1D1B1D1B1 -->
<!-- 0 -->
<circle cx="0.00000" cy="0.00000" r="1.29282" stroke="#ffffff" stroke-width="0" fill="#ffffff" />
<!-- 0 -->
<circle cx="3.73205" cy="0.00000" r="1.29282" stroke="#ffffff" stroke-width="0" fill="#ffffff" />
<!-- 0 -->
<circle cx="3.23205" cy="-1.86603" r="1.29282" stroke="#ffffff" stroke-width="0" fill="#ffffff" />
<!-- 0 -->
<circle cx="1.86603" cy="6.96410" r="1.29282" stroke="#ffffff" stroke-width="0" fill="#ffffff" />
<!-- 0 -->
<circle cx="-5.09808" cy="5.09808" r="1.29282" stroke="#ffffff" stroke-width="0" fill="#ffffff" />
<!-- 0 -->
<circle cx="-6.96410" cy="-1.86603" r="1.29282" stroke="#ffffff" stroke-width="0" fill="#ffffff" />
<!-- 0 -->
<circle cx="-1.86603" cy="-6.96410" r="1.29282" stroke="#ffffff" stroke-width="0" fill="#ffffff" />
<!-- B1B1D1B1D1B1D1 D1B1B1D1B1D1B1 -->
<polygon points="-2.94338,-2.94338 0.00000,-3.73205 1.86603,-0.50000 1.86603,3.23205 -1.07735,4.02073 -4.02073,1.07735 " fill="none" stroke="rgb(25,25,25)" stroke-width="0.517128" />
<!-- B1B1D1B1D1B1D1 D1B1B1D1B1D1B1 -->
<!-- 0 -->
<circle cx="0.00000" cy="0.00000" r="0.517128" stroke="rgb(25,25,25)" stroke-width="0" fill="rgb(25,25,25)" />
<!-- 0 -->
<circle cx="3.73205" cy="0.00000" r="0.517128" stroke="rgb(25,25,25)" stroke-width="0" fill="rgb(25,25,25)" />
<!-- 0 -->
<circle cx="3.23205" cy="-1.86603" r="0.517128" stroke="rgb(25,25,25)" stroke-width="0" fill="rgb(25,25,25)" />
<!-- 0 -->
<circle cx="1.86603" cy="6.96410" r="0.517128" stroke="rgb(25,25,25)" stroke-width="0" fill="rgb(25,25,25)" />
<!-- 0 -->
<circle cx="-5.09808" cy="5.09808" r="0.517128" stroke="rgb(25,25,25)" stroke-width="0" fill="rgb(25,25,25)" />
<!-- 0 -->
<circle cx="-6.96410" cy="-1.86603" r="0.517128" stroke="rgb(25,25,25)" stroke-width="0" fill="rgb(25,25,25)" />
<!-- 0 -->
<circle cx="-1.86603" cy="-6.96410" r="0.517128" stroke="rgb(25,25,25)" stroke-width="0" fill="rgb(25,25,25)" />
</svg>
<!--D1B1B1D1B1D1B1 B1B1D1B1D1B1D1-->
<polygon points="-0.10289,-0.08013 0.02147,-0.08013 0.12917,-0.01795 0.00481,-0.01795 " style="fill:none;stroke:rgb(25,25,25);stroke-width:0.000464102" fill-opacity="0.5" />
<svg x="-0.00078" y="-0.06296" width="0.02785" height="0.02785" viewBox="-10.64102 -10.64102 21.28203 21.28203">

<!-- D1B1B1D1B1D1B1 B1B1D1B1D1B1D1 -->
<polygon points="1.07735,-4.02073 4.02073,-1.07735 2.94338,2.94338 0.00000,3.73205 -1.86603,0.50000 -1.86603,-3.23205 " fill="none" stroke="#ffffff" stroke-width="1.29282" />
<!-- D1B1B1D1B1D1B1 B1B1D1B1D1B1D1 -->
<!-- 0 -->
<circle cx="0.00000" cy="0.00000" r="1.29282" stroke="#ffffff" stroke-width="0" fill="#ffffff" />
<!-- 0 -->
<circle cx="-3.23205" cy="1.86603" r="1.29282" stroke="#ffffff" stroke-width="0" fill="#ffffff" />
<!-- 0 -->
<circle cx="-3.73205" cy="0.00000" r="1.29282" stroke="#ffffff" stroke-width="0" fill="#ffffff" />
<!-- 0 -->
<circle cx="1.86603" cy="6.96410" r="1.29282" stroke="#ffffff" stroke-width="0" fill="#ffffff" />
<!-- 0 -->
<circle cx="6.96410" cy="1.86603" r="1.29282" stroke="#ffffff" stroke-width="0" fill="#ffffff" />
<!-- 0 -->
<circle cx="5.09808" cy="-5.09808" r="1.29282" stroke="#ffffff" stroke-width="0" fill="#ffffff" />
<!-- 0 -->
<circle cx="-1.86603" cy="-6.96410" r="1.29282" stroke="#ffffff" stroke-width="0" fill="#ffffff" />
<!-- D1B1B1D1B1D1B1 B1B1D1B1D1B1D1 -->
<polygon points="1.07735,-4.02073 4.02073,-1.07735 2.94338,2.94338 0.00000,3.73205 -1.86603,0.50000 -1.86603,-3.23205 " fill="none" stroke="rgb(25,25,25)" stroke-width="0.517128" />
<!-- D1B1B1D1B1D1B1 B1B1D1B1D1B1D1 -->
<!-- 0 -->
<circle cx="0.00000" cy="0.00000" r="0.517128" stroke="rgb(25,25,25)" stroke-width="0" fill="rgb(25,25,25)" />
<!-- 0 -->
<circle cx="-3.23205" cy="1.86603" r="0.517128" stroke="rgb(25,25,25)" stroke-width="0" fill="rgb(25,25,25)" />
<!-- 0 -->
<circle cx="-3.73205" cy="0.00000" r="0.517128" stroke="rgb(25,25,25)" stroke-width="0" fill="rgb(25,25,25)" />
<!-- 0 -->
<circle cx="1.86603" cy="6.96410" r="0.517128" stroke="rgb(25,25,25)" stroke-width="0" fill="rgb(25,25,25)" />
<!-- 0 -->
<circle cx="6.96410" cy="1.86603" r="0.517128" stroke="rgb(25,25,25)" stroke-width="0" fill="rgb(25,25,25)" />
<!-- 0 -->
<circle cx="5.09808" cy="-5.09808" r="0.517128" stroke="rgb(25,25,25)" stroke-width="0" fill="rgb(25,25,25)" />
<!-- 0 -->
<circle cx="-1.86603" cy="-6.96410" r="0.517128" stroke="rgb(25,25,25)" stroke-width="0" fill="rgb(25,25,25)" />
</svg>
<!--D1B1D1B1B1D1B1 D1B1B1D1B1D1B1-->
<polygon points="-0.00481,0.01795 0.06699,0.01795 0.17468,0.08013 0.10289,0.08013 " style="fill:none;stroke:rgb(25,25,25);stroke-width:0.000464102" fill-opacity="0.5" />
<svg x="0.07101" y="0.03512" width="0.02785" height="0.02785" viewBox="-10.64102 -10.64102 21.28203 21.28203">

<!-- D1B1D1B1B1D1B1 D1B1B1D1B1D1B1 -->
<polygon points="-4.41506,2.54904 -2.94338,-2.94338 -0.00000,-3.73205 3.23205,1.86603 -1.86603,3.23205 " fill="none" stroke="#ffffff" stroke-width="1.29282" />
<!-- D1B1D1B1B1D1B1 D1B1B1D1B1D1B1 -->
<!-- 0 -->
<circle cx="0.00000" cy="0.00000" r="1.29282" stroke="#ffffff" stroke-width="0" fill="#ffffff" />
<!-- 0 -->
<circle cx="3.23205" cy="-1.86603" r="1.29282" stroke="#ffffff" stroke-width="0" fill="#ffffff" />
<!-- 0 -->
<circle cx="1.36603" cy="5.09808" r="1.29282" stroke="#ffffff" stroke-width="0" fill="#ffffff" />
<!-- 0 -->
<circle cx="-1.86603" cy="6.96410" r="1.29282" stroke="#ffffff" stroke-width="0" fill="#ffffff" />
<!-- 0 -->
<circle cx="-6.96410" cy="-1.86603" r="1.29282" stroke="#ffffff" stroke-width="0" fill="#ffffff" />
<!-- 0 -->
<circle cx="-1.86603" cy="-6.96410" r="1.29282" stroke="#ffffff" stroke-width="0" fill="#ffffff" />
<!-- D1B1D1B1B1D1B1 D1B1B1D1B1D1B1 -->
<polygon points="-4.41506,2.54904 -2.94338,-2.94338 -0.00000,-3.73205 3.23205,1.86603 -1.86603,3.23205 " fill="none" stroke="rgb(25,25,25)" stroke-width="0.517128" />
<!-- D1B1D1B1B1D1B1 D1B1B1D1B1D1B1 -->
<!-- 0 -->
<circle cx="0.00000" cy="0.00000" r="0.517128" stroke="rgb(25,25,25)" stroke-width="0" fill="rgb(25,25,25)" />
<!-- 0 -->
<circle cx="3.23205" cy="-1.86603" r="0.517128" stroke="rgb(25,25,25)" stroke-width="0" fill="rgb(25,25,25)" />
<!-- 0 -->
<circle cx="1.36603" cy="5.09808" r="0.517128" stroke="rgb(25,25,25)" stroke-width="0" fill="rgb(25,25,25)" />
<!-- 0 -->
<circle cx="-1.86603" cy="6.96410" r="0.517128" stroke="rgb(25,25,25)" stroke-width="0" fill="rgb(25,25,25)" />
<!-- 0 -->
<circle cx="-6.96410" cy="-1.86603" r="0.517128" stroke="rgb(25,25,25)" stroke-width="0" fill="rgb(25,25,25)" />
<!-- 0 -->
<circle cx="-1.86603" cy="-6.96410" r="0.517128" stroke="rgb(25,25,25)" stroke-width="0" fill="rgb(25,25,25)" />
</svg>
<!--B1B1D1B1D1B1D1 D1B1D1B1B1D1B1-->
<polygon points="-0.19134,-0.01795 -0.06699,-0.01795 -0.00481,0.01795 -0.12917,0.01795 " style="fill:none;stroke:rgb(25,25,25);stroke-width:0.000464102" fill-opacity="0.5" />
<svg x="-0.11200" y="-0.01392" width="0.02785" height="0.02785" viewBox="-10.64102 -10.64102 21.28203 21.28203">

<!-- B1B1D1B1D1B1D1 D1B1D1B1B1D1B1 -->
<polygon points="-5.09808,0.00000 -3.23205,-1.86603 1.86603,-3.23205 1.86603,3.23205 -1.07735,4.02073 " fill="none" stroke="#ffffff" stroke-width="1.29282" />
<!-- B1B1D1B1D1B1D1 D1B1D1B1B1D1B1 -->
<!-- 0 -->
<circle cx="0.00000" cy="0.00000" r="1.29282" stroke="#ffffff" stroke-width="0" fill="#ffffff" />
<!-- 0 -->
<circle cx="3.73205" cy="0.00000" r="1.29282" stroke="#ffffff" stroke-width="0" fill="#ffffff" />
<!-- 0 -->
<circle cx="-1.36603" cy="-5.09808" r="1.29282" stroke="#ffffff" stroke-width="0" fill="#ffffff" />
<!-- 0 -->
<circle cx="1.86603" cy="6.96410" r="1.29282" stroke="#ffffff" stroke-width="0" fill="#ffffff" />
<!-- 0 -->
<circle cx="-5.09808" cy="5.09808" r="1.29282" stroke="#ffffff" stroke-width="0" fill="#ffffff" />
<!-- 0 -->
<circle cx="-5.09808" cy="-5.09808" r="1.29282" stroke="#ffffff" stroke-width="0" fill="#ffffff" />
<!-- B1B1D1B1D1B1D1 D1B1D1B1B1D1B1 -->
<polygon points="-5.09808,0.00000 -3.23205,-1.86603 1.86603,-3.23205 1.86603,3.23205 -1.07735,4.02073 " fill="none" stroke="rgb(25,25,25)" stroke-width="0.517128" />
<!-- B1B1D1B1D1B1D1 D1B1D1B1B1D1B1 -->
<!-- 0 -->
<circle cx="0.00000" cy="0.00000" r="0.517128" stroke="rgb(25,25,25)" stroke-width="0" fill="rgb(25,25,25)" />
<!-- 0 -->
<circle cx="3.73205" cy="0.00000" r="0.517128" stroke="rgb(25,25,25)" stroke-width="0" fill="rgb(25,25,25)" />
<!-- 0 -->
<circle cx="-1.36603" cy="-5.09808" r="0.517128" stroke="rgb(25,25,25)" stroke-width="0" fill="rgb(25,25,25)" />
<!-- 0 -->
<circle cx="1.86603" cy="6.96410" r="0.517128" stroke="rgb(25,25,25)" stroke-width="0" fill="rgb(25,25,25)" />
<!-- 0 -->
<circle cx="-5.09808" cy="5.09808" r="0.517128" stroke="rgb(25,25,25)" stroke-width="0" fill="rgb(25,25,25)" />
<!-- 0 -->
<circle cx="-5.09808" cy="-5.09808" r="0.517128" stroke="rgb(25,25,25)" stroke-width="0" fill="rgb(25,25,25)" />
</svg>
<!--D1B1D1B1B1D1B1 B1B1D1B1D1B1D1-->
<polygon points="-0.17468,-0.08013 -0.10289,-0.08013 0.00481,-0.01795 -0.06699,-0.01795 " style="fill:none;stroke:rgb(25,25,25);stroke-width:0.000464102" fill-opacity="0.5" />
<svg x="-0.09886" y="-0.06296" width="0.02785" height="0.02785" viewBox="-10.64102 -10.64102 21.28203 21.28203">

<!-- D1B1D1B1B1D1B1 B1B1D1B1D1B1D1 -->
<polygon points="4.41506,-2.54904 2.94338,2.94338 0.00000,3.73205 -3.23205,-1.86603 1.86603,-3.23205 " fill="none" stroke="#ffffff" stroke-width="1.29282" />
<!-- D1B1D1B1B1D1B1 B1B1D1B1D1B1D1 -->
<!-- 0 -->
<circle cx="0.00000" cy="0.00000" r="1.29282" stroke="#ffffff" stroke-width="0" fill="#ffffff" />
<!-- 0 -->
<circle cx="-3.23205" cy="1.86603" r="1.29282" stroke="#ffffff" stroke-width="0" fill="#ffffff" />
<!-- 0 -->
<circle cx="-1.36603" cy="-5.09808" r="1.29282" stroke="#ffffff" stroke-width="0" fill="#ffffff" />
<!-- 0 -->
<circle cx="1.86603" cy="6.96410" r="1.29282" stroke="#ffffff" stroke-width="0" fill="#ffffff" />
<!-- 0 -->
<circle cx="6.96410" cy="1.86603" r="1.29282" stroke="#ffffff" stroke-width="0" fill="#ffffff" />
<!-- 0 -->
<circle cx="1.86603" cy="-6.96410" r="1.29282" stroke="#ffffff" stroke-width="0" fill="#ffffff" />
<!-- D1B1D1B1B1D1B1 B1B1D1B1D1B1D1 -->
<polygon points="4.41506,-2.54904 2.94338,2.94338 0.00000,3.73205 -3.23205,-1.86603 1.86603,-3.23205 " fill="none" stroke="rgb(25,25,25)" stroke-width="0.517128" />
<!-- D1B1D1B1B1D1B1 B1B1D1B1D1B1D1 -->
<!-- 0 -->
<circle cx="0.00000" cy="0.00000" r="0.517128" stroke="rgb(25,25,25)" stroke-width="0" fill="rgb(25,25,25)" />
<!-- 0 -->
<circle cx="-3.23205" cy="1.86603" r="0.517128" stroke="rgb(25,25,25)" stroke-width="0" fill="rgb(25,25,25)" />
<!-- 0 -->
<circle cx="-1.36603" cy="-5.09808" r="0.517128" stroke="rgb(25,25,25)" stroke-width="0" fill="rgb(25,25,25)" />
<!-- 0 -->
<circle cx="1.86603" cy="6.96410" r="0.517128" stroke="rgb(25,25,25)" stroke-width="0" fill="rgb(25,25,25)" />
<!-- 0 -->
<circle cx="6.96410" cy="1.86603" r="0.517128" stroke="rgb(25,25,25)" stroke-width="0" fill="rgb(25,25,25)" />
<!-- 0 -->
<circle cx="1.86603" cy="-6.96410" r="0.517128" stroke="rgb(25,25,25)" stroke-width="0" fill="rgb(25,25,25)" />
</svg>
<!--D1B1B1D1B1D1B1 D1B1D1B1B1D1B1-->
<polygon points="0.00481,-0.01795 0.12917,-0.01795 0.19134,0.01795 0.06699,0.01795 " style="fill:none;stroke:rgb(25,25,25);stroke-width:0.000464102" fill-opacity="0.5" />
<svg x="0.08415" y="-0.01392" width="0.02785" height="0.02785" viewBox="-10.64102 -10.64102 21.28203 21.28203">

<!-- D1B1B1D1B1D1B1 D1B1D1B1B1D1B1 -->
<polygon points="1.07735,-4.02073 5.09808,0.00000 3.23205,1.86603 -1.86603,3.23205 -1.86603,-3.23205 " fill="none" stroke="#ffffff" stroke-width="1.29282" />
<!-- D1B1B1D1B1D1B1 D1B1D1B1B1D1B1 -->
<!-- 0 -->
<circle cx="0.00000" cy="0.00000" r="1.29282" stroke="#ffffff" stroke-width="0" fill="#ffffff" />
<!-- 0 -->
<circle cx="-3.73205" cy="0.00000" r="1.29282" stroke="#ffffff" stroke-width="0" fill="#ffffff" />
<!-- 0 -->
<circle cx="1.36603" cy="5.09808" r="1.29282" stroke="#ffffff" stroke-width="0" fill="#ffffff" />
<!-- 0 -->
<circle cx="5.09808" cy="5.09808" r="1.29282" stroke="#ffffff" stroke-width="0" fill="#ffffff" />
<!-- 0 -->
<circle cx="5.09808" cy="-5.09808" r="1.29282" stroke="#ffffff" stroke-width="0" fill="#ffffff" />
<!-- 0 -->
<circle cx="-1.86603" cy="-6.96410" r="1.29282" stroke="#ffffff" stroke-width="0" fill="#ffffff" />
<!-- D1B1B1D1B1D1B1 D1B1D1B1B1D1B1 -->
<polygon points="1.07735,-4.02073 5.09808,0.00000 3.23205,1.86603 -1.86603,3.23205 -1.86603,-3.23205 " fill="none" stroke="rgb(25,25,25)" stroke-width="0.517128" />
<!-- D1B1B1D1B1D1B1 D1B1D1B1B1D1B1 -->
<!-- 0 -->
<circle cx="0.00000" cy="0.00000" r="0.517128" stroke="rgb(25,25,25)" stroke-width="0" fill="rgb(25,25,25)" />
<!-- 0 -->
<circle cx="-3.73205" cy="0.00000" r="0.517128" stroke="rgb(25,25,25)" stroke-width="0" fill="rgb(25,25,25)" />
<!-- 0 -->
<circle cx="1.36603" cy="5.09808" r="0.517128" stroke="rgb(25,25,25)" stroke-width="0" fill="rgb(25,25,25)" />
<!-- 0 -->
<circle cx="5.09808" cy="5.09808" r="0.517128" stroke="rgb(25,25,25)" stroke-width="0" fill="rgb(25,25,25)" />
<!-- 0 -->
<circle cx="5.09808" cy="-5.09808" r="0.517128" stroke="rgb(25,25,25)" stroke-width="0" fill="rgb(25,25,25)" />
<!-- 0 -->
<circle cx="-1.86603" cy="-6.96410" r="0.517128" stroke="rgb(25,25,25)" stroke-width="0" fill="rgb(25,25,25)" />
</svg>
<!--D1B1D1B1B1D1B1 B1D1B1D1B1B1D1-->
<polygon points="0.10289,0.08013 0.17468,0.08013 0.23686,0.11603 0.16506,0.11603 " style="fill:none;stroke:rgb(25,25,25);stroke-width:0.000464102" fill-opacity="0.5" />
<svg x="0.15595" y="0.08415" width="0.02785" height="0.02785" viewBox="-10.64102 -10.64102 21.28203 21.28203">

<!-- D1B1D1B1B1D1B1 B1D1B1D1B1B1D1 -->
<polygon points="-4.41506,2.54904 -2.94338,-2.94338 -0.00000,-3.73205 3.23205,1.86603 -3.73205,3.73205 " fill="none" stroke="#ffffff" stroke-width="1.29282" />
<!-- D1B1D1B1B1D1B1 B1D1B1D1B1B1D1 -->
<!-- 0 -->
<circle cx="0.00000" cy="0.00000" r="1.29282" stroke="#ffffff" stroke-width="0" fill="#ffffff" />
<!-- 0 -->
<circle cx="3.23205" cy="-1.86603" r="1.29282" stroke="#ffffff" stroke-width="0" fill="#ffffff" />
<!-- 0 -->
<circle cx="1.36603" cy="5.09808" r="1.29282" stroke="#ffffff" stroke-width="0" fill="#ffffff" />
<!-- 0 -->
<circle cx="-6.96410" cy="-1.86603" r="1.29282" stroke="#ffffff" stroke-width="0" fill="#ffffff" />
<!-- 0 -->
<circle cx="-1.86603" cy="-6.96410" r="1.29282" stroke="#ffffff" stroke-width="0" fill="#ffffff" />
<!-- 0 -->
<circle cx="-8.83013" cy="5.09808" r="1.29282" stroke="#ffffff" stroke-width="0" fill="#ffffff" />
<!-- D1B1D1B1B1D1B1 B1D1B1D1B1B1D1 -->
<polygon points="-4.41506,2.54904 -2.94338,-2.94338 -0.00000,-3.73205 3.23205,1.86603 -3.73205,3.73205 " fill="none" stroke="rgb(25,25,25)" stroke-width="0.517128" />
<!-- D1B1D1B1B1D1B1 B1D1B1D1B1B1D1 -->
<!-- 0 -->
<circle cx="0.00000" cy="0.00000" r="0.517128" stroke="rgb(25,25,25)" stroke-width="0" fill="rgb(25,25,25)" />
<!-- 0 -->
<circle cx="3.23205" cy="-1.86603" r="0.517128" stroke="rgb(25,25,25)" stroke-width="0" fill="rgb(25,25,25)" />
<!-- 0 -->
<circle cx="1.36603" cy="5.09808" r="0.517128" stroke="rgb(25,25,25)" stroke-width="0" fill="rgb(25,25,25)" />
<!-- 0 -->
<circle cx="-6.96410" cy="-1.86603" r="0.517128" stroke="rgb(25,25,25)" stroke-width="0" fill="rgb(25,25,25)" />
<!-- 0 -->
<circle cx="-1.86603" cy="-6.96410" r="0.517128" stroke="rgb(25,25,25)" stroke-width="0" fill="rgb(25,25,25)" />
<!-- 0 -->
<circle cx="-8.83013" cy="5.09808" r="0.517128" stroke="rgb(25,25,25)" stroke-width="0" fill="rgb(25,25,25)" />
</svg>
<!--B1D1B1B1D1B1D1 D1B1D1B1B1D1B1-->
<polygon points="-0.26314,-0.01795 -0.19134,-0.01795 -0.12917,0.01795 -0.20096,0.01795 " style="fill:none;stroke:rgb(25,25,25);stroke-width:0.000464102" fill-opacity="0.5" />
<svg x="-0.21008" y="-0.01392" width="0.02785" height="0.02785" viewBox="-10.64102 -10.64102 21.28203 21.28203">

<!-- B1D1B1B1D1B1D1 D1B1D1B1B1D1B1 -->
<polygon points="-5.09808,0.00000 -5.09808,-1.36603 1.86603,-3.23205 1.86603,3.23205 -1.07735,4.02073 " fill="none" stroke="#ffffff" stroke-width="1.29282" />
<!-- B1D1B1B1D1B1D1 D1B1D1B1B1D1B1 -->
<!-- 0 -->
<circle cx="0.00000" cy="0.00000" r="1.29282" stroke="#ffffff" stroke-width="0" fill="#ffffff" />
<!-- 0 -->
<circle cx="3.73205" cy="0.00000" r="1.29282" stroke="#ffffff" stroke-width="0" fill="#ffffff" />
<!-- 0 -->
<circle cx="-1.36603" cy="-5.09808" r="1.29282" stroke="#ffffff" stroke-width="0" fill="#ffffff" />
<!-- 0 -->
<circle cx="1.86603" cy="6.96410" r="1.29282" stroke="#ffffff" stroke-width="0" fill="#ffffff" />
<!-- 0 -->
<circle cx="-5.09808" cy="5.09808" r="1.29282" stroke="#ffffff" stroke-width="0" fill="#ffffff" />
<!-- 0 -->
<circle cx="-10.19615" cy="0.00000" r="1.29282" stroke="#ffffff" stroke-width="0" fill="#ffffff" />
<!-- B1D1B1B1D1B1D1 D1B1D1B1B1D1B1 -->
<polygon points="-5.09808,0.00000 -5.09808,-1.36603 1.86603,-3.23205 1.86603,3.23205 -1.07735,4.02073 " fill="none" stroke="rgb(25,25,25)" stroke-width="0.517128" />
<!-- B1D1B1B1D1B1D1 D1B1D1B1B1D1B1 -->
<!-- 0 -->
<circle cx="0.00000" cy="0.00000" r="0.517128" stroke="rgb(25,25,25)" stroke-width="0" fill="rgb(25,25,25)" />
<!-- 0 -->
<circle cx="3.73205" cy="0.00000" r="0.517128" stroke="rgb(25,25,25)" stroke-width="0" fill="rgb(25,25,25)" />
<!-- 0 -->
<circle cx="-1.36603" cy="-5.09808" r="0.517128" stroke="rgb(25,25,25)" stroke-width="0" fill="rgb(25,25,25)" />
<!-- 0 -->
<circle cx="1.86603" cy="6.96410" r="0.517128" stroke="rgb(25,25,25)" stroke-width="0" fill="rgb(25,25,25)" />
<!-- 0 -->
<circle cx="-5.09808" cy="5.09808" r="0.517128" stroke="rgb(25,25,25)" stroke-width="0" fill="rgb(25,25,25)" />
<!-- 0 -->
<circle cx="-10.19615" cy="0.00000" r="0.517128" stroke="rgb(25,25,25)" stroke-width="0" fill="rgb(25,25,25)" />
</svg>
<!--D1B1D1B1B1D1B1 B1D1B1B1D1B1D1-->
<polygon points="-0.23686,-0.11603 -0.16506,-0.11603 -0.10289,-0.08013 -0.17468,-0.08013 " style="fill:none;stroke:rgb(25,25,25);stroke-width:0.000464102" fill-opacity="0.5" />
<svg x="-0.18380" y="-0.11200" width="0.02785" height="0.02785" viewBox="-10.64102 -10.64102 21.28203 21.28203">

<!-- D1B1D1B1B1D1B1 B1D1B1B1D1B1D1 -->
<polygon points="4.41506,-2.54904 2.94338,2.94338 0.00000,3.73205 -3.23205,-1.86603 3.73205,-3.73205 " fill="none" stroke="#ffffff" stroke-width="1.29282" />
<!-- D1B1D1B1B1D1B1 B1D1B1B1D1B1D1 -->
<!-- 0 -->
<circle cx="0.00000" cy="0.00000" r="1.29282" stroke="#ffffff" stroke-width="0" fill="#ffffff" />
<!-- 0 -->
<circle cx="-3.23205" cy="1.86603" r="1.29282" stroke="#ffffff" stroke-width="0" fill="#ffffff" />
<!-- 0 -->
<circle cx="-1.36603" cy="-5.09808" r="1.29282" stroke="#ffffff" stroke-width="0" fill="#ffffff" />
<!-- 0 -->
<circle cx="1.86603" cy="6.96410" r="1.29282" stroke="#ffffff" stroke-width="0" fill="#ffffff" />
<!-- 0 -->
<circle cx="6.96410" cy="1.86603" r="1.29282" stroke="#ffffff" stroke-width="0" fill="#ffffff" />
<!-- 0 -->
<circle cx="8.83013" cy="-5.09808" r="1.29282" stroke="#ffffff" stroke-width="0" fill="#ffffff" />
<!-- D1B1D1B1B1D1B1 B1D1B1B1D1B1D1 -->
<polygon points="4.41506,-2.54904 2.94338,2.94338 0.00000,3.73205 -3.23205,-1.86603 3.73205,-3.73205 " fill="none" stroke="rgb(25,25,25)" stroke-width="0.517128" />
<!-- D1B1D1B1B1D1B1 B1D1B1B1D1B1D1 -->
<!-- 0 -->
<circle cx="0.00000" cy="0.00000" r="0.517128" stroke="rgb(25,25,25)" stroke-width="0" fill="rgb(25,25,25)" />
<!-- 0 -->
<circle cx="-3.23205" cy="1.86603" r="0.517128" stroke="rgb(25,25,25)" stroke-width="0" fill="rgb(25,25,25)" />
<!-- 0 -->
<circle cx="-1.36603" cy="-5.09808" r="0.517128" stroke="rgb(25,25,25)" stroke-width="0" fill="rgb(25,25,25)" />
<!-- 0 -->
<circle cx="1.86603" cy="6.96410" r="0.517128" stroke="rgb(25,25,25)" stroke-width="0" fill="rgb(25,25,25)" />
<!-- 0 -->
<circle cx="6.96410" cy="1.86603" r="0.517128" stroke="rgb(25,25,25)" stroke-width="0" fill="rgb(25,25,25)" />
<!-- 0 -->
<circle cx="8.83013" cy="-5.09808" r="0.517128" stroke="rgb(25,25,25)" stroke-width="0" fill="rgb(25,25,25)" />
</svg>
<!--B1D1B1D1B1B1D1 D1B1D1B1B1D1B1-->
<polygon points="0.12917,-0.01795 0.20096,-0.01795 0.26314,0.01795 0.19134,0.01795 " style="fill:none;stroke:rgb(25,25,25);stroke-width:0.000464102" fill-opacity="0.5" />
<svg x="0.18223" y="-0.01392" width="0.02785" height="0.02785" viewBox="-10.64102 -10.64102 21.28203 21.28203">

<!-- B1D1B1D1B1B1D1 D1B1D1B1B1D1B1 -->
<polygon points="1.07735,-4.02073 5.09808,0.00000 5.09808,1.36603 -1.86603,3.23205 -1.86603,-3.23205 " fill="none" stroke="#ffffff" stroke-width="1.29282" />
<!-- B1D1B1D1B1B1D1 D1B1D1B1B1D1B1 -->
<!-- 0 -->
<circle cx="0.00000" cy="0.00000" r="1.29282" stroke="#ffffff" stroke-width="0" fill="#ffffff" />
<!-- 0 -->
<circle cx="-3.73205" cy="0.00000" r="1.29282" stroke="#ffffff" stroke-width="0" fill="#ffffff" />
<!-- 0 -->
<circle cx="1.36603" cy="5.09808" r="1.29282" stroke="#ffffff" stroke-width="0" fill="#ffffff" />
<!-- 0 -->
<circle cx="5.09808" cy="-5.09808" r="1.29282" stroke="#ffffff" stroke-width="0" fill="#ffffff" />
<!-- 0 -->
<circle cx="-1.86603" cy="-6.96410" r="1.29282" stroke="#ffffff" stroke-width="0" fill="#ffffff" />
<!-- 0 -->
<circle cx="10.19615" cy="0.00000" r="1.29282" stroke="#ffffff" stroke-width="0" fill="#ffffff" />
<!-- B1D1B1D1B1B1D1 D1B1D1B1B1D1B1 -->
<polygon points="1.07735,-4.02073 5.09808,0.00000 5.09808,1.36603 -1.86603,3.23205 -1.86603,-3.23205 " fill="none" stroke="rgb(25,25,25)" stroke-width="0.517128" />
<!-- B1D1B1D1B1B1D1 D1B1D1B1B1D1B1 -->
<!-- 0 -->
<circle cx="0.00000" cy="0.00000" r="0.517128" stroke="rgb(25,25,25)" stroke-width="0" fill="rgb(25,25,25)" />
<!-- 0 -->
<circle cx="-3.73205" cy="0.00000" r="0.517128" stroke="rgb(25,25,25)" stroke-width="0" fill="rgb(25,25,25)" />
<!-- 0 -->
<circle cx="1.36603" cy="5.09808" r="0.517128" stroke="rgb(25,25,25)" stroke-width="0" fill="rgb(25,25,25)" />
<!-- 0 -->
<circle cx="5.09808" cy="-5.09808" r="0.517128" stroke="rgb(25,25,25)" stroke-width="0" fill="rgb(25,25,25)" />
<!-- 0 -->
<circle cx="-1.86603" cy="-6.96410" r="0.517128" stroke="rgb(25,25,25)" stroke-width="0" fill="rgb(25,25,25)" />
<!-- 0 -->
<circle cx="10.19615" cy="0.00000" r="0.517128" stroke="rgb(25,25,25)" stroke-width="0" fill="rgb(25,25,25)" />
</svg>
<!--B1D1B1B1D1B1D1 D1B1B1D1B1D1B1-->
<polygon points="-0.20096,0.01795 -0.12917,0.01795 -0.02147,0.08013 -0.09327,0.08013 " style="fill:none;stroke:rgb(25,25,25);stroke-width:0.000464102" fill-opacity="0.5" />
<svg x="-0.12514" y="0.03512" width="0.02785" height="0.02785" viewBox="-10.64102 -10.64102 21.28203 21.28203">

<!-- B1D1B1B1D1B1D1 D1B1B1D1B1D1B1 -->
<polygon points="-2.54904,-4.41506 0.00000,-3.73205 1.86603,-0.50000 1.86603,3.23205 -1.07735,4.02073 -4.02073,1.07735 " fill="none" stroke="#ffffff" stroke-width="1.29282" />
<!-- B1D1B1B1D1B1D1 D1B1B1D1B1D1B1 -->
<!-- 0 -->
<circle cx="0.00000" cy="0.00000" r="1.29282" stroke="#ffffff" stroke-width="0" fill="#ffffff" />
<!-- 0 -->
<circle cx="3.73205" cy="0.00000" r="1.29282" stroke="#ffffff" stroke-width="0" fill="#ffffff" />
<!-- 0 -->
<circle cx="3.23205" cy="-1.86603" r="1.29282" stroke="#ffffff" stroke-width="0" fill="#ffffff" />
<!-- 0 -->
<circle cx="1.86603" cy="6.96410" r="1.29282" stroke="#ffffff" stroke-width="0" fill="#ffffff" />
<!-- 0 -->
<circle cx="-5.09808" cy="5.09808" r="1.29282" stroke="#ffffff" stroke-width="0" fill="#ffffff" />
<!-- 0 -->
<circle cx="-6.96410" cy="-1.86603" r="1.29282" stroke="#ffffff" stroke-width="0" fill="#ffffff" />
<!-- 0 -->
<circle cx="1.86603" cy="-6.96410" r="1.29282" stroke="#ffffff" stroke-width="0" fill="#ffffff" />
<!-- B1D1B1B1D1B1D1 D1B1B1D1B1D1B1 -->
<polygon points="-2.54904,-4.41506 0.00000,-3.73205 1.86603,-0.50000 1.86603,3.23205 -1.07735,4.02073 -4.02073,1.07735 " fill="none" stroke="rgb(25,25,25)" stroke-width="0.517128" />
<!-- B1D1B1B1D1B1D1 D1B1B1D1B1D1B1 -->
<!-- 0 -->
<circle cx="0.00000" cy="0.00000" r="0.517128" stroke="rgb(25,25,25)" stroke-width="0" fill="rgb(25,25,25)" />
<!-- 0 -->
<circle cx="3.73205" cy="0.00000" r="0.517128" stroke="rgb(25,25,25)" stroke-width="0" fill="rgb(25,25,25)" />
<!-- 0 -->
<circle cx="3.23205" cy="-1.86603" r="0.517128" stroke="rgb(25,25,25)" stroke-width="0" fill="rgb(25,25,25)" />
<!-- 0 -->
<circle cx="1.86603" cy="6.96410" r="0.517128" stroke="rgb(25,25,25)" stroke-width="0" fill="rgb(25,25,25)" />
<!-- 0 -->
<circle cx="-5.09808" cy="5.09808" r="0.517128" stroke="rgb(25,25,25)" stroke-width="0" fill="rgb(25,25,25)" />
<!-- 0 -->
<circle cx="-6.96410" cy="-1.86603" r="0.517128" stroke="rgb(25,25,25)" stroke-width="0" fill="rgb(25,25,25)" />
<!-- 0 -->
<circle cx="1.86603" cy="-6.96410" r="0.517128" stroke="rgb(25,25,25)" stroke-width="0" fill="rgb(25,25,25)" />
</svg>
<!--B1B1D1B1D1B1D1 B1D1B1D1B1B1D1-->
<polygon points="-0.02147,0.08013 0.10289,0.08013 0.16506,0.11603 0.04071,0.11603 " style="fill:none;stroke:rgb(25,25,25);stroke-width:0.000464102" fill-opacity="0.5" />
<svg x="0.05787" y="0.08415" width="0.02785" height="0.02785" viewBox="-10.64102 -10.64102 21.28203 21.28203">

<!-- B1B1D1B1D1B1D1 B1D1B1D1B1B1D1 -->
<polygon points="-2.94338,-2.94338 0.00000,-3.73205 1.86603,-0.50000 1.86603,3.23205 0.00000,5.09808 -4.02073,1.07735 " fill="none" stroke="#ffffff" stroke-width="1.29282" />
<!-- B1B1D1B1D1B1D1 B1D1B1D1B1B1D1 -->
<!-- 0 -->
<circle cx="0.00000" cy="0.00000" r="1.29282" stroke="#ffffff" stroke-width="0" fill="#ffffff" />
<!-- 0 -->
<circle cx="3.73205" cy="0.00000" r="1.29282" stroke="#ffffff" stroke-width="0" fill="#ffffff" />
<!-- 0 -->
<circle cx="3.23205" cy="-1.86603" r="1.29282" stroke="#ffffff" stroke-width="0" fill="#ffffff" />
<!-- 0 -->
<circle cx="5.09808" cy="5.09808" r="1.29282" stroke="#ffffff" stroke-width="0" fill="#ffffff" />
<!-- 0 -->
<circle cx="-5.09808" cy="5.09808" r="1.29282" stroke="#ffffff" stroke-width="0" fill="#ffffff" />
<!-- 0 -->
<circle cx="-6.96410" cy="-1.86603" r="1.29282" stroke="#ffffff" stroke-width="0" fill="#ffffff" />
<!-- 0 -->
<circle cx="-1.86603" cy="-6.96410" r="1.29282" stroke="#ffffff" stroke-width="0" fill="#ffffff" />
<!-- B1B1D1B1D1B1D1 B1D1B1D1B1B1D1 -->
<polygon points="-2.94338,-2.94338 0.00000,-3.73205 1.86603,-0.50000 1.86603,3.23205 0.00000,5.09808 -4.02073,1.07735 " fill="none" stroke="rgb(25,25,25)" stroke-width="0.517128" />
<!-- B1B1D1B1D1B1D1 B1D1B1D1B1B1D1 -->
<!-- 0 -->
<circle cx="0.00000" cy="0.00000" r="0.517128" stroke="rgb(25,25,25)" stroke-width="0" fill="rgb(25,25,25)" />
<!-- 0 -->
<circle cx="3.73205" cy="0.00000" r="0.517128" stroke="rgb(25,25,25)" stroke-width="0" fill="rgb(25,25,25)" />
<!-- 0 -->
<circle cx="3.23205" cy="-1.86603" r="0.517128" stroke="rgb(25,25,25)" stroke-width="0" fill="rgb(25,25,25)" />
<!-- 0 -->
<circle cx="5.09808" cy="5.09808" r="0.517128" stroke="rgb(25,25,25)" stroke-width="0" fill="rgb(25,25,25)" />
<!-- 0 -->
<circle cx="-5.09808" cy="5.09808" r="0.517128" stroke="rgb(25,25,25)" stroke-width="0" fill="rgb(25,25,25)" />
<!-- 0 -->
<circle cx="-6.96410" cy="-1.86603" r="0.517128" stroke="rgb(25,25,25)" stroke-width="0" fill="rgb(25,25,25)" />
<!-- 0 -->
<circle cx="-1.86603" cy="-6.96410" r="0.517128" stroke="rgb(25,25,25)" stroke-width="0" fill="rgb(25,25,25)" />
</svg>
<!--B1D1B1D1B1B1D1 B1B1D1B1D1B1D1-->
<polygon points="0.02147,-0.08013 0.09327,-0.08013 0.20096,-0.01795 0.12917,-0.01795 " style="fill:none;stroke:rgb(25,25,25);stroke-width:0.000464102" fill-opacity="0.5" />
<svg x="0.09729" y="-0.06296" width="0.02785" height="0.02785" viewBox="-10.64102 -10.64102 21.28203 21.28203">

<!-- B1D1B1D1B1B1D1 B1B1D1B1D1B1D1 -->
<polygon points="1.07735,-4.02073 4.02073,-1.07735 2.54904,4.41506 0.00000,3.73205 -1.86603,0.50000 -1.86603,-3.23205 " fill="none" stroke="#ffffff" stroke-width="1.29282" />
<!-- B1D1B1D1B1B1D1 B1B1D1B1D1B1D1 -->
<!-- 0 -->
<circle cx="0.00000" cy="0.00000" r="1.29282" stroke="#ffffff" stroke-width="0" fill="#ffffff" />
<!-- 0 -->
<circle cx="-3.23205" cy="1.86603" r="1.29282" stroke="#ffffff" stroke-width="0" fill="#ffffff" />
<!-- 0 -->
<circle cx="-3.73205" cy="0.00000" r="1.29282" stroke="#ffffff" stroke-width="0" fill="#ffffff" />
<!-- 0 -->
<circle cx="-1.86603" cy="6.96410" r="1.29282" stroke="#ffffff" stroke-width="0" fill="#ffffff" />
<!-- 0 -->
<circle cx="6.96410" cy="1.86603" r="1.29282" stroke="#ffffff" stroke-width="0" fill="#ffffff" />
<!-- 0 -->
<circle cx="5.09808" cy="-5.09808" r="1.29282" stroke="#ffffff" stroke-width="0" fill="#ffffff" />
<!-- 0 -->
<circle cx="-1.86603" cy="-6.96410" r="1.29282" stroke="#ffffff" stroke-width="0" fill="#ffffff" />
<!-- B1D1B1D1B1B1D1 B1B1D1B1D1B1D1 -->
<polygon points="1.07735,-4.02073 4.02073,-1.07735 2.54904,4.41506 0.00000,3.73205 -1.86603,0.50000 -1.86603,-3.23205 " fill="none" stroke="rgb(25,25,25)" stroke-width="0.517128" />
<!-- B1D1B1D1B1B1D1 B1B1D1B1D1B1D1 -->
<!-- 0 -->
<circle cx="0.00000" cy="0.00000" r="0.517128" stroke="rgb(25,25,25)" stroke-width="0" fill="rgb(25,25,25)" />
<!-- 0 -->
<circle cx="-3.23205" cy="1.86603" r="0.517128" stroke="rgb(25,25,25)" stroke-width="0" fill="rgb(25,25,25)" />
<!-- 0 -->
<circle cx="-3.73205" cy="0.00000" r="0.517128" stroke="rgb(25,25,25)" stroke-width="0" fill="rgb(25,25,25)" />
<!-- 0 -->
<circle cx="-1.86603" cy="6.96410" r="0.517128" stroke="rgb(25,25,25)" stroke-width="0" fill="rgb(25,25,25)" />
<!-- 0 -->
<circle cx="6.96410" cy="1.86603" r="0.517128" stroke="rgb(25,25,25)" stroke-width="0" fill="rgb(25,25,25)" />
<!-- 0 -->
<circle cx="5.09808" cy="-5.09808" r="0.517128" stroke="rgb(25,25,25)" stroke-width="0" fill="rgb(25,25,25)" />
<!-- 0 -->
<circle cx="-1.86603" cy="-6.96410" r="0.517128" stroke="rgb(25,25,25)" stroke-width="0" fill="rgb(25,25,25)" />
</svg>
<!--D1B1B1D1B1D1B1 B1D1B1B1D1B1D1-->
<polygon points="-0.16506,-0.11603 -0.04071,-0.11603 0.02147,-0.08013 -0.10289,-0.08013 " style="fill:none;stroke:rgb(25,25,25);stroke-width:0.000464102" fill-opacity="0.5" />
<svg x="-0.08572" y="-0.11200" width="0.02785" height="0.02785" viewBox="-10.64102 -10.64102 21.28203 21.28203">

<!-- D1B1B1D1B1D1B1 B1D1B1B1D1B1D1 -->
<polygon points="0.00000,-5.09808 4.02073,-1.07735 2.94338,2.94338 0.00000,3.73205 -1.86603,0.50000 -1.86603,-3.23205 " fill="none" stroke="#ffffff" stroke-width="1.29282" />
<!-- D1B1B1D1B1D1B1 B1D1B1B1D1B1D1 -->
<!-- 0 -->
<circle cx="0.00000" cy="0.00000" r="1.29282" stroke="#ffffff" stroke-width="0" fill="#ffffff" />
<!-- 0 -->
<circle cx="-3.23205" cy="1.86603" r="1.29282" stroke="#ffffff" stroke-width="0" fill="#ffffff" />
<!-- 0 -->
<circle cx="-3.73205" cy="0.00000" r="1.29282" stroke="#ffffff" stroke-width="0" fill="#ffffff" />
<!-- 0 -->
<circle cx="1.86603" cy="6.96410" r="1.29282" stroke="#ffffff" stroke-width="0" fill="#ffffff" />
<!-- 0 -->
<circle cx="6.96410" cy="1.86603" r="1.29282" stroke="#ffffff" stroke-width="0" fill="#ffffff" />
<!-- 0 -->
<circle cx="5.09808" cy="-5.09808" r="1.29282" stroke="#ffffff" stroke-width="0" fill="#ffffff" />
<!-- 0 -->
<circle cx="-5.09808" cy="-5.09808" r="1.29282" stroke="#ffffff" stroke-width="0" fill="#ffffff" />
<!-- D1B1B1D1B1D1B1 B1D1B1B1D1B1D1 -->
<polygon points="0.00000,-5.09808 4.02073,-1.07735 2.94338,2.94338 0.00000,3.73205 -1.86603,0.50000 -1.86603,-3.23205 " fill="none" stroke="rgb(25,25,25)" stroke-width="0.517128" />
<!-- D1B1B1D1B1D1B1 B1D1B1B1D1B1D1 -->
<!-- 0 -->
<circle cx="0.00000" cy="0.00000" r="0.517128" stroke="rgb(25,25,25)" stroke-width="0" fill="rgb(25,25,25)" />
<!-- 0 -->
<circle cx="-3.23205" cy="1.86603" r="0.517128" stroke="rgb(25,25,25)" stroke-width="0" fill="rgb(25,25,25)" />
<!-- 0 -->
<circle cx="-3.73205" cy="0.00000" r="0.517128" stroke="rgb(25,25,25)" stroke-width="0" fill="rgb(25,25,25)" />
<!-- 0 -->
<circle cx="1.86603" cy="6.96410" r="0.517128" stroke="rgb(25,25,25)" stroke-width="0" fill="rgb(25,25,25)" />
<!-- 0 -->
<circle cx="6.96410" cy="1.86603" r="0.517128" stroke="rgb(25,25,25)" stroke-width="0" fill="rgb(25,25,25)" />
<!-- 0 -->
<circle cx="5.09808" cy="-5.09808" r="0.517128" stroke="rgb(25,25,25)" stroke-width="0" fill="rgb(25,25,25)" />
<!-- 0 -->
<circle cx="-5.09808" cy="-5.09808" r="0.517128" stroke="rgb(25,25,25)" stroke-width="0" fill="rgb(25,25,25)" />
</svg>
<!--B1D1B1B1D1B1D1 B1D1B1D1B1B1D1-->
<polygon points="-0.09327,0.08013 -0.02147,0.08013 0.04071,0.11603 -0.03109,0.11603 " style="fill:none;stroke:rgb(25,25,25);stroke-width:0.000464102" fill-opacity="0.5" />
<svg x="-0.04020" y="0.08415" width="0.02785" height="0.02785" viewBox="-10.64102 -10.64102 21.28203 21.28203">

<!-- B1D1B1B1D1B1D1 B1D1B1D1B1B1D1 -->
<polygon points="-2.54904,-4.41506 0.00000,-3.73205 1.86603,-0.50000 1.86603,3.23205 0.00000,5.09808 -4.02073,1.07735 " fill="none" stroke="#ffffff" stroke-width="1.29282" />
<!-- B1D1B1B1D1B1D1 B1D1B1D1B1B1D1 -->
<!-- 0 -->
<circle cx="0.00000" cy="0.00000" r="1.29282" stroke="#ffffff" stroke-width="0" fill="#ffffff" />
<!-- 0 -->
<circle cx="3.73205" cy="0.00000" r="1.29282" stroke="#ffffff" stroke-width="0" fill="#ffffff" />
<!-- 0 -->
<circle cx="3.23205" cy="-1.86603" r="1.29282" stroke="#ffffff" stroke-width="0" fill="#ffffff" />
<!-- 0 -->
<circle cx="5.09808" cy="5.09808" r="1.29282" stroke="#ffffff" stroke-width="0" fill="#ffffff" />
<!-- 0 -->
<circle cx="-5.09808" cy="5.09808" r="1.29282" stroke="#ffffff" stroke-width="0" fill="#ffffff" />
<!-- 0 -->
<circle cx="-6.96410" cy="-1.86603" r="1.29282" stroke="#ffffff" stroke-width="0" fill="#ffffff" />
<!-- 0 -->
<circle cx="1.86603" cy="-6.96410" r="1.29282" stroke="#ffffff" stroke-width="0" fill="#ffffff" />
<!-- B1D1B1B1D1B1D1 B1D1B1D1B1B1D1 -->
<polygon points="-2.54904,-4.41506 0.00000,-3.73205 1.86603,-0.50000 1.86603,3.23205 0.00000,5.09808 -4.02073,1.07735 " fill="none" stroke="rgb(25,25,25)" stroke-width="0.517128" />
<!-- B1D1B1B1D1B1D1 B1D1B1D1B1B1D1 -->
<!-- 0 -->
<circle cx="0.00000" cy="0.00000" r="0.517128" stroke="rgb(25,25,25)" stroke-width="0" fill="rgb(25,25,25)" />
<!-- 0 -->
<circle cx="3.73205" cy="0.00000" r="0.517128" stroke="rgb(25,25,25)" stroke-width="0" fill="rgb(25,25,25)" />
<!-- 0 -->
<circle cx="3.23205" cy="-1.86603" r="0.517128" stroke="rgb(25,25,25)" stroke-width="0" fill="rgb(25,25,25)" />
<!-- 0 -->
<circle cx="5.09808" cy="5.09808" r="0.517128" stroke="rgb(25,25,25)" stroke-width="0" fill="rgb(25,25,25)" />
<!-- 0 -->
<circle cx="-5.09808" cy="5.09808" r="0.517128" stroke="rgb(25,25,25)" stroke-width="0" fill="rgb(25,25,25)" />
<!-- 0 -->
<circle cx="-6.96410" cy="-1.86603" r="0.517128" stroke="rgb(25,25,25)" stroke-width="0" fill="rgb(25,25,25)" />
<!-- 0 -->
<circle cx="1.86603" cy="-6.96410" r="0.517128" stroke="rgb(25,25,25)" stroke-width="0" fill="rgb(25,25,25)" />
</svg>
<!--B1D1B1D1B1B1D1 B1D1B1B1D1B1D1-->
<polygon points="-0.04071,-0.11603 0.03109,-0.11603 0.09327,-0.08013 0.02147,-0.08013 " style="fill:none;stroke:rgb(25,25,25);stroke-width:0.000464102" fill-opacity="0.5" />
<svg x="0.01236" y="-0.11200" width="0.02785" height="0.02785" viewBox="-10.64102 -10.64102 21.28203 21.28203">

<!-- B1D1B1D1B1B1D1 B1D1B1B1D1B1D1 -->
<polygon points="0.00000,-5.09808 4.02073,-1.07735 2.54904,4.41506 0.00000,3.73205 -1.86603,0.50000 -1.86603,-3.23205 " fill="none" stroke="#ffffff" stroke-width="1.29282" />
<!-- B1D1B1D1B1B1D1 B1D1B1B1D1B1D1 -->
<!-- 0 -->
<circle cx="0.00000" cy="0.00000" r="1.29282" stroke="#ffffff" stroke-width="0" fill="#ffffff" />
<!-- 0 -->
<circle cx="-3.23205" cy="1.86603" r="1.29282" stroke="#ffffff" stroke-width="0" fill="#ffffff" />
<!-- 0 -->
<circle cx="-3.73205" cy="0.00000" r="1.29282" stroke="#ffffff" stroke-width="0" fill="#ffffff" />
<!-- 0 -->
<circle cx="-1.86603" cy="6.96410" r="1.29282" stroke="#ffffff" stroke-width="0" fill="#ffffff" />
<!-- 0 -->
<circle cx="6.96410" cy="1.86603" r="1.29282" stroke="#ffffff" stroke-width="0" fill="#ffffff" />
<!-- 0 -->
<circle cx="5.09808" cy="-5.09808" r="1.29282" stroke="#ffffff" stroke-width="0" fill="#ffffff" />
<!-- 0 -->
<circle cx="-5.09808" cy="-5.09808" r="1.29282" stroke="#ffffff" stroke-width="0" fill="#ffffff" />
<!-- B1D1B1D1B1B1D1 B1D1B1B1D1B1D1 -->
<polygon points="0.00000,-5.09808 4.02073,-1.07735 2.54904,4.41506 0.00000,3.73205 -1.86603,0.50000 -1.86603,-3.23205 " fill="none" stroke="rgb(25,25,25)" stroke-width="0.517128" />
<!-- B1D1B1D1B1B1D1 B1D1B1B1D1B1D1 -->
<!-- 0 -->
<circle cx="0.00000" cy="0.00000" r="0.517128" stroke="rgb(25,25,25)" stroke-width="0" fill="rgb(25,25,25)" />
<!-- 0 -->
<circle cx="-3.23205" cy="1.86603" r="0.517128" stroke="rgb(25,25,25)" stroke-width="0" fill="rgb(25,25,25)" />
<!-- 0 -->
<circle cx="-3.73205" cy="0.00000" r="0.517128" stroke="rgb(25,25,25)" stroke-width="0" fill="rgb(25,25,25)" />
<!-- 0 -->
<circle cx="-1.86603" cy="6.96410" r="0.517128" stroke="rgb(25,25,25)" stroke-width="0" fill="rgb(25,25,25)" />
<!-- 0 -->
<circle cx="6.96410" cy="1.86603" r="0.517128" stroke="rgb(25,25,25)" stroke-width="0" fill="rgb(25,25,25)" />
<!-- 0 -->
<circle cx="5.09808" cy="-5.09808" r="0.517128" stroke="rgb(25,25,25)" stroke-width="0" fill="rgb(25,25,25)" />
<!-- 0 -->
<circle cx="-5.09808" cy="-5.09808" r="0.517128" stroke="rgb(25,25,25)" stroke-width="0" fill="rgb(25,25,25)" />
</svg>
<!--D1B1D1B1B1D1B1 D1B1D1B1B1D1B1-->
<polygon points="-0.06699,-0.01795 0.00481,-0.01795 0.06699,0.01795 -0.00481,0.01795 " style="fill:none;stroke:rgb(25,25,25);stroke-width:0.000464102" fill-opacity="0.5" />
<svg x="-0.01392" y="-0.01392" width="0.02785" height="0.02785" viewBox="-10.64102 -10.64102 21.28203 21.28203">

<!-- D1B1D1B1B1D1B1 D1B1D1B1B1D1B1 -->
<polygon points="4.41506,-2.54904 5.09808,-1.36603 5.09808,0.00000 3.23205,1.86603 -1.86603,3.23205 -4.41506,2.54904 -5.09808,1.36603 -5.09808,0.00000 -3.23205,-1.86603 1.86603,-3.23205 " fill="none" stroke="#ffffff" stroke-width="1.29282" />
<!-- D1B1D1B1B1D1B1 D1B1D1B1B1D1B1 -->
<!-- 0 -->
<circle cx="0.00000" cy="0.00000" r="1.29282" stroke="#ffffff" stroke-width="0" fill="#ffffff" />
<!-- 0 -->
<circle cx="1.36603" cy="5.09808" r="1.29282" stroke="#ffffff" stroke-width="0" fill="#ffffff" />
<!-- 0 -->
<circle cx="-1.36603" cy="-5.09808" r="1.29282" stroke="#ffffff" stroke-width="0" fill="#ffffff" />
<!-- 0 -->
<circle cx="5.09808" cy="5.09808" r="1.29282" stroke="#ffffff" stroke-width="0" fill="#ffffff" />
<!-- 0 -->
<circle cx="-1.86603" cy="6.96410" r="1.29282" stroke="#ffffff" stroke-width="0" fill="#ffffff" />
<!-- 0 -->
<circle cx="1.86603" cy="-6.96410" r="1.29282" stroke="#ffffff" stroke-width="0" fill="#ffffff" />
<!-- 0 -->
<circle cx="-5.09808" cy="-5.09808" r="1.29282" stroke="#ffffff" stroke-width="0" fill="#ffffff" />
<!-- 0 -->
<circle cx="10.19615" cy="0.00000" r="1.29282" stroke="#ffffff" stroke-width="0" fill="#ffffff" />
<!-- 0 -->
<circle cx="-8.83013" cy="5.09808" r="1.29282" stroke="#ffffff" stroke-width="0" fill="#ffffff" />
<!-- 0 -->
<circle cx="8.83013" cy="-5.09808" r="1.29282" stroke="#ffffff" stroke-width="0" fill="#ffffff" />
<!-- 0 -->
<circle cx="-10.19615" cy="0.00000" r="1.29282" stroke="#ffffff" stroke-width="0" fill="#ffffff" />
<!-- D1B1D1B1B1D1B1 D1B1D1B1B1D1B1 -->
<polygon points="4.41506,-2.54904 5.09808,-1.36603 5.09808,0.00000 3.23205,1.86603 -1.86603,3.23205 -4.41506,2.54904 -5.09808,1.36603 -5.09808,0.00000 -3.23205,-1.86603 1.86603,-3.23205 " fill="none" stroke="rgb(25,25,25)" stroke-width="0.517128" />
<!-- D1B1D1B1B1D1B1 D1B1D1B1B1D1B1 -->
<!-- 0 -->
<circle cx="0.00000" cy="0.00000" r="0.517128" stroke="rgb(25,25,25)" stroke-width="0" fill="rgb(25,25,25)" />
<!-- 0 -->
<circle cx="1.36603" cy="5.09808" r="0.517128" stroke="rgb(25,25,25)" stroke-width="0" fill="rgb(25,25,25)" />
<!-- 0 -->
<circle cx="-1.36603" cy="-5.09808" r="0.517128" stroke="rgb(25,25,25)" stroke-width="0" fill="rgb(25,25,25)" />
<!-- 0 -->
<circle cx="5.09808" cy="5.09808" r="0.517128" stroke="rgb(25,25,25)" stroke-width="0" fill="rgb(25,25,25)" />
<!-- 0 -->
<circle cx="-1.86603" cy="6.96410" r="0.517128" stroke="rgb(25,25,25)" stroke-width="0" fill="rgb(25,25,25)" />
<!-- 0 -->
<circle cx="1.86603" cy="-6.96410" r="0.517128" stroke="rgb(25,25,25)" stroke-width="0" fill="rgb(25,25,25)" />
<!-- 0 -->
<circle cx="-5.09808" cy="-5.09808" r="0.517128" stroke="rgb(25,25,25)" stroke-width="0" fill="rgb(25,25,25)" />
<!-- 0 -->
<circle cx="10.19615" cy="0.00000" r="0.517128" stroke="rgb(25,25,25)" stroke-width="0" fill="rgb(25,25,25)" />
<!-- 0 -->
<circle cx="-8.83013" cy="5.09808" r="0.517128" stroke="rgb(25,25,25)" stroke-width="0" fill="rgb(25,25,25)" />
<!-- 0 -->
<circle cx="8.83013" cy="-5.09808" r="0.517128" stroke="rgb(25,25,25)" stroke-width="0" fill="rgb(25,25,25)" />
<!-- 0 -->
<circle cx="-10.19615" cy="0.00000" r="0.517128" stroke="rgb(25,25,25)" stroke-width="0" fill="rgb(25,25,25)" />
</svg>
</g>
</svg>
