<?xml version="1.0" standalone="no"?>

<svg width="1400" height="1400" viewBox="-159.615 -159.615 319.23 319.23">

<g transform="scale(300,-300)">
<polygon points="-0.43301,-0.11603 0.03109,-0.11603 0.43301,0.11603 -0.03109,0.11603 " style="fill:none;stroke:rgb(25,25,25);stroke-width:0.002" fill-opacity="0.5" />
<polygon points="-0.00481,0.01795 0.06699,0.01795 0.17468,0.08013 0.10289,0.08013 " style="fill:none;stroke:rgb(25,25,25);stroke-width:0.002" fill-opacity="0.5" />
<polygon points="-0.00481,0.01795 0.06699,0.01795 0.23686,0.11603 0.16506,0.11603 " style="fill:none;stroke:rgb(25,25,25);stroke-width:0.002" fill-opacity="0.5" />
<!-- **STARED**
D1B1D1B1B1D1B1D1 D1B1B1D1B1D1B1D1 -->
<!-- **STARED**
0 -->
<g transform="translate(0.17,0.096)">
<circle cx="0.00000" cy="0.00000" r="0.0041547" stroke="rgb(25,25,25)" stroke-width="0" fill="rgb(25,25,25)" />
<circle cx="0.00000" cy="0.00000" r="0.0081547" stroke="rgb(25,25,25)" stroke-width="0.004" fill="none" />
<!-- **STARED**
0 -->
<circle cx="-0.23205" cy="-0.13397" r="0.0041547" stroke="rgb(25,25,25)" stroke-width="0" fill="rgb(25,25,25)" />
<!-- **STARED**
0 -->
<circle cx="-0.36603" cy="-0.09808" r="0.0041547" stroke="rgb(25,25,25)" stroke-width="0" fill="rgb(25,25,25)" />
<!-- **STARED**
0 -->
<circle cx="-0.13397" cy="0.03590" r="0.0041547" stroke="rgb(25,25,25)" stroke-width="0" fill="rgb(25,25,25)" />
<rect x="-0.14197" y="0.02790" width="0.016" height="0.016" stroke="rgb(25,25,25)" stroke-width="0.004" fill="none" />
<!-- **STARED**
0 -->
<circle cx="-0.03590" cy="-0.13397" r="0.0041547" stroke="rgb(25,25,25)" stroke-width="0" fill="rgb(25,25,25)" />
<!-- **STARED**
0 -->
<circle cx="-0.13397" cy="-0.03590" r="0.0041547" stroke="rgb(25,25,25)" stroke-width="0" fill="rgb(25,25,25)" />

<circle cx="-0.16987" cy="-0.09808" r="0.0041547" stroke="rgb(25,25,25)" stroke-width="0" fill="rgb(25,25,25)" />
<rect x="-0.17787" y="-0.10608" width="0.016" height="0.016" stroke="rgb(25,25,25)" stroke-width="0.004" fill="none" transform="rotate(45,-0.16987,-0.09808)" />
</g>
</g>
</svg>
