<?xml version="1.0" encoding="UTF-8" standalone="no"?>
<!-- Created with Inkscape (http://www.inkscape.org/) -->

<svg
   xmlns:dc="http://purl.org/dc/elements/1.1/"
   xmlns:cc="http://creativecommons.org/ns#"
   xmlns:rdf="http://www.w3.org/1999/02/22-rdf-syntax-ns#"
   xmlns:svg="http://www.w3.org/2000/svg"
   xmlns="http://www.w3.org/2000/svg"
   version="1.1"
   width="2941.9299"
   height="806.58044"
   viewBox="-159.615 -159.615 1173.9404 321.85584"
   id="svg2">
  <circle
     cx="0"
     cy="0"
     r="0.41547"
     transform="matrix(12,0,0,-12,424.35517,12.509037)"
     id="circle8"
     style="fill:#191919;stroke:#191919;stroke-width:0" />
  <circle
     cx="-0.5"
     cy="-1.86603"
     r="0.41547"
     transform="matrix(12,0,0,-12,424.35517,12.509037)"
     id="circle10"
     style="fill:#191919;stroke:#191919;stroke-width:0" />
  <circle
     cx="3.2320499"
     cy="-1.86603"
     r="0.41547"
     transform="matrix(12,0,0,-12,424.35517,12.509037)"
     id="circle12"
     style="fill:#191919;stroke:#191919;stroke-width:0" />
  <circle
     cx="-3.7320499"
     cy="0"
     r="0.41547"
     transform="matrix(12,0,0,-12,424.35517,12.509037)"
     id="circle14"
     style="fill:#191919;stroke:#191919;stroke-width:0" />
  <circle
     cx="1.36603"
     cy="5.0980802"
     r="0.41547"
     transform="matrix(12,0,0,-12,424.35517,12.509037)"
     id="circle16"
     style="fill:#191919;stroke:#191919;stroke-width:0" />
  <circle
     cx="1.86603"
     cy="6.9640999"
     r="0.41547"
     transform="matrix(12,0,0,-12,424.35517,12.509037)"
     id="circle18"
     style="fill:#191919;stroke:#191919;stroke-width:0" />
  <circle
     cx="5.0980802"
     cy="5.0980802"
     r="0.41547"
     transform="matrix(12,0,0,-12,424.35517,12.509037)"
     id="circle20"
     style="fill:#191919;stroke:#191919;stroke-width:0" />
  <circle
     cx="-1.86603"
     cy="6.9640999"
     r="0.41547"
     transform="matrix(12,0,0,-12,424.35517,12.509037)"
     id="circle22"
     style="fill:#191919;stroke:#191919;stroke-width:0" />
  <circle
     cx="-1.86603"
     cy="-6.9640999"
     r="0.41547"
     transform="matrix(12,0,0,-12,424.35517,12.509037)"
     id="circle24"
     style="fill:#191919;stroke:#191919;stroke-width:0" />
  <circle
     cx="10.19615"
     cy="0"
     r="0.41547"
     transform="matrix(12,0,0,-12,424.35517,12.509037)"
     id="circle26"
     style="fill:#191919;stroke:#191919;stroke-width:0" />
  <circle
     cx="-8.8301296"
     cy="5.0980802"
     r="0.41547"
     transform="matrix(12,0,0,-12,424.35517,12.509037)"
     id="circle28"
     style="fill:#191919;stroke:#191919;stroke-width:0" />
  <circle
     cx="8.3301296"
     cy="-6.9640999"
     r="0.41547"
     transform="matrix(12,0,0,-12,424.35517,12.509037)"
     id="circle30"
     style="fill:#191919;stroke:#191919;stroke-width:0" />
  <circle
     cx="-10.69615"
     cy="-1.86603"
     r="0.41547"
     transform="matrix(12,0,0,-12,424.35517,12.509037)"
     id="circle32"
     style="fill:#191919;stroke:#191919;stroke-width:0" />
  <circle
     cx="3.2320499"
     cy="12.06218"
     r="0.41547"
     transform="matrix(12,0,0,-12,424.35517,12.509037)"
     id="circle34"
     style="fill:#191919;stroke:#191919;stroke-width:0" />
  <circle
     cx="-3.2320499"
     cy="-12.06218"
     r="0.41547"
     transform="matrix(12,0,0,-12,424.35517,12.509037)"
     id="circle36"
     style="fill:#191919;stroke:#191919;stroke-width:0" />
  <circle
     cx="13.4282"
     cy="-1.86603"
     r="0.41547"
     transform="matrix(12,0,0,-12,424.35517,12.509037)"
     id="circle38"
     style="fill:#191919;stroke:#191919;stroke-width:0" />
  <circle
     cx="-12.56218"
     cy="5.0980802"
     r="0.41547"
     transform="matrix(12,0,0,-12,424.35517,12.509037)"
     id="circle40"
     style="fill:#191919;stroke:#191919;stroke-width:0" />
  <circle
     cx="6.9640999"
     cy="12.06218"
     r="0.41547"
     transform="matrix(12,0,0,-12,424.35517,12.509037)"
     id="circle42"
     style="fill:#191919;stroke:#191919;stroke-width:0" />
  <circle
     cx="0"
     cy="13.9282"
     r="0.41547"
     transform="matrix(12,0,0,-12,424.35517,12.509037)"
     id="circle44"
     style="fill:#191919;stroke:#191919;stroke-width:0" />
  <circle
     cx="12.06218"
     cy="6.9640999"
     r="0.41547"
     transform="matrix(12,0,0,-12,424.35517,12.509037)"
     id="circle46"
     style="fill:#191919;stroke:#191919;stroke-width:0" />
  <circle
     cx="-6.9640999"
     cy="12.06218"
     r="0.41547"
     transform="matrix(12,0,0,-12,424.35517,12.509037)"
     id="circle48"
     style="fill:#191919;stroke:#191919;stroke-width:0" />
  <circle
     cx="13.9282"
     cy="0"
     r="0.41547"
     transform="matrix(12,0,0,-12,424.35517,12.509037)"
     id="circle50"
     style="fill:#191919;stroke:#191919;stroke-width:0" />
  <circle
     cx="-12.06218"
     cy="6.9640999"
     r="0.41547"
     transform="matrix(12,0,0,-12,424.35517,12.509037)"
     id="circle52"
     style="fill:#191919;stroke:#191919;stroke-width:0" />
  <circle
     cx="12.06218"
     cy="-6.9640999"
     r="0.41547"
     transform="matrix(12,0,0,-12,424.35517,12.509037)"
     id="circle54"
     style="fill:#191919;stroke:#191919;stroke-width:0" />
  <circle
     cx="-13.9282"
     cy="0"
     r="0.41547"
     transform="matrix(12,0,0,-12,424.35517,12.509037)"
     id="circle56"
     style="fill:#191919;stroke:#191919;stroke-width:0" />
  <circle
     cx="6.9640999"
     cy="-12.06218"
     r="0.41547"
     transform="matrix(12,0,0,-12,424.35517,12.509037)"
     id="circle58"
     style="fill:#191919;stroke:#191919;stroke-width:0" />
  <circle
     cx="-12.06218"
     cy="-6.9640999"
     r="0.41547"
     transform="matrix(12,0,0,-12,424.35517,12.509037)"
     id="circle60"
     style="fill:#191919;stroke:#191919;stroke-width:0" />
  <circle
     cx="3.7320499"
     cy="13.9282"
     r="0.41547"
     transform="matrix(12,0,0,-12,424.35517,12.509037)"
     id="circle62"
     style="fill:#191919;stroke:#191919;stroke-width:0" />
  <circle
     cx="15.29423"
     cy="5.0980802"
     r="0.41547"
     transform="matrix(12,0,0,-12,424.35517,12.509037)"
     id="circle64"
     style="fill:#191919;stroke:#191919;stroke-width:0" />
  <circle
     cx="-10.69615"
     cy="12.06218"
     r="0.41547"
     transform="matrix(12,0,0,-12,424.35517,12.509037)"
     id="circle66"
     style="fill:#191919;stroke:#191919;stroke-width:0" />
  <circle
     cx="15.79423"
     cy="6.9640999"
     r="0.41547"
     transform="matrix(12,0,0,-12,424.35517,12.509037)"
     id="circle68"
     style="fill:#191919;stroke:#191919;stroke-width:0" />
  <circle
     cx="-10.19615"
     cy="13.9282"
     r="0.41547"
     transform="matrix(12,0,0,-12,424.35517,12.509037)"
     id="circle70"
     style="fill:#191919;stroke:#191919;stroke-width:0" />
  <circle
     cx="17.16025"
     cy="-1.86603"
     r="0.41547"
     transform="matrix(12,0,0,-12,424.35517,12.509037)"
     id="circle72"
     style="fill:#191919;stroke:#191919;stroke-width:0" />
  <circle
     cx="-15.79423"
     cy="6.9640999"
     r="0.41547"
     transform="matrix(12,0,0,-12,424.35517,12.509037)"
     id="circle74"
     style="fill:#191919;stroke:#191919;stroke-width:0" />
  <circle
     cx="19.026279"
     cy="5.0980802"
     r="0.41547"
     transform="matrix(12,0,0,-12,424.35517,12.509037)"
     id="circle76"
     style="fill:#191919;stroke:#191919;stroke-width:0" />
  <circle
     cx="-13.9282"
     cy="13.9282"
     r="0.41547"
     transform="matrix(12,0,0,-12,424.35517,12.509037)"
     id="circle78"
     style="fill:#191919;stroke:#191919;stroke-width:0" />
  <circle
     cx="17.16025"
     cy="-12.06218"
     r="0.41547"
     transform="matrix(12,0,0,-12,424.35517,12.509037)"
     id="circle80"
     style="fill:#191919;stroke:#191919;stroke-width:0" />
  <circle
     cx="-20.8923"
     cy="-1.86603"
     r="0.41547"
     transform="matrix(12,0,0,-12,424.35517,12.509037)"
     id="circle82"
     style="fill:#191919;stroke:#191919;stroke-width:0" />
  <circle
     cx="22.258329"
     cy="-6.9640999"
     r="0.41547"
     transform="matrix(12,0,0,-12,424.35517,12.509037)"
     id="circle84"
     style="fill:#191919;stroke:#191919;stroke-width:0" />
  <circle
     cx="-22.758329"
     cy="5.0980802"
     r="0.41547"
     transform="matrix(12,0,0,-12,424.35517,12.509037)"
     id="circle86"
     style="fill:#191919;stroke:#191919;stroke-width:0" />
  <circle
     cx="24.124359"
     cy="0"
     r="0.41547"
     transform="matrix(12,0,0,-12,424.35517,12.509037)"
     id="circle88"
     style="fill:#191919;stroke:#191919;stroke-width:0" />
  <circle
     cx="-20.8923"
     cy="12.06218"
     r="0.41547"
     transform="matrix(12,0,0,-12,424.35517,12.509037)"
     id="circle90"
     style="fill:#191919;stroke:#191919;stroke-width:0" />
  <circle
     cx="20.8923"
     cy="-12.06218"
     r="0.41547"
     transform="matrix(12,0,0,-12,424.35517,12.509037)"
     id="circle92"
     style="fill:#191919;stroke:#191919;stroke-width:0" />
  <circle
     cx="-24.124359"
     cy="0"
     r="0.41547"
     transform="matrix(12,0,0,-12,424.35517,12.509037)"
     id="circle94"
     style="fill:#191919;stroke:#191919;stroke-width:0" />
  <circle
     cx="25.990379"
     cy="-6.9640999"
     r="0.41547"
     transform="matrix(12,0,0,-12,424.35517,12.509037)"
     id="circle96"
     style="fill:#191919;stroke:#191919;stroke-width:0" />
  <circle
     cx="-25.990379"
     cy="6.9640999"
     r="0.41547"
     transform="matrix(12,0,0,-12,424.35517,12.509037)"
     id="circle98"
     style="fill:#191919;stroke:#191919;stroke-width:0" />
  <circle
     cx="27.356409"
     cy="-1.86603"
     r="0.41547"
     transform="matrix(12,0,0,-12,424.35517,12.509037)"
     id="circle100"
     style="fill:#191919;stroke:#191919;stroke-width:0" />
  <circle
     cx="-24.624359"
     cy="12.06218"
     r="0.41547"
     transform="matrix(12,0,0,-12,424.35517,12.509037)"
     id="circle102"
     style="fill:#191919;stroke:#191919;stroke-width:0" />
  <circle
     cx="27.856409"
     cy="0"
     r="0.41547"
     transform="matrix(12,0,0,-12,424.35517,12.509037)"
     id="circle104"
     style="fill:#191919;stroke:#191919;stroke-width:0" />
  <circle
     cx="-24.124359"
     cy="13.9282"
     r="0.41547"
     transform="matrix(12,0,0,-12,424.35517,12.509037)"
     id="circle106"
     style="fill:#191919;stroke:#191919;stroke-width:0" />
  <circle
     cx="31.088461"
     cy="-1.86603"
     r="0.41547"
     transform="matrix(12,0,0,-12,424.35517,12.509037)"
     id="circle108"
     style="fill:#191919;stroke:#191919;stroke-width:0" />
  <circle
     cx="-27.856409"
     cy="13.9282"
     r="0.41547"
     transform="matrix(12,0,0,-12,424.35517,12.509037)"
     id="circle110"
     style="fill:#191919;stroke:#191919;stroke-width:0" />
  <circle
     cx="31.088461"
     cy="-12.06218"
     r="0.41547"
     transform="matrix(12,0,0,-12,424.35517,12.509037)"
     id="circle112"
     style="fill:#191919;stroke:#191919;stroke-width:0" />
  <circle
     cx="-32.954479"
     cy="5.0980802"
     r="0.41547"
     transform="matrix(12,0,0,-12,424.35517,12.509037)"
     id="circle114"
     style="fill:#191919;stroke:#191919;stroke-width:0" />
  <circle
     cx="36.186531"
     cy="-6.9640999"
     r="0.41547"
     transform="matrix(12,0,0,-12,424.35517,12.509037)"
     id="circle116"
     style="fill:#191919;stroke:#191919;stroke-width:0" />
  <circle
     cx="34.820511"
     cy="-12.06218"
     r="0.41547"
     transform="matrix(12,0,0,-12,424.35517,12.509037)"
     id="circle118"
     style="fill:#191919;stroke:#191919;stroke-width:0" />
  <circle
     cx="-34.820511"
     cy="12.06218"
     r="0.41547"
     transform="matrix(12,0,0,-12,424.35517,12.509037)"
     id="circle120"
     style="fill:#191919;stroke:#191919;stroke-width:0" />
  <circle
     cx="-36.186531"
     cy="6.9640999"
     r="0.41547"
     transform="matrix(12,0,0,-12,424.35517,12.509037)"
     id="circle122"
     style="fill:#191919;stroke:#191919;stroke-width:0" />
  <circle
     cx="39.918579"
     cy="-6.9640999"
     r="0.41547"
     transform="matrix(12,0,0,-12,424.35517,12.509037)"
     id="circle124"
     style="fill:#191919;stroke:#191919;stroke-width:0" />
  <circle
     cx="-38.052559"
     cy="13.9282"
     r="0.41547"
     transform="matrix(12,0,0,-12,424.35517,12.509037)"
     id="circle126"
     style="fill:#191919;stroke:#191919;stroke-width:0" />
  <circle
     cx="45.016659"
     cy="-12.06218"
     r="0.41547"
     transform="matrix(12,0,0,-12,424.35517,12.509037)"
     id="circle128"
     style="fill:#191919;stroke:#191919;stroke-width:0" />
  <circle
     cx="-45.016659"
     cy="12.06218"
     r="0.41547"
     transform="matrix(12,0,0,-12,424.35517,12.509037)"
     id="circle130"
     style="fill:#191919;stroke:#191919;stroke-width:0" />
  <circle
     cx="48.748711"
     cy="-12.06218"
     r="0.41547"
     transform="matrix(12,0,0,-12,424.35517,12.509037)"
     id="circle132"
     style="fill:#191919;stroke:#191919;stroke-width:0" />
  <circle
     cx="-48.248711"
     cy="13.9282"
     r="0.41547"
     transform="matrix(12,0,0,-12,424.35517,12.509037)"
     id="circle134"
     style="fill:#191919;stroke:#191919;stroke-width:0" />
  <metadata
     id="metadata140">
    <rdf:RDF>
      <cc:Work
         rdf:about="">
        <dc:format>image/svg+xml</dc:format>
        <dc:type
           rdf:resource="http://purl.org/dc/dcmitype/StillImage" />
        <dc:title></dc:title>
      </cc:Work>
    </rdf:RDF>
  </metadata>
  <defs
     id="defs138" />
</svg>
