<?xml version="1.0" standalone="no"?>

<svg width="1920" height="1080" viewBox="-512 -288 1024.00000 576.00000">

<g transform="scale(1.11,-1.11)">

<!-- quasicrystal -->
<!-- Deloneovská množina bodů -->
<circle cx="510.97749" cy="265.00189" r="0.3em" stroke="rgb(25,25,25)" stroke-width="0" fill="rgb(25,25,25)" />
<circle cx="458.99673" cy="265.00189" r="0.3em" stroke="rgb(25,25,25)" stroke-width="0" fill="rgb(25,25,25)" />
<circle cx="504.01339" cy="239.01151" r="0.3em" stroke="rgb(25,25,25)" stroke-width="0" fill="rgb(25,25,25)" />
<circle cx="407.01597" cy="265.00189" r="0.3em" stroke="rgb(25,25,25)" stroke-width="0" fill="rgb(25,25,25)" />
<circle cx="452.03263" cy="239.01151" r="0.3em" stroke="rgb(25,25,25)" stroke-width="0" fill="rgb(25,25,25)" />
<circle cx="316.98265" cy="265.00189" r="0.3em" stroke="rgb(25,25,25)" stroke-width="0" fill="rgb(25,25,25)" />
<circle cx="361.99931" cy="239.01151" r="0.3em" stroke="rgb(25,25,25)" stroke-width="0" fill="rgb(25,25,25)" />
<circle cx="439.97045" cy="193.99485" r="0.3em" stroke="rgb(25,25,25)" stroke-width="0" fill="rgb(25,25,25)" />
<circle cx="484.98711" cy="168.00446" r="0.3em" stroke="rgb(25,25,25)" stroke-width="0" fill="rgb(25,25,25)" />
<circle cx="265.00189" cy="265.00189" r="0.3em" stroke="rgb(25,25,25)" stroke-width="0" fill="rgb(25,25,25)" />
<circle cx="310.01855" cy="239.01151" r="0.3em" stroke="rgb(25,25,25)" stroke-width="0" fill="rgb(25,25,25)" />
<circle cx="387.98969" cy="193.99485" r="0.3em" stroke="rgb(25,25,25)" stroke-width="0" fill="rgb(25,25,25)" />
<circle cx="433.00635" cy="168.00446" r="0.3em" stroke="rgb(25,25,25)" stroke-width="0" fill="rgb(25,25,25)" />
<circle cx="510.97749" cy="122.98780" r="0.3em" stroke="rgb(25,25,25)" stroke-width="0" fill="rgb(25,25,25)" />
<circle cx="213.02112" cy="265.00189" r="0.3em" stroke="rgb(25,25,25)" stroke-width="0" fill="rgb(25,25,25)" />
<circle cx="258.03779" cy="239.01151" r="0.3em" stroke="rgb(25,25,25)" stroke-width="0" fill="rgb(25,25,25)" />
<circle cx="336.00893" cy="193.99485" r="0.3em" stroke="rgb(25,25,25)" stroke-width="0" fill="rgb(25,25,25)" />
<circle cx="381.02559" cy="168.00446" r="0.3em" stroke="rgb(25,25,25)" stroke-width="0" fill="rgb(25,25,25)" />
<circle cx="458.99673" cy="122.98780" r="0.3em" stroke="rgb(25,25,25)" stroke-width="0" fill="rgb(25,25,25)" />
<circle cx="504.01339" cy="96.99742" r="0.3em" stroke="rgb(25,25,25)" stroke-width="0" fill="rgb(25,25,25)" />
<circle cx="122.98780" cy="265.00189" r="0.3em" stroke="rgb(25,25,25)" stroke-width="0" fill="rgb(25,25,25)" />
<circle cx="168.00446" cy="239.01151" r="0.3em" stroke="rgb(25,25,25)" stroke-width="0" fill="rgb(25,25,25)" />
<circle cx="245.97561" cy="193.99485" r="0.3em" stroke="rgb(25,25,25)" stroke-width="0" fill="rgb(25,25,25)" />
<circle cx="290.99227" cy="168.00446" r="0.3em" stroke="rgb(25,25,25)" stroke-width="0" fill="rgb(25,25,25)" />
<circle cx="368.96341" cy="122.98780" r="0.3em" stroke="rgb(25,25,25)" stroke-width="0" fill="rgb(25,25,25)" />
<circle cx="413.98007" cy="96.99742" r="0.3em" stroke="rgb(25,25,25)" stroke-width="0" fill="rgb(25,25,25)" />
<circle cx="458.99673" cy="71.00704" r="0.3em" stroke="rgb(25,25,25)" stroke-width="0" fill="rgb(25,25,25)" />
<circle cx="71.00704" cy="265.00189" r="0.3em" stroke="rgb(25,25,25)" stroke-width="0" fill="rgb(25,25,25)" />
<circle cx="116.02370" cy="239.01151" r="0.3em" stroke="rgb(25,25,25)" stroke-width="0" fill="rgb(25,25,25)" />
<circle cx="193.99485" cy="193.99485" r="0.3em" stroke="rgb(25,25,25)" stroke-width="0" fill="rgb(25,25,25)" />
<circle cx="239.01151" cy="168.00446" r="0.3em" stroke="rgb(25,25,25)" stroke-width="0" fill="rgb(25,25,25)" />
<circle cx="316.98265" cy="122.98780" r="0.3em" stroke="rgb(25,25,25)" stroke-width="0" fill="rgb(25,25,25)" />
<circle cx="361.99931" cy="96.99742" r="0.3em" stroke="rgb(25,25,25)" stroke-width="0" fill="rgb(25,25,25)" />
<circle cx="407.01597" cy="71.00704" r="0.3em" stroke="rgb(25,25,25)" stroke-width="0" fill="rgb(25,25,25)" />
<circle cx="484.98711" cy="25.99038" r="0.3em" stroke="rgb(25,25,25)" stroke-width="0" fill="rgb(25,25,25)" />
<circle cx="19.02628" cy="265.00189" r="0.3em" stroke="rgb(25,25,25)" stroke-width="0" fill="rgb(25,25,25)" />
<circle cx="64.04294" cy="239.01151" r="0.3em" stroke="rgb(25,25,25)" stroke-width="0" fill="rgb(25,25,25)" />
<circle cx="142.01408" cy="193.99485" r="0.3em" stroke="rgb(25,25,25)" stroke-width="0" fill="rgb(25,25,25)" />
<circle cx="187.03074" cy="168.00446" r="0.3em" stroke="rgb(25,25,25)" stroke-width="0" fill="rgb(25,25,25)" />
<circle cx="265.00189" cy="122.98780" r="0.3em" stroke="rgb(25,25,25)" stroke-width="0" fill="rgb(25,25,25)" />
<circle cx="310.01855" cy="96.99742" r="0.3em" stroke="rgb(25,25,25)" stroke-width="0" fill="rgb(25,25,25)" />
<circle cx="355.03521" cy="71.00704" r="0.3em" stroke="rgb(25,25,25)" stroke-width="0" fill="rgb(25,25,25)" />
<circle cx="433.00635" cy="25.99038" r="0.3em" stroke="rgb(25,25,25)" stroke-width="0" fill="rgb(25,25,25)" />
<circle cx="478.02301" cy="0.00000" r="0.3em" stroke="rgb(25,25,25)" stroke-width="0" fill="rgb(25,25,25)" />
<circle cx="-71.00704" cy="265.00189" r="0.3em" stroke="rgb(25,25,25)" stroke-width="0" fill="rgb(25,25,25)" />
<circle cx="-25.99038" cy="239.01151" r="0.3em" stroke="rgb(25,25,25)" stroke-width="0" fill="rgb(25,25,25)" />
<circle cx="51.98076" cy="193.99485" r="0.3em" stroke="rgb(25,25,25)" stroke-width="0" fill="rgb(25,25,25)" />
<circle cx="96.99742" cy="168.00446" r="0.3em" stroke="rgb(25,25,25)" stroke-width="0" fill="rgb(25,25,25)" />
<circle cx="174.96857" cy="122.98780" r="0.3em" stroke="rgb(25,25,25)" stroke-width="0" fill="rgb(25,25,25)" />
<circle cx="219.98523" cy="96.99742" r="0.3em" stroke="rgb(25,25,25)" stroke-width="0" fill="rgb(25,25,25)" />
<circle cx="265.00189" cy="71.00704" r="0.3em" stroke="rgb(25,25,25)" stroke-width="0" fill="rgb(25,25,25)" />
<circle cx="342.97303" cy="25.99038" r="0.3em" stroke="rgb(25,25,25)" stroke-width="0" fill="rgb(25,25,25)" />
<circle cx="387.98969" cy="0.00000" r="0.3em" stroke="rgb(25,25,25)" stroke-width="0" fill="rgb(25,25,25)" />
<circle cx="433.00635" cy="-25.99038" r="0.3em" stroke="rgb(25,25,25)" stroke-width="0" fill="rgb(25,25,25)" />
<circle cx="510.97749" cy="-71.00704" r="0.3em" stroke="rgb(25,25,25)" stroke-width="0" fill="rgb(25,25,25)" />
<circle cx="-122.98780" cy="265.00189" r="0.3em" stroke="rgb(25,25,25)" stroke-width="0" fill="rgb(25,25,25)" />
<circle cx="-77.97114" cy="239.01151" r="0.3em" stroke="rgb(25,25,25)" stroke-width="0" fill="rgb(25,25,25)" />
<circle cx="0.00000" cy="193.99485" r="0.3em" stroke="rgb(25,25,25)" stroke-width="0" fill="rgb(25,25,25)" />
<circle cx="45.01666" cy="168.00446" r="0.3em" stroke="rgb(25,25,25)" stroke-width="0" fill="rgb(25,25,25)" />
<circle cx="122.98780" cy="122.98780" r="0.3em" stroke="rgb(25,25,25)" stroke-width="0" fill="rgb(25,25,25)" />
<circle cx="168.00446" cy="96.99742" r="0.3em" stroke="rgb(25,25,25)" stroke-width="0" fill="rgb(25,25,25)" />
<circle cx="213.02112" cy="71.00704" r="0.3em" stroke="rgb(25,25,25)" stroke-width="0" fill="rgb(25,25,25)" />
<circle cx="290.99227" cy="25.99038" r="0.3em" stroke="rgb(25,25,25)" stroke-width="0" fill="rgb(25,25,25)" />
<circle cx="336.00893" cy="0.00000" r="0.3em" stroke="rgb(25,25,25)" stroke-width="0" fill="rgb(25,25,25)" />
<circle cx="381.02559" cy="-25.99038" r="0.3em" stroke="rgb(25,25,25)" stroke-width="0" fill="rgb(25,25,25)" />
<circle cx="458.99673" cy="-71.00704" r="0.3em" stroke="rgb(25,25,25)" stroke-width="0" fill="rgb(25,25,25)" />
<circle cx="504.01339" cy="-96.99742" r="0.3em" stroke="rgb(25,25,25)" stroke-width="0" fill="rgb(25,25,25)" />
<circle cx="-213.02112" cy="265.00189" r="0.3em" stroke="rgb(25,25,25)" stroke-width="0" fill="rgb(25,25,25)" />
<circle cx="-168.00446" cy="239.01151" r="0.3em" stroke="rgb(25,25,25)" stroke-width="0" fill="rgb(25,25,25)" />
<circle cx="-90.03332" cy="193.99485" r="0.3em" stroke="rgb(25,25,25)" stroke-width="0" fill="rgb(25,25,25)" />
<circle cx="-45.01666" cy="168.00446" r="0.3em" stroke="rgb(25,25,25)" stroke-width="0" fill="rgb(25,25,25)" />
<circle cx="32.95448" cy="122.98780" r="0.3em" stroke="rgb(25,25,25)" stroke-width="0" fill="rgb(25,25,25)" />
<circle cx="77.97114" cy="96.99742" r="0.3em" stroke="rgb(25,25,25)" stroke-width="0" fill="rgb(25,25,25)" />
<circle cx="122.98780" cy="71.00704" r="0.3em" stroke="rgb(25,25,25)" stroke-width="0" fill="rgb(25,25,25)" />
<circle cx="200.95895" cy="25.99038" r="0.3em" stroke="rgb(25,25,25)" stroke-width="0" fill="rgb(25,25,25)" />
<circle cx="245.97561" cy="0.00000" r="0.3em" stroke="rgb(25,25,25)" stroke-width="0" fill="rgb(25,25,25)" />
<circle cx="290.99227" cy="-25.99038" r="0.3em" stroke="rgb(25,25,25)" stroke-width="0" fill="rgb(25,25,25)" />
<circle cx="368.96341" cy="-71.00704" r="0.3em" stroke="rgb(25,25,25)" stroke-width="0" fill="rgb(25,25,25)" />
<circle cx="413.98007" cy="-96.99742" r="0.3em" stroke="rgb(25,25,25)" stroke-width="0" fill="rgb(25,25,25)" />
<circle cx="458.99673" cy="-122.98780" r="0.3em" stroke="rgb(25,25,25)" stroke-width="0" fill="rgb(25,25,25)" />
<circle cx="-265.00189" cy="265.00189" r="0.3em" stroke="rgb(25,25,25)" stroke-width="0" fill="rgb(25,25,25)" />
<circle cx="-219.98523" cy="239.01151" r="0.3em" stroke="rgb(25,25,25)" stroke-width="0" fill="rgb(25,25,25)" />
<circle cx="-142.01408" cy="193.99485" r="0.3em" stroke="rgb(25,25,25)" stroke-width="0" fill="rgb(25,25,25)" />
<circle cx="-96.99742" cy="168.00446" r="0.3em" stroke="rgb(25,25,25)" stroke-width="0" fill="rgb(25,25,25)" />
<circle cx="-19.02628" cy="122.98780" r="0.3em" stroke="rgb(25,25,25)" stroke-width="0" fill="rgb(25,25,25)" />
<circle cx="25.99038" cy="96.99742" r="0.3em" stroke="rgb(25,25,25)" stroke-width="0" fill="rgb(25,25,25)" />
<circle cx="71.00704" cy="71.00704" r="0.3em" stroke="rgb(25,25,25)" stroke-width="0" fill="rgb(25,25,25)" />
<circle cx="148.97818" cy="25.99038" r="0.3em" stroke="rgb(25,25,25)" stroke-width="0" fill="rgb(25,25,25)" />
<circle cx="193.99485" cy="0.00000" r="0.3em" stroke="rgb(25,25,25)" stroke-width="0" fill="rgb(25,25,25)" />
<circle cx="239.01151" cy="-25.99038" r="0.3em" stroke="rgb(25,25,25)" stroke-width="0" fill="rgb(25,25,25)" />
<circle cx="316.98265" cy="-71.00704" r="0.3em" stroke="rgb(25,25,25)" stroke-width="0" fill="rgb(25,25,25)" />
<circle cx="361.99931" cy="-96.99742" r="0.3em" stroke="rgb(25,25,25)" stroke-width="0" fill="rgb(25,25,25)" />
<circle cx="407.01597" cy="-122.98780" r="0.3em" stroke="rgb(25,25,25)" stroke-width="0" fill="rgb(25,25,25)" />
<circle cx="484.98711" cy="-168.00446" r="0.3em" stroke="rgb(25,25,25)" stroke-width="0" fill="rgb(25,25,25)" />
<circle cx="-316.98265" cy="265.00189" r="0.3em" stroke="rgb(25,25,25)" stroke-width="0" fill="rgb(25,25,25)" />
<circle cx="-271.96599" cy="239.01151" r="0.3em" stroke="rgb(25,25,25)" stroke-width="0" fill="rgb(25,25,25)" />
<circle cx="-193.99485" cy="193.99485" r="0.3em" stroke="rgb(25,25,25)" stroke-width="0" fill="rgb(25,25,25)" />
<circle cx="-148.97818" cy="168.00446" r="0.3em" stroke="rgb(25,25,25)" stroke-width="0" fill="rgb(25,25,25)" />
<circle cx="-71.00704" cy="122.98780" r="0.3em" stroke="rgb(25,25,25)" stroke-width="0" fill="rgb(25,25,25)" />
<circle cx="-25.99038" cy="96.99742" r="0.3em" stroke="rgb(25,25,25)" stroke-width="0" fill="rgb(25,25,25)" />
<circle cx="19.02628" cy="71.00704" r="0.3em" stroke="rgb(25,25,25)" stroke-width="0" fill="rgb(25,25,25)" />
<circle cx="96.99742" cy="25.99038" r="0.3em" stroke="rgb(25,25,25)" stroke-width="0" fill="rgb(25,25,25)" />
<circle cx="142.01408" cy="0.00000" r="0.3em" stroke="rgb(25,25,25)" stroke-width="0" fill="rgb(25,25,25)" />
<circle cx="187.03074" cy="-25.99038" r="0.3em" stroke="rgb(25,25,25)" stroke-width="0" fill="rgb(25,25,25)" />
<circle cx="265.00189" cy="-71.00704" r="0.3em" stroke="rgb(25,25,25)" stroke-width="0" fill="rgb(25,25,25)" />
<circle cx="310.01855" cy="-96.99742" r="0.3em" stroke="rgb(25,25,25)" stroke-width="0" fill="rgb(25,25,25)" />
<circle cx="355.03521" cy="-122.98780" r="0.3em" stroke="rgb(25,25,25)" stroke-width="0" fill="rgb(25,25,25)" />
<circle cx="433.00635" cy="-168.00446" r="0.3em" stroke="rgb(25,25,25)" stroke-width="0" fill="rgb(25,25,25)" />
<circle cx="478.02301" cy="-193.99485" r="0.3em" stroke="rgb(25,25,25)" stroke-width="0" fill="rgb(25,25,25)" />
<circle cx="-407.01597" cy="265.00189" r="0.3em" stroke="rgb(25,25,25)" stroke-width="0" fill="rgb(25,25,25)" />
<circle cx="-361.99931" cy="239.01151" r="0.3em" stroke="rgb(25,25,25)" stroke-width="0" fill="rgb(25,25,25)" />
<circle cx="-284.02817" cy="193.99485" r="0.3em" stroke="rgb(25,25,25)" stroke-width="0" fill="rgb(25,25,25)" />
<circle cx="-239.01151" cy="168.00446" r="0.3em" stroke="rgb(25,25,25)" stroke-width="0" fill="rgb(25,25,25)" />
<circle cx="-161.04036" cy="122.98780" r="0.3em" stroke="rgb(25,25,25)" stroke-width="0" fill="rgb(25,25,25)" />
<circle cx="-116.02370" cy="96.99742" r="0.3em" stroke="rgb(25,25,25)" stroke-width="0" fill="rgb(25,25,25)" />
<circle cx="-71.00704" cy="71.00704" r="0.3em" stroke="rgb(25,25,25)" stroke-width="0" fill="rgb(25,25,25)" />
<circle cx="6.96410" cy="25.99038" r="0.3em" stroke="rgb(25,25,25)" stroke-width="0" fill="rgb(25,25,25)" />
<circle cx="51.98076" cy="0.00000" r="0.3em" stroke="rgb(25,25,25)" stroke-width="0" fill="rgb(25,25,25)" />
<circle cx="96.99742" cy="-25.99038" r="0.3em" stroke="rgb(25,25,25)" stroke-width="0" fill="rgb(25,25,25)" />
<circle cx="174.96857" cy="-71.00704" r="0.3em" stroke="rgb(25,25,25)" stroke-width="0" fill="rgb(25,25,25)" />
<circle cx="219.98523" cy="-96.99742" r="0.3em" stroke="rgb(25,25,25)" stroke-width="0" fill="rgb(25,25,25)" />
<circle cx="265.00189" cy="-122.98780" r="0.3em" stroke="rgb(25,25,25)" stroke-width="0" fill="rgb(25,25,25)" />
<circle cx="342.97303" cy="-168.00446" r="0.3em" stroke="rgb(25,25,25)" stroke-width="0" fill="rgb(25,25,25)" />
<circle cx="387.98969" cy="-193.99485" r="0.3em" stroke="rgb(25,25,25)" stroke-width="0" fill="rgb(25,25,25)" />
<circle cx="465.96083" cy="-239.01151" r="0.3em" stroke="rgb(25,25,25)" stroke-width="0" fill="rgb(25,25,25)" />
<circle cx="510.97749" cy="-265.00189" r="0.3em" stroke="rgb(25,25,25)" stroke-width="0" fill="rgb(25,25,25)" />
<circle cx="-458.99673" cy="265.00189" r="0.3em" stroke="rgb(25,25,25)" stroke-width="0" fill="rgb(25,25,25)" />
<circle cx="-413.98007" cy="239.01151" r="0.3em" stroke="rgb(25,25,25)" stroke-width="0" fill="rgb(25,25,25)" />
<circle cx="-336.00893" cy="193.99485" r="0.3em" stroke="rgb(25,25,25)" stroke-width="0" fill="rgb(25,25,25)" />
<circle cx="-290.99227" cy="168.00446" r="0.3em" stroke="rgb(25,25,25)" stroke-width="0" fill="rgb(25,25,25)" />
<circle cx="-213.02112" cy="122.98780" r="0.3em" stroke="rgb(25,25,25)" stroke-width="0" fill="rgb(25,25,25)" />
<circle cx="-168.00446" cy="96.99742" r="0.3em" stroke="rgb(25,25,25)" stroke-width="0" fill="rgb(25,25,25)" />
<circle cx="-122.98780" cy="71.00704" r="0.3em" stroke="rgb(25,25,25)" stroke-width="0" fill="rgb(25,25,25)" />
<circle cx="-45.01666" cy="25.99038" r="0.3em" stroke="rgb(25,25,25)" stroke-width="0" fill="rgb(25,25,25)" />
<circle cx="0.00000" cy="0.00000" r="0.3em" stroke="rgb(25,25,25)" stroke-width="0" fill="rgb(25,25,25)" />
<circle cx="45.01666" cy="-25.99038" r="0.3em" stroke="rgb(25,25,25)" stroke-width="0" fill="rgb(25,25,25)" />
<circle cx="122.98780" cy="-71.00704" r="0.3em" stroke="rgb(25,25,25)" stroke-width="0" fill="rgb(25,25,25)" />
<circle cx="168.00446" cy="-96.99742" r="0.3em" stroke="rgb(25,25,25)" stroke-width="0" fill="rgb(25,25,25)" />
<circle cx="213.02112" cy="-122.98780" r="0.3em" stroke="rgb(25,25,25)" stroke-width="0" fill="rgb(25,25,25)" />
<circle cx="290.99227" cy="-168.00446" r="0.3em" stroke="rgb(25,25,25)" stroke-width="0" fill="rgb(25,25,25)" />
<circle cx="336.00893" cy="-193.99485" r="0.3em" stroke="rgb(25,25,25)" stroke-width="0" fill="rgb(25,25,25)" />
<circle cx="413.98007" cy="-239.01151" r="0.3em" stroke="rgb(25,25,25)" stroke-width="0" fill="rgb(25,25,25)" />
<circle cx="458.99673" cy="-265.00189" r="0.3em" stroke="rgb(25,25,25)" stroke-width="0" fill="rgb(25,25,25)" />
<circle cx="-510.97749" cy="265.00189" r="0.3em" stroke="rgb(25,25,25)" stroke-width="0" fill="rgb(25,25,25)" />
<circle cx="-465.96083" cy="239.01151" r="0.3em" stroke="rgb(25,25,25)" stroke-width="0" fill="rgb(25,25,25)" />
<circle cx="-387.98969" cy="193.99485" r="0.3em" stroke="rgb(25,25,25)" stroke-width="0" fill="rgb(25,25,25)" />
<circle cx="-342.97303" cy="168.00446" r="0.3em" stroke="rgb(25,25,25)" stroke-width="0" fill="rgb(25,25,25)" />
<circle cx="-265.00189" cy="122.98780" r="0.3em" stroke="rgb(25,25,25)" stroke-width="0" fill="rgb(25,25,25)" />
<circle cx="-219.98523" cy="96.99742" r="0.3em" stroke="rgb(25,25,25)" stroke-width="0" fill="rgb(25,25,25)" />
<circle cx="-174.96857" cy="71.00704" r="0.3em" stroke="rgb(25,25,25)" stroke-width="0" fill="rgb(25,25,25)" />
<circle cx="-96.99742" cy="25.99038" r="0.3em" stroke="rgb(25,25,25)" stroke-width="0" fill="rgb(25,25,25)" />
<circle cx="-51.98076" cy="0.00000" r="0.3em" stroke="rgb(25,25,25)" stroke-width="0" fill="rgb(25,25,25)" />
<circle cx="-6.96410" cy="-25.99038" r="0.3em" stroke="rgb(25,25,25)" stroke-width="0" fill="rgb(25,25,25)" />
<circle cx="71.00704" cy="-71.00704" r="0.3em" stroke="rgb(25,25,25)" stroke-width="0" fill="rgb(25,25,25)" />
<circle cx="116.02370" cy="-96.99742" r="0.3em" stroke="rgb(25,25,25)" stroke-width="0" fill="rgb(25,25,25)" />
<circle cx="161.04036" cy="-122.98780" r="0.3em" stroke="rgb(25,25,25)" stroke-width="0" fill="rgb(25,25,25)" />
<circle cx="239.01151" cy="-168.00446" r="0.3em" stroke="rgb(25,25,25)" stroke-width="0" fill="rgb(25,25,25)" />
<circle cx="284.02817" cy="-193.99485" r="0.3em" stroke="rgb(25,25,25)" stroke-width="0" fill="rgb(25,25,25)" />
<circle cx="361.99931" cy="-239.01151" r="0.3em" stroke="rgb(25,25,25)" stroke-width="0" fill="rgb(25,25,25)" />
<circle cx="407.01597" cy="-265.00189" r="0.3em" stroke="rgb(25,25,25)" stroke-width="0" fill="rgb(25,25,25)" />
<circle cx="-478.02301" cy="193.99485" r="0.3em" stroke="rgb(25,25,25)" stroke-width="0" fill="rgb(25,25,25)" />
<circle cx="-433.00635" cy="168.00446" r="0.3em" stroke="rgb(25,25,25)" stroke-width="0" fill="rgb(25,25,25)" />
<circle cx="-355.03521" cy="122.98780" r="0.3em" stroke="rgb(25,25,25)" stroke-width="0" fill="rgb(25,25,25)" />
<circle cx="-310.01855" cy="96.99742" r="0.3em" stroke="rgb(25,25,25)" stroke-width="0" fill="rgb(25,25,25)" />
<circle cx="-265.00189" cy="71.00704" r="0.3em" stroke="rgb(25,25,25)" stroke-width="0" fill="rgb(25,25,25)" />
<circle cx="-187.03074" cy="25.99038" r="0.3em" stroke="rgb(25,25,25)" stroke-width="0" fill="rgb(25,25,25)" />
<circle cx="-142.01408" cy="0.00000" r="0.3em" stroke="rgb(25,25,25)" stroke-width="0" fill="rgb(25,25,25)" />
<circle cx="-96.99742" cy="-25.99038" r="0.3em" stroke="rgb(25,25,25)" stroke-width="0" fill="rgb(25,25,25)" />
<circle cx="-19.02628" cy="-71.00704" r="0.3em" stroke="rgb(25,25,25)" stroke-width="0" fill="rgb(25,25,25)" />
<circle cx="25.99038" cy="-96.99742" r="0.3em" stroke="rgb(25,25,25)" stroke-width="0" fill="rgb(25,25,25)" />
<circle cx="71.00704" cy="-122.98780" r="0.3em" stroke="rgb(25,25,25)" stroke-width="0" fill="rgb(25,25,25)" />
<circle cx="148.97818" cy="-168.00446" r="0.3em" stroke="rgb(25,25,25)" stroke-width="0" fill="rgb(25,25,25)" />
<circle cx="193.99485" cy="-193.99485" r="0.3em" stroke="rgb(25,25,25)" stroke-width="0" fill="rgb(25,25,25)" />
<circle cx="271.96599" cy="-239.01151" r="0.3em" stroke="rgb(25,25,25)" stroke-width="0" fill="rgb(25,25,25)" />
<circle cx="316.98265" cy="-265.00189" r="0.3em" stroke="rgb(25,25,25)" stroke-width="0" fill="rgb(25,25,25)" />
<circle cx="-484.98711" cy="168.00446" r="0.3em" stroke="rgb(25,25,25)" stroke-width="0" fill="rgb(25,25,25)" />
<circle cx="-407.01597" cy="122.98780" r="0.3em" stroke="rgb(25,25,25)" stroke-width="0" fill="rgb(25,25,25)" />
<circle cx="-361.99931" cy="96.99742" r="0.3em" stroke="rgb(25,25,25)" stroke-width="0" fill="rgb(25,25,25)" />
<circle cx="-316.98265" cy="71.00704" r="0.3em" stroke="rgb(25,25,25)" stroke-width="0" fill="rgb(25,25,25)" />
<circle cx="-239.01151" cy="25.99038" r="0.3em" stroke="rgb(25,25,25)" stroke-width="0" fill="rgb(25,25,25)" />
<circle cx="-193.99485" cy="0.00000" r="0.3em" stroke="rgb(25,25,25)" stroke-width="0" fill="rgb(25,25,25)" />
<circle cx="-148.97818" cy="-25.99038" r="0.3em" stroke="rgb(25,25,25)" stroke-width="0" fill="rgb(25,25,25)" />
<circle cx="-71.00704" cy="-71.00704" r="0.3em" stroke="rgb(25,25,25)" stroke-width="0" fill="rgb(25,25,25)" />
<circle cx="-25.99038" cy="-96.99742" r="0.3em" stroke="rgb(25,25,25)" stroke-width="0" fill="rgb(25,25,25)" />
<circle cx="19.02628" cy="-122.98780" r="0.3em" stroke="rgb(25,25,25)" stroke-width="0" fill="rgb(25,25,25)" />
<circle cx="96.99742" cy="-168.00446" r="0.3em" stroke="rgb(25,25,25)" stroke-width="0" fill="rgb(25,25,25)" />
<circle cx="142.01408" cy="-193.99485" r="0.3em" stroke="rgb(25,25,25)" stroke-width="0" fill="rgb(25,25,25)" />
<circle cx="219.98523" cy="-239.01151" r="0.3em" stroke="rgb(25,25,25)" stroke-width="0" fill="rgb(25,25,25)" />
<circle cx="265.00189" cy="-265.00189" r="0.3em" stroke="rgb(25,25,25)" stroke-width="0" fill="rgb(25,25,25)" />
<circle cx="-458.99673" cy="122.98780" r="0.3em" stroke="rgb(25,25,25)" stroke-width="0" fill="rgb(25,25,25)" />
<circle cx="-413.98007" cy="96.99742" r="0.3em" stroke="rgb(25,25,25)" stroke-width="0" fill="rgb(25,25,25)" />
<circle cx="-368.96341" cy="71.00704" r="0.3em" stroke="rgb(25,25,25)" stroke-width="0" fill="rgb(25,25,25)" />
<circle cx="-290.99227" cy="25.99038" r="0.3em" stroke="rgb(25,25,25)" stroke-width="0" fill="rgb(25,25,25)" />
<circle cx="-245.97561" cy="0.00000" r="0.3em" stroke="rgb(25,25,25)" stroke-width="0" fill="rgb(25,25,25)" />
<circle cx="-200.95895" cy="-25.99038" r="0.3em" stroke="rgb(25,25,25)" stroke-width="0" fill="rgb(25,25,25)" />
<circle cx="-122.98780" cy="-71.00704" r="0.3em" stroke="rgb(25,25,25)" stroke-width="0" fill="rgb(25,25,25)" />
<circle cx="-77.97114" cy="-96.99742" r="0.3em" stroke="rgb(25,25,25)" stroke-width="0" fill="rgb(25,25,25)" />
<circle cx="-32.95448" cy="-122.98780" r="0.3em" stroke="rgb(25,25,25)" stroke-width="0" fill="rgb(25,25,25)" />
<circle cx="45.01666" cy="-168.00446" r="0.3em" stroke="rgb(25,25,25)" stroke-width="0" fill="rgb(25,25,25)" />
<circle cx="90.03332" cy="-193.99485" r="0.3em" stroke="rgb(25,25,25)" stroke-width="0" fill="rgb(25,25,25)" />
<circle cx="168.00446" cy="-239.01151" r="0.3em" stroke="rgb(25,25,25)" stroke-width="0" fill="rgb(25,25,25)" />
<circle cx="213.02112" cy="-265.00189" r="0.3em" stroke="rgb(25,25,25)" stroke-width="0" fill="rgb(25,25,25)" />
<circle cx="-504.01339" cy="96.99742" r="0.3em" stroke="rgb(25,25,25)" stroke-width="0" fill="rgb(25,25,25)" />
<circle cx="-458.99673" cy="71.00704" r="0.3em" stroke="rgb(25,25,25)" stroke-width="0" fill="rgb(25,25,25)" />
<circle cx="-381.02559" cy="25.99038" r="0.3em" stroke="rgb(25,25,25)" stroke-width="0" fill="rgb(25,25,25)" />
<circle cx="-336.00893" cy="0.00000" r="0.3em" stroke="rgb(25,25,25)" stroke-width="0" fill="rgb(25,25,25)" />
<circle cx="-290.99227" cy="-25.99038" r="0.3em" stroke="rgb(25,25,25)" stroke-width="0" fill="rgb(25,25,25)" />
<circle cx="-213.02112" cy="-71.00704" r="0.3em" stroke="rgb(25,25,25)" stroke-width="0" fill="rgb(25,25,25)" />
<circle cx="-168.00446" cy="-96.99742" r="0.3em" stroke="rgb(25,25,25)" stroke-width="0" fill="rgb(25,25,25)" />
<circle cx="-122.98780" cy="-122.98780" r="0.3em" stroke="rgb(25,25,25)" stroke-width="0" fill="rgb(25,25,25)" />
<circle cx="-45.01666" cy="-168.00446" r="0.3em" stroke="rgb(25,25,25)" stroke-width="0" fill="rgb(25,25,25)" />
<circle cx="0.00000" cy="-193.99485" r="0.3em" stroke="rgb(25,25,25)" stroke-width="0" fill="rgb(25,25,25)" />
<circle cx="77.97114" cy="-239.01151" r="0.3em" stroke="rgb(25,25,25)" stroke-width="0" fill="rgb(25,25,25)" />
<circle cx="122.98780" cy="-265.00189" r="0.3em" stroke="rgb(25,25,25)" stroke-width="0" fill="rgb(25,25,25)" />
<circle cx="-510.97749" cy="71.00704" r="0.3em" stroke="rgb(25,25,25)" stroke-width="0" fill="rgb(25,25,25)" />
<circle cx="-433.00635" cy="25.99038" r="0.3em" stroke="rgb(25,25,25)" stroke-width="0" fill="rgb(25,25,25)" />
<circle cx="-387.98969" cy="0.00000" r="0.3em" stroke="rgb(25,25,25)" stroke-width="0" fill="rgb(25,25,25)" />
<circle cx="-342.97303" cy="-25.99038" r="0.3em" stroke="rgb(25,25,25)" stroke-width="0" fill="rgb(25,25,25)" />
<circle cx="-265.00189" cy="-71.00704" r="0.3em" stroke="rgb(25,25,25)" stroke-width="0" fill="rgb(25,25,25)" />
<circle cx="-219.98523" cy="-96.99742" r="0.3em" stroke="rgb(25,25,25)" stroke-width="0" fill="rgb(25,25,25)" />
<circle cx="-174.96857" cy="-122.98780" r="0.3em" stroke="rgb(25,25,25)" stroke-width="0" fill="rgb(25,25,25)" />
<circle cx="-96.99742" cy="-168.00446" r="0.3em" stroke="rgb(25,25,25)" stroke-width="0" fill="rgb(25,25,25)" />
<circle cx="-51.98076" cy="-193.99485" r="0.3em" stroke="rgb(25,25,25)" stroke-width="0" fill="rgb(25,25,25)" />
<circle cx="25.99038" cy="-239.01151" r="0.3em" stroke="rgb(25,25,25)" stroke-width="0" fill="rgb(25,25,25)" />
<circle cx="71.00704" cy="-265.00189" r="0.3em" stroke="rgb(25,25,25)" stroke-width="0" fill="rgb(25,25,25)" />
<circle cx="-478.02301" cy="0.00000" r="0.3em" stroke="rgb(25,25,25)" stroke-width="0" fill="rgb(25,25,25)" />
<circle cx="-433.00635" cy="-25.99038" r="0.3em" stroke="rgb(25,25,25)" stroke-width="0" fill="rgb(25,25,25)" />
<circle cx="-355.03521" cy="-71.00704" r="0.3em" stroke="rgb(25,25,25)" stroke-width="0" fill="rgb(25,25,25)" />
<circle cx="-310.01855" cy="-96.99742" r="0.3em" stroke="rgb(25,25,25)" stroke-width="0" fill="rgb(25,25,25)" />
<circle cx="-265.00189" cy="-122.98780" r="0.3em" stroke="rgb(25,25,25)" stroke-width="0" fill="rgb(25,25,25)" />
<circle cx="-187.03074" cy="-168.00446" r="0.3em" stroke="rgb(25,25,25)" stroke-width="0" fill="rgb(25,25,25)" />
<circle cx="-142.01408" cy="-193.99485" r="0.3em" stroke="rgb(25,25,25)" stroke-width="0" fill="rgb(25,25,25)" />
<circle cx="-64.04294" cy="-239.01151" r="0.3em" stroke="rgb(25,25,25)" stroke-width="0" fill="rgb(25,25,25)" />
<circle cx="-19.02628" cy="-265.00189" r="0.3em" stroke="rgb(25,25,25)" stroke-width="0" fill="rgb(25,25,25)" />
<circle cx="-484.98711" cy="-25.99038" r="0.3em" stroke="rgb(25,25,25)" stroke-width="0" fill="rgb(25,25,25)" />
<circle cx="-407.01597" cy="-71.00704" r="0.3em" stroke="rgb(25,25,25)" stroke-width="0" fill="rgb(25,25,25)" />
<circle cx="-361.99931" cy="-96.99742" r="0.3em" stroke="rgb(25,25,25)" stroke-width="0" fill="rgb(25,25,25)" />
<circle cx="-316.98265" cy="-122.98780" r="0.3em" stroke="rgb(25,25,25)" stroke-width="0" fill="rgb(25,25,25)" />
<circle cx="-239.01151" cy="-168.00446" r="0.3em" stroke="rgb(25,25,25)" stroke-width="0" fill="rgb(25,25,25)" />
<circle cx="-193.99485" cy="-193.99485" r="0.3em" stroke="rgb(25,25,25)" stroke-width="0" fill="rgb(25,25,25)" />
<circle cx="-116.02370" cy="-239.01151" r="0.3em" stroke="rgb(25,25,25)" stroke-width="0" fill="rgb(25,25,25)" />
<circle cx="-71.00704" cy="-265.00189" r="0.3em" stroke="rgb(25,25,25)" stroke-width="0" fill="rgb(25,25,25)" />
<circle cx="-458.99673" cy="-71.00704" r="0.3em" stroke="rgb(25,25,25)" stroke-width="0" fill="rgb(25,25,25)" />
<circle cx="-413.98007" cy="-96.99742" r="0.3em" stroke="rgb(25,25,25)" stroke-width="0" fill="rgb(25,25,25)" />
<circle cx="-368.96341" cy="-122.98780" r="0.3em" stroke="rgb(25,25,25)" stroke-width="0" fill="rgb(25,25,25)" />
<circle cx="-290.99227" cy="-168.00446" r="0.3em" stroke="rgb(25,25,25)" stroke-width="0" fill="rgb(25,25,25)" />
<circle cx="-245.97561" cy="-193.99485" r="0.3em" stroke="rgb(25,25,25)" stroke-width="0" fill="rgb(25,25,25)" />
<circle cx="-168.00446" cy="-239.01151" r="0.3em" stroke="rgb(25,25,25)" stroke-width="0" fill="rgb(25,25,25)" />
<circle cx="-122.98780" cy="-265.00189" r="0.3em" stroke="rgb(25,25,25)" stroke-width="0" fill="rgb(25,25,25)" />
<circle cx="-504.01339" cy="-96.99742" r="0.3em" stroke="rgb(25,25,25)" stroke-width="0" fill="rgb(25,25,25)" />
<circle cx="-458.99673" cy="-122.98780" r="0.3em" stroke="rgb(25,25,25)" stroke-width="0" fill="rgb(25,25,25)" />
<circle cx="-381.02559" cy="-168.00446" r="0.3em" stroke="rgb(25,25,25)" stroke-width="0" fill="rgb(25,25,25)" />
<circle cx="-336.00893" cy="-193.99485" r="0.3em" stroke="rgb(25,25,25)" stroke-width="0" fill="rgb(25,25,25)" />
<circle cx="-258.03779" cy="-239.01151" r="0.3em" stroke="rgb(25,25,25)" stroke-width="0" fill="rgb(25,25,25)" />
<circle cx="-213.02112" cy="-265.00189" r="0.3em" stroke="rgb(25,25,25)" stroke-width="0" fill="rgb(25,25,25)" />
<circle cx="-510.97749" cy="-122.98780" r="0.3em" stroke="rgb(25,25,25)" stroke-width="0" fill="rgb(25,25,25)" />
<circle cx="-433.00635" cy="-168.00446" r="0.3em" stroke="rgb(25,25,25)" stroke-width="0" fill="rgb(25,25,25)" />
<circle cx="-387.98969" cy="-193.99485" r="0.3em" stroke="rgb(25,25,25)" stroke-width="0" fill="rgb(25,25,25)" />
<circle cx="-310.01855" cy="-239.01151" r="0.3em" stroke="rgb(25,25,25)" stroke-width="0" fill="rgb(25,25,25)" />
<circle cx="-265.00189" cy="-265.00189" r="0.3em" stroke="rgb(25,25,25)" stroke-width="0" fill="rgb(25,25,25)" />
<circle cx="-484.98711" cy="-168.00446" r="0.3em" stroke="rgb(25,25,25)" stroke-width="0" fill="rgb(25,25,25)" />
<circle cx="-439.97045" cy="-193.99485" r="0.3em" stroke="rgb(25,25,25)" stroke-width="0" fill="rgb(25,25,25)" />
<circle cx="-361.99931" cy="-239.01151" r="0.3em" stroke="rgb(25,25,25)" stroke-width="0" fill="rgb(25,25,25)" />
<circle cx="-316.98265" cy="-265.00189" r="0.3em" stroke="rgb(25,25,25)" stroke-width="0" fill="rgb(25,25,25)" />
<circle cx="-452.03263" cy="-239.01151" r="0.3em" stroke="rgb(25,25,25)" stroke-width="0" fill="rgb(25,25,25)" />
<circle cx="-407.01597" cy="-265.00189" r="0.3em" stroke="rgb(25,25,25)" stroke-width="0" fill="rgb(25,25,25)" />
<circle cx="-504.01339" cy="-239.01151" r="0.3em" stroke="rgb(25,25,25)" stroke-width="0" fill="rgb(25,25,25)" />
<circle cx="-458.99673" cy="-265.00189" r="0.3em" stroke="rgb(25,25,25)" stroke-width="0" fill="rgb(25,25,25)" />
<circle cx="-510.97749" cy="-265.00189" r="0.3em" stroke="rgb(25,25,25)" stroke-width="0" fill="rgb(25,25,25)" />


<line x1="-532" x2="532" y1="0" y2="0" stroke="rgb(25,25,25)" stroke-width="1" transform="translate(0,0)"/>
<line x1="-532" x2="532" y1="0" y2="0" stroke="rgb(25,25,25)" stroke-width="1" transform="translate(0,25.99038)"/>
<line x1="-532" x2="532" y1="0" y2="0" stroke="rgb(25,25,25)" stroke-width="1" transform="translate(0,71.00704)"/>
<line x1="-532" x2="532" y1="0" y2="0" stroke="rgb(25,25,25)" stroke-width="1" transform="translate(0,96.99742)"/>
<line x1="-532" x2="532" y1="0" y2="0" stroke="rgb(25,25,25)" stroke-width="1" transform="translate(0,122.98780)"/>
<line x1="-532" x2="532" y1="0" y2="0" stroke="rgb(25,25,25)" stroke-width="1" transform="translate(0,168.00446)"/>
<line x1="-532" x2="532" y1="0" y2="0" stroke="rgb(25,25,25)" stroke-width="1" transform="translate(0,193.99485)"/>
<line x1="-532" x2="532" y1="0" y2="0" stroke="rgb(25,25,25)" stroke-width="1" transform="translate(0,239.01151)"/>

<line x1="-532" x2="532" y1="0" y2="0" stroke="rgb(25,25,25)" stroke-width="1" transform="translate(0,-25.99038)"/>
<line x1="-532" x2="532" y1="0" y2="0" stroke="rgb(25,25,25)" stroke-width="1" transform="translate(0,-71.00704)"/>
<line x1="-532" x2="532" y1="0" y2="0" stroke="rgb(25,25,25)" stroke-width="1" transform="translate(0,-96.99742)"/>
<line x1="-532" x2="532" y1="0" y2="0" stroke="rgb(25,25,25)" stroke-width="1" transform="translate(0,-122.98780)"/>
<line x1="-532" x2="532" y1="0" y2="0" stroke="rgb(25,25,25)" stroke-width="1" transform="translate(0,-168.00446)"/>
<line x1="-532" x2="532" y1="0" y2="0" stroke="rgb(25,25,25)" stroke-width="1" transform="translate(0,-193.99485)"/>
<line x1="-532" x2="532" y1="0" y2="0" stroke="rgb(25,25,25)" stroke-width="1" transform="translate(0,-239.01151)"/>


<line x1="-866" x2="866" y1="500" y2="-500" stroke="rgb(25,25,25)" stroke-width="1" transform="translate(0,0)"/>
<line x1="-866" x2="866" y1="500" y2="-500" stroke="rgb(25,25,25)" stroke-width="1" transform="translate(51.98076,0)"/>
<line x1="-866" x2="866" y1="500" y2="-500" stroke="rgb(25,25,25)" stroke-width="1" transform="translate(142.01408,0)"/>
<line x1="-866" x2="866" y1="500" y2="-500" stroke="rgb(25,25,25)" stroke-width="1" transform="translate(193.99484,0)"/>
<line x1="-866" x2="866" y1="500" y2="-500" stroke="rgb(25,25,25)" stroke-width="1" transform="translate(245.9756,0)"/>
<line x1="-866" x2="866" y1="500" y2="-500" stroke="rgb(25,25,25)" stroke-width="1" transform="translate(336.00892,0)"/>
<line x1="-866" x2="866" y1="500" y2="-500" stroke="rgb(25,25,25)" stroke-width="1" transform="translate(387.98968,0)"/>
<line x1="-866" x2="866" y1="500" y2="-500" stroke="rgb(25,25,25)" stroke-width="1" transform="translate(478.023,0)"/>
<line x1="-866" x2="866" y1="500" y2="-500" stroke="rgb(25,25,25)" stroke-width="1" transform="translate(530.00376,0)"/>
<line x1="-866" x2="866" y1="500" y2="-500" stroke="rgb(25,25,25)" stroke-width="1" transform="translate(581.98452,0)"/>
<line x1="-866" x2="866" y1="500" y2="-500" stroke="rgb(25,25,25)" stroke-width="1" transform="translate(672.01784,0)"/>
<line x1="-866" x2="866" y1="500" y2="-500" stroke="rgb(25,25,25)" stroke-width="1" transform="translate(723.9986,0)"/>
<line x1="-866" x2="866" y1="500" y2="-500" stroke="rgb(25,25,25)" stroke-width="1" transform="translate(775.97936,0)"/>
<line x1="-866" x2="866" y1="500" y2="-500" stroke="rgb(25,25,25)" stroke-width="1" transform="translate(866.01268,0)"/>

<line x1="-866" x2="866" y1="500" y2="-500" stroke="rgb(25,25,25)" stroke-width="1" transform="translate(-51.98076,0)"/>
<line x1="-866" x2="866" y1="500" y2="-500" stroke="rgb(25,25,25)" stroke-width="1" transform="translate(-142.01408,0)"/>
<line x1="-866" x2="866" y1="500" y2="-500" stroke="rgb(25,25,25)" stroke-width="1" transform="translate(-193.99484,0)"/>
<line x1="-866" x2="866" y1="500" y2="-500" stroke="rgb(25,25,25)" stroke-width="1" transform="translate(-245.9756,0)"/>
<line x1="-866" x2="866" y1="500" y2="-500" stroke="rgb(25,25,25)" stroke-width="1" transform="translate(-336.00892,0)"/>
<line x1="-866" x2="866" y1="500" y2="-500" stroke="rgb(25,25,25)" stroke-width="1" transform="translate(-387.98968,0)"/>
<line x1="-866" x2="866" y1="500" y2="-500" stroke="rgb(25,25,25)" stroke-width="1" transform="translate(-478.023,0)"/>
<line x1="-866" x2="866" y1="500" y2="-500" stroke="rgb(25,25,25)" stroke-width="1" transform="translate(-530.00376,0)"/>
<line x1="-866" x2="866" y1="500" y2="-500" stroke="rgb(25,25,25)" stroke-width="1" transform="translate(-581.98452,0)"/>
<line x1="-866" x2="866" y1="500" y2="-500" stroke="rgb(25,25,25)" stroke-width="1" transform="translate(-672.01784,0)"/>
<line x1="-866" x2="866" y1="500" y2="-500" stroke="rgb(25,25,25)" stroke-width="1" transform="translate(-723.9986,0)"/>
<line x1="-866" x2="866" y1="500" y2="-500" stroke="rgb(25,25,25)" stroke-width="1" transform="translate(-775.97936,0)"/>
<line x1="-866" x2="866" y1="500" y2="-500" stroke="rgb(25,25,25)" stroke-width="1" transform="translate(-866.01268,0)"/>

</g>
</svg>
